<svg xmlns="http://www.w3.org/2000/svg" width="318" height="366" style="fill-opacity:1;color-rendering:auto;color-interpolation:auto;text-rendering:auto;stroke:#000;stroke-linecap:square;stroke-miterlimit:10;shape-rendering:auto;stroke-opacity:1;fill:#000;stroke-dasharray:none;font-weight:400;stroke-width:1;font-family:&quot;Dialog&quot;;font-style:normal;stroke-linejoin:miter;font-size:12;stroke-dashoffset:0;image-rendering:auto" viewBox="0 0 318 366"><g style="font-size:14;text-rendering:geometricPrecision;color-rendering:optimizeQuality;image-rendering:optimizeQuality;font-family:&quot;Open Sans&quot;;color-interpolation:linearRGB"><path d="M281.333 241.333 218 272M283.333 448.667 220 464" style="stroke-linecap:butt;fill:none" transform="translate(-104 -158)"/><path stroke="none" d="M9.084 281.154c.279-.563.347-1.183 0-1.81z" style="fill:#666;stroke-linecap:butt;stroke:none" transform="translate(55.243 54.283)"/><path d="M9.084 281.154c.279-.563.347-1.183 0-1.81z" style="fill:none;stroke-width:1.6261;stroke-linecap:round;stroke-linejoin:round" transform="translate(55.243 54.283)"/><text x="289.602" y="243.815" style="font-style:normal;font-variant:normal;font-weight:400;font-stretch:normal;font-size:25.60000038px;line-height:1.25;font-family:sans-serif;-inkscape-font-specification:&quot;sans-serif, Normal&quot;;font-variant-ligatures:normal;font-variant-caps:normal;font-variant-numeric:normal;font-feature-settings:normal;text-align:start;letter-spacing:0;word-spacing:0;writing-mode:lr-tb;text-anchor:start;fill:#000;fill-opacity:1;stroke:none" transform="translate(-104 -158)"><tspan x="289.602" y="243.815" style="font-size:16px;line-height:1">Burette</tspan><tspan x="289.602" y="275.815" style="font-size:16px;line-height:1">(réactif titrant)</tspan></text><text x="303.584" y="433.529" style="font-style:normal;font-variant:normal;font-weight:400;font-stretch:normal;font-size:25.60000038px;line-height:1.25;font-family:sans-serif;-inkscape-font-specification:&quot;sans-serif, Normal&quot;;font-variant-ligatures:normal;font-variant-caps:normal;font-variant-numeric:normal;font-feature-settings:normal;text-align:start;letter-spacing:0;word-spacing:0;writing-mode:lr-tb;text-anchor:start;fill:#000;fill-opacity:1;stroke:none" transform="translate(-104 -158)"/><text x="287.106" y="450.819" style="font-style:normal;font-variant:normal;font-weight:400;font-stretch:normal;font-size:25.60000038px;line-height:1.25;font-family:sans-serif;-inkscape-font-specification:&quot;sans-serif, Normal&quot;;font-variant-ligatures:normal;font-variant-caps:normal;font-variant-numeric:normal;font-feature-settings:normal;text-align:start;letter-spacing:0;word-spacing:0;writing-mode:lr-tb;text-anchor:start;color-interpolation:linearRGB;fill:#000;fill-opacity:1;stroke:none;stroke-width:1;stroke-linecap:square;stroke-linejoin:miter;stroke-miterlimit:10;stroke-dasharray:none;stroke-dashoffset:0;stroke-opacity:1;color-rendering:optimizeQuality;image-rendering:optimizeQuality;shape-rendering:auto;text-rendering:geometricPrecision" transform="translate(-104 -158)"><tspan x="287.106" y="450.819" style="font-size:16px;line-height:1">Erlenmeyer</tspan><tspan x="287.106" y="482.819" style="font-size:16px;line-height:1">(réactif titré)</tspan></text></g><g style="stroke-linecap:round;font-size:14;fill:#666;text-rendering:geometricPrecision;image-rendering:optimizeQuality;color-rendering:optimizeQuality;font-family:&quot;Open Sans&quot;;stroke-linejoin:round;stroke:#666;color-interpolation:linearRGB;stroke-width:1.6261" transform="translate(55.243 54.283)"><path stroke="none" d="M8.245 267.947c-2.055-1.552-2.856-1.785-4.998-2.497-1.358-.451-2.277-.766-2.409-1.387v10.102c-.201.889.803 1.224 2.409 1.758 2.142.714 2.943.947 4.998 2.498.405.304.668.615.84.924v-8.664c.417-.842.382-1.811-.84-2.734" style="stroke:none"/><path d="M8.245 267.947c-2.055-1.552-2.856-1.785-4.998-2.497-1.358-.451-2.277-.766-2.409-1.387v10.102c-.201.889.803 1.224 2.409 1.758 2.142.714 2.943.947 4.998 2.498.405.304.668.615.84.924v-8.664c.417-.842.382-1.811-.84-2.734" style="fill:none;stroke:#000"/><path stroke="none" d="M.838 264.063v-.369a.8.8 0 0 0 0 .369" style="stroke:none"/><path d="M.838 264.063v-.369a.8.8 0 0 0 0 .369" style="fill:none;stroke:#000"/><path stroke="none" d="M1.838 280.353v12.72c0 4.476 5.256 8.543 13.822 11.548v-12.719c-8.565-3.007-13.822-7.074-13.822-11.549" style="fill:gray;stroke:none"/><path d="M1.838 280.353v12.72c0 4.476 5.256 8.543 13.822 11.548v-12.719c-8.565-3.007-13.822-7.074-13.822-11.549" style="fill:none;stroke:#000"/><path stroke="none" d="M52.166 266.018c-23.458 0-42.475 6.338-42.475 14.159 0 2.32 1.678 4.512 4.648 6.446l.002.003c7.037-4.58 21.333-7.712 37.824-7.712 19.908 0 36.617 5.33 41.218 11.491v-13.661c-4.6-6.159-21.309-10.726-41.217-10.726" style="fill:#333;stroke:none"/><path d="M52.166 266.018c-23.458 0-42.475 6.338-42.475 14.159 0 2.32 1.678 4.512 4.648 6.446l.002.003c7.037-4.58 21.333-7.712 37.824-7.712 19.908 0 36.617 5.33 41.218 11.491v-13.661c-4.6-6.159-21.309-10.726-41.217-10.726" style="fill:none;stroke-width:1.3724;stroke:#000"/><path stroke="none" d="m100.7 275.723-7.317 1.022v13.661l7.43-1.042Z" style="fill:#333;stroke-width:1.3724;stroke:none"/><path d="m100.7 275.723-7.317 1.022v13.661l7.43-1.042Z" style="fill:none;stroke-width:1.3724;stroke:#000"/><path stroke="none" d="M15.66 304.621v-12.897l4.653-2.18v12.312Z" style="fill:gray;stroke-width:1.3724;stroke:none"/><path d="M15.66 304.621v-12.897l4.653-2.18v12.312Z" style="fill:none;stroke:#000"/><path stroke="none" d="M52.166 263.4c-5.352 0-10.509.278-15.348.794l-1.844.21s-4.244.333-9.954-.382-13.921-3.57-13.921-3.57-8.209.358-9.637 2.142c-1.427 1.786-.357 2.144 1.784 2.856s2.943.945 4.998 2.497c3.162 2.39-1.622 5.082-1.622 5.082l-1.079.818c-2.39 1.953-3.706 4.091-3.706 6.33 0 4.475 5.256 8.541 13.822 11.547l4.653-2.18c-6.61-2.496-10.623-5.776-10.623-9.367 0-7.821 19.017-14.159 42.475-14.159 19.908 0 36.617 4.567 41.218 10.727l7.316-1.021c-5.852-7.106-25.364-12.324-48.532-12.324" style="fill:#b3b3b3;stroke:none"/><path d="M52.166 263.4c-5.352 0-10.509.278-15.348.794l-1.844.21s-4.244.333-9.954-.382-13.921-3.57-13.921-3.57-8.209.358-9.637 2.142c-1.427 1.786-.357 2.144 1.784 2.856s2.943.945 4.998 2.497c3.162 2.39-1.622 5.082-1.622 5.082l-1.079.818c-2.39 1.953-3.706 4.091-3.706 6.33 0 4.475 5.256 8.541 13.822 11.547l4.653-2.18c-6.61-2.496-10.623-5.776-10.623-9.367 0-7.821 19.017-14.159 42.475-14.159 19.908 0 36.617 4.567 41.218 10.727l7.316-1.021c-5.852-7.106-25.364-12.324-48.532-12.324" style="fill:none;stroke:#000"/><ellipse cx="8.207" cy="2.598" stroke="none" rx="4.283" ry="1.784" style="stroke:none"/><ellipse cx="8.207" cy="2.598" rx="4.283" ry="1.784" style="fill:none;stroke:#000"/><path stroke="none" d="M12.49 2.598c0 .985-1.917 1.784-4.283 1.784-2.365 0-4.283-.799-4.283-1.784v260.631c0 .985 1.918 1.783 4.283 1.783s4.283-.798 4.283-1.783z" style="fill:#b3b3b3;stroke:none"/><path d="M12.49 2.598c0 .985-1.917 1.784-4.283 1.784-2.365 0-4.283-.799-4.283-1.784v260.631c0 .985 1.918 1.783 4.283 1.783s4.283-.798 4.283-1.783z" style="fill:none;stroke:#000"/></g><g style="stroke-linecap:round;font-size:14;fill:#e6e6e6;text-rendering:geometricPrecision;image-rendering:optimizeQuality;color-rendering:optimizeQuality;font-family:&quot;Open Sans&quot;;stroke-linejoin:round;stroke:#e6e6e6;color-interpolation:linearRGB;stroke-width:1.6261" transform="translate(50.918 310.966)scale(.5416)"><path stroke="none" d="M30.974 25.763C30.941 12.302 65.68 1.327 108.557 1.25c42.881-.08 77.664 10.77 77.695 24.23" style="stroke:none"/><path d="M30.974 25.763C30.941 12.302 65.68 1.327 108.557 1.25c42.881-.08 77.664 10.77 77.695 24.23" style="fill:none;stroke-width:2.5;stroke:#000"/><path stroke="none" d="M43.173 95.429C13.831 95.429.75 86.476.75 80.226l6.942-28.771c0-5.405 20.575-9.788 45.953-9.788H161.72c25.381 0 45.953 4.383 45.953 9.788l6.066 30.271c0 6.25-16.262 13.703-45.606 13.703z" style="fill:#ccc;stroke-width:2.5;stroke:none"/><path d="M43.173 95.429C13.831 95.429.75 86.476.75 80.226l6.942-28.771c0-5.405 20.575-9.788 45.953-9.788H161.72c25.381 0 45.953 4.383 45.953 9.788l6.066 30.271c0 6.25-16.262 13.703-45.606 13.703z" style="fill:none;stroke-width:1.5;stroke:#000"/><path stroke="none" d="M52.739 60.64c-25.79 0-45.333-3.289-44.693-10.334l14.149-30.52c2.053-3.897 17.443-7.329 39.748-7.329h94.987c22.307 0 38.054 3.432 40.389 8.772l10.354 30.225c0 5.602-19.315 9.186-45.106 9.186z" style="stroke-width:1.5;stroke:none"/><path d="M52.739 60.64c-25.79 0-45.333-3.289-44.693-10.334l14.149-30.52c2.053-3.897 17.443-7.329 39.748-7.329h94.987c22.307 0 38.054 3.432 40.389 8.772l10.354 30.225c0 5.602-19.315 9.186-45.106 9.186z" style="fill:none;stroke-width:1.5;stroke:#000"/><path stroke="none" d="M186.268 30.254c.029 13.461-34.706 24.438-77.583 24.514-42.882.08-77.667-10.772-77.702-24.231-.03-13.462 34.705-24.435 77.587-24.515 42.877-.077 77.664 10.772 77.698 24.232" style="fill:#000;stroke-width:1.5;stroke:none"/><path d="M186.268 30.254c.029 13.461-34.706 24.438-77.583 24.514-42.882.08-77.667-10.772-77.702-24.231-.03-13.462 34.705-24.435 77.587-24.515 42.877-.077 77.664 10.772 77.698 24.232" style="fill:none;stroke-width:.75;stroke:#000"/><path stroke="none" d="M186.252 25.481c.034 13.461-34.699 24.434-77.578 24.512-42.88.08-77.67-10.769-77.7-24.23C30.941 12.302 65.68 1.327 108.557 1.25c42.881-.08 77.664 10.77 77.695 24.231" style="fill:#666;stroke-width:.75;stroke:none"/><path d="M186.252 25.481c.034 13.461-34.699 24.434-77.578 24.512-42.88.08-77.67-10.769-77.7-24.23C30.941 12.302 65.68 1.327 108.557 1.25c42.881-.08 77.664 10.77 77.695 24.231" style="fill:none;stroke-width:.75;stroke:#000"/><path stroke="none" d="M137.229 25.57c.013 4.961-12.789 9.006-28.594 9.035-15.804.029-28.626-3.969-28.638-8.931s12.792-9.007 28.595-9.035c15.804-.029 28.625 3.97 28.637 8.931" style="fill:#4d4d4d;stroke-width:.75;stroke:none"/><path d="M137.229 25.57c.013 4.961-12.789 9.006-28.594 9.035-15.804.029-28.626-3.969-28.638-8.931s12.792-9.007 28.595-9.035c15.804-.029 28.625 3.97 28.637 8.931" style="fill:none;stroke-width:.5;stroke:#333"/><circle cx="160.946" cy="78.31" r="11.999" stroke="none" style="fill:#747474;stroke-width:.5;stroke:none"/><circle cx="160.946" cy="78.31" r="11.999" style="fill:none;stroke-width:.5;stroke:#000"/><circle cx="161.84" cy="81.702" r="11.999" stroke="none" style="fill:#9e9e9e;stroke-width:.5;stroke:none"/><circle cx="161.84" cy="81.702" r="11.999" style="fill:none;stroke-width:.5;stroke:#000"/><circle cx="161.758" cy="82.153" r="5.249" stroke="none" style="fill:#9e9e9e;stroke-width:.5;stroke:none"/><circle cx="161.758" cy="82.153" r="5.249" style="fill:none;stroke-width:.2187;stroke:#000"/><circle cx="87.562" cy="69.64" r="6" stroke="none" style="fill:#a0a0a0;stroke-width:.2187;stroke:none"/><circle cx="87.562" cy="69.64" r="6" style="fill:none;stroke-width:1;stroke:#000"/><circle cx="133.204" cy="69.64" r="6" stroke="none" style="fill:#767676;stroke-width:1;stroke:none"/><circle cx="133.204" cy="69.64" r="6" style="fill:none;stroke-width:1;stroke:#000"/><path stroke="none" d="M162.4 71.022v4.051" style="fill:#747474;stroke:none;stroke-width:1"/><path d="M162.4 71.022v4.051" style="fill:none;stroke:#000;stroke-width:.5"/><path stroke="none" d="M162.4 88.304v4.05" style="fill:#747474;stroke:none;stroke-width:.5"/><path d="M162.4 88.304v4.05" style="fill:none;stroke:#000;stroke-width:.5"/><path stroke="none" d="M172.66 82.364h-4.051" style="fill:#747474;stroke:none;stroke-width:.5"/><path d="M172.66 82.364h-4.051" style="fill:none;stroke:#000;stroke-width:.5"/><path stroke="none" d="M155.379 82.364h-4.051" style="fill:#747474;stroke:none;stroke-width:.5"/><path d="M155.379 82.364h-4.051" style="fill:none;stroke:#000;stroke-width:.5"/><path stroke="none" d="m154.381 74.345 2.863 2.863" style="fill:#747474;stroke:none;stroke-width:.5"/><path d="m154.381 74.345 2.863 2.863" style="fill:none;stroke:#000;stroke-width:.5"/><path stroke="none" d="m166.601 86.563 2.864 2.866" style="fill:#747474;stroke:none;stroke-width:.5"/><path d="m166.601 86.563 2.864 2.866" style="fill:none;stroke:#000;stroke-width:.5"/><path stroke="none" d="m169.655 75.108-2.864 2.864" style="fill:#747474;stroke:none;stroke-width:.5"/><path d="m169.655 75.108-2.864 2.864" style="fill:none;stroke:#000;stroke-width:.5"/><path stroke="none" d="m157.435 87.329-2.864 2.863" style="fill:#747474;stroke:none;stroke-width:.5"/><path d="m157.435 87.329-2.864 2.863" style="fill:none;stroke:#000;stroke-width:.5"/><ellipse cx="87.738" cy="67.872" stroke="none" rx="3.667" ry="2.334" style="fill:#c2c2c2;stroke:none;stroke-width:.5"/><ellipse cx="133.164" cy="67.872" stroke="none" rx="3.667" ry="2.334" style="fill:#8f8f8f;stroke:none;stroke-width:.5"/><path d="M173.195 76.788c-.668-5.995-6.076-10.478-12.249-10.478-6.627 0-11.999 5.372-11.999 11.999 0 1.682-.001 3.525.623 4.979 1.125 6.125 6.096 10.412 12.27 10.412 6.627 0 11.999-5.371 11.999-11.998 0-1.681-.088-2.543-.644-4.914" style="fill:none;stroke-width:1;stroke:#000"/><circle cx="59.912" cy="78.31" r="11.999" stroke="none" style="fill:#747474;stroke-width:1;stroke:none"/><circle cx="59.912" cy="78.31" r="11.999" style="fill:none;stroke-width:.5;stroke:#000"/><circle cx="59.019" cy="81.702" r="11.999" stroke="none" style="fill:#9e9e9e;stroke-width:.5;stroke:none"/><circle cx="59.019" cy="81.702" r="11.999" style="fill:none;stroke-width:.5;stroke:#000"/><circle cx="59.101" cy="82.153" r="5.249" stroke="none" style="fill:#9e9e9e;stroke-width:.5;stroke:none"/><circle cx="59.101" cy="82.153" r="5.249" style="fill:none;stroke-width:.2187;stroke:#000"/><path stroke="none" d="M58.458 71.022v4.051" style="fill:#747474;stroke:none;stroke-width:.2187"/><path d="M58.458 71.022v4.051" style="fill:none;stroke:#000;stroke-width:.5"/><path stroke="none" d="M58.458 88.304v4.05" style="fill:#747474;stroke:none;stroke-width:.5"/><path d="M58.458 88.304v4.05" style="fill:none;stroke:#000;stroke-width:.5"/><path stroke="none" d="M48.198 82.364h4.051" style="fill:#747474;stroke:none;stroke-width:.5"/><path d="M48.198 82.364h4.051" style="fill:none;stroke:#000;stroke-width:.5"/><path stroke="none" d="M65.479 82.364h4.051" style="fill:#747474;stroke:none;stroke-width:.5"/><path d="M65.479 82.364h4.051" style="fill:none;stroke:#000;stroke-width:.5"/><path stroke="none" d="m66.478 74.345-2.864 2.863" style="fill:#747474;stroke:none;stroke-width:.5"/><path d="m66.478 74.345-2.864 2.863" style="fill:none;stroke:#000;stroke-width:.5"/><path stroke="none" d="m54.258 86.563-2.864 2.866" style="fill:#747474;stroke:none;stroke-width:.5"/><path d="m54.258 86.563-2.864 2.866" style="fill:none;stroke:#000;stroke-width:.5"/><path stroke="none" d="m51.203 75.108 2.864 2.864" style="fill:#747474;stroke:none;stroke-width:.5"/><path d="m51.203 75.108 2.864 2.864" style="fill:none;stroke:#000;stroke-width:.5"/><path stroke="none" d="m63.424 87.329 2.863 2.863" style="fill:#747474;stroke:none;stroke-width:.5"/><path d="m63.424 87.329 2.863 2.863" style="fill:none;stroke:#000;stroke-width:.5"/><path d="M47.663 76.788c.667-5.995 6.076-10.478 12.249-10.478 6.627 0 11.999 5.372 11.999 11.999 0 1.682.001 3.525-.623 4.979C70.163 89.413 65.192 93.7 59.019 93.7c-6.627 0-11.999-5.371-11.999-11.998 0-1.681.087-2.543.643-4.914" style="fill:none;stroke-width:1;stroke:#000"/></g><g style="stroke-linecap:round;font-size:14;fill:#ccc;text-rendering:geometricPrecision;image-rendering:optimizeQuality;color-rendering:optimizeQuality;font-family:&quot;Open Sans&quot;;stroke-linejoin:round;stroke:#ccc;color-interpolation:linearRGB"><path stroke="none" d="M19.054 54.86V1.16l14.4 17.4h17.4v19.2h-18Z" style="stroke:none" transform="translate(3.494 72.99)"/><path d="M19.054 54.86V1.16l14.4 17.4h17.4v19.2h-18Z" style="fill:none;stroke-width:1.3543;stroke:#000" transform="translate(3.494 72.99)"/><path stroke="none" d="M25.354 19.16h4.2v18h-4.2z" style="fill:#999;stroke:none;stroke-width:1.3543" transform="translate(3.494 72.99)"/><path d="M25.354 19.16h4.2v18h-4.2z" style="fill:none;stroke:#000;stroke-width:1.3543" transform="translate(3.494 72.99)"/><path stroke="none" d="m42.277 23.345-26.529 1.778v6.153l26.802-1.641Z" style="fill:#b3b3b3;stroke-width:1.3543;stroke:none" transform="translate(3.494 72.99)"/><path d="m42.277 23.345-26.529 1.778v6.153l26.802-1.641Z" style="fill:none;stroke-width:1.3543;stroke:#000" transform="translate(3.494 72.99)"/><path stroke="none" d="M15.405 30.664a1.843 1.843 0 0 1-1.843 1.843H5.42a1.843 1.843 0 0 1-1.843-1.843v-5.065c0-1.019.825-1.843 1.843-1.843h8.141c1.018 0 1.843.824 1.843 1.843z" style="fill:#333;stroke-width:1.3543;stroke:none" transform="translate(3.494 72.99)"/><path d="M15.405 30.664a1.843 1.843 0 0 1-1.843 1.843H5.42a1.843 1.843 0 0 1-1.843-1.843v-5.065c0-1.019.825-1.843 1.843-1.843h8.141c1.018 0 1.843.824 1.843 1.843z" style="fill:none;stroke-width:1.2;stroke:#000" transform="translate(3.494 72.99)"/><path stroke="none" d="M101.432 1.16v53.7l-14.4-17.4H69.631v-19.2h18Z" style="stroke-width:1.2;stroke:none" transform="translate(3.494 72.99)"/><path d="M101.432 1.16v53.7l-14.4-17.4H69.631v-19.2h18Z" style="fill:none;stroke-width:1.3543;stroke:#000" transform="translate(3.494 72.99)"/><path stroke="none" d="M90.932 18.86h4.199v18h-4.199z" style="fill:#999;stroke:none;stroke-width:1.3543" transform="translate(3.494 72.99)"/><path d="M90.932 18.86h4.199v18h-4.199z" style="fill:none;stroke:#000;stroke-width:1.3543" transform="translate(3.494 72.99)"/><path stroke="none" d="m78.209 32.675 26.53-1.777v-6.154l-26.803 1.64Z" style="fill:#b3b3b3;stroke-width:1.3543;stroke:none" transform="translate(3.494 72.99)"/><path d="m78.209 32.675 26.53-1.777v-6.154l-26.803 1.64Z" style="fill:none;stroke-width:1.3543;stroke:#000" transform="translate(3.494 72.99)"/><path stroke="none" d="M105.081 25.357c0-1.019.826-1.844 1.844-1.844h8.141c1.019 0 1.844.825 1.844 1.844v5.064a1.843 1.843 0 0 1-1.844 1.844h-8.141a1.844 1.844 0 0 1-1.844-1.844z" style="fill:#333;stroke-width:1.3543;stroke:none" transform="translate(3.494 72.99)"/><path d="M105.081 25.357c0-1.019.826-1.844 1.844-1.844h8.141c1.019 0 1.844.825 1.844 1.844v5.064a1.843 1.843 0 0 1-1.844 1.844h-8.141a1.844 1.844 0 0 1-1.844-1.844z" style="fill:none;stroke-width:1.2;stroke:#000" transform="translate(3.494 72.99)"/><path stroke="none" d="M101.432 54.86s4.8-1.5 8.399-1.5c3.601 0 5.7 2.101 7.2 2.101s2.1-.301 2.7-3.301-.3-3.6-1.2-4.199c-.9-.601-5.419-1.186-8.1-1.5-5.101-.601-9 1.8-9 1.8v6.599Z" style="fill:#333;stroke-width:1.2;stroke:none" transform="translate(3.494 72.99)"/><path d="M101.432 54.86s4.8-1.5 8.399-1.5c3.601 0 5.7 2.101 7.2 2.101s2.1-.301 2.7-3.301-.3-3.6-1.2-4.199c-.9-.601-5.419-1.186-8.1-1.5-5.101-.601-9 1.8-9 1.8v6.599Z" style="fill:none;stroke-width:1.12;stroke:#000" transform="translate(3.494 72.99)"/><path stroke="none" d="M101.432 1.16s4.8 1.5 8.399 1.5c3.601 0 5.7-2.1 7.2-2.1s2.1.3 2.7 3.3-.3 3.601-1.2 4.2-5.419 1.185-8.1 1.5c-5.101.6-9-1.8-9-1.8v-6.6Z" style="fill:#333;stroke-width:1.12;stroke:none" transform="translate(3.494 72.99)"/><path d="M101.432 1.16s4.8 1.5 8.399 1.5c3.601 0 5.7-2.1 7.2-2.1s2.1.3 2.7 3.3-.3 3.601-1.2 4.2-5.419 1.185-8.1 1.5c-5.101.6-9-1.8-9-1.8v-6.6Z" style="fill:none;stroke-width:1.12;stroke:#000" transform="translate(3.494 72.99)"/><path stroke="none" d="M50.854 16.76h18.9v23.399h-18.9z" style="stroke-width:1.12;stroke:none" transform="translate(3.494 72.99)"/><path d="M50.854 16.76h18.9v23.399h-18.9z" style="fill:none;stroke:#000;stroke-width:1.3543" transform="translate(3.494 72.99)"/><path stroke="none" d="M58.354 19.16h4.2v18h-4.2z" style="fill:#4d4d4d;stroke:none;stroke-width:1.3543" transform="translate(3.494 72.99)"/><path d="M58.354 19.16h4.2v18h-4.2z" style="fill:none;stroke:#000;stroke-width:1.12" transform="translate(3.494 72.99)"/><path stroke="none" d="M63.907 23.993c1.381.006 2.496.985 2.491 2.189l-.015 3.723c-.006 1.205-1.128 2.174-2.51 2.168l-6.698-.025c-1.382-.006-2.497-.984-2.492-2.189l.015-3.723c.005-1.204 1.129-2.174 2.51-2.168z" style="stroke-width:1.12;stroke:none" transform="translate(3.494 72.99)"/><path d="M63.907 23.993c1.381.006 2.496.985 2.491 2.189l-.015 3.723c-.006 1.205-1.128 2.174-2.51 2.168l-6.698-.025c-1.382-.006-2.497-.984-2.492-2.189l.015-3.723c.005-1.204 1.129-2.174 2.51-2.168z" style="fill:none;stroke-width:1.12;stroke:#000" transform="translate(3.494 72.99)"/><path stroke="none" d="M19.054 1.16s-4.8 1.5-8.4 1.5-5.7-2.1-7.2-2.1-2.1.3-2.7 3.3.3 3.601 1.2 4.2 5.419 1.185 8.1 1.5c5.1.6 9-1.8 9-1.8z" style="fill:#333;stroke-width:1.12;stroke:none" transform="translate(3.494 72.99)"/><path d="M19.054 1.16s-4.8 1.5-8.4 1.5-5.7-2.1-7.2-2.1-2.1.3-2.7 3.3.3 3.601 1.2 4.2 5.419 1.185 8.1 1.5c5.1.6 9-1.8 9-1.8z" style="fill:none;stroke-width:1.12;stroke:#000" transform="translate(3.494 72.99)"/><path stroke="none" d="M19.054 54.86s-4.8-1.5-8.4-1.5-5.7 2.101-7.2 2.101-2.1-.301-2.7-3.301.3-3.6 1.2-4.199c.9-.601 5.419-1.186 8.1-1.5 5.1-.601 9 1.8 9 1.8z" style="fill:#333;stroke-width:1.12;stroke:none" transform="translate(3.494 72.99)"/><path d="M19.054 54.86s-4.8-1.5-8.4-1.5-5.7 2.101-7.2 2.101-2.1-.301-2.7-3.301.3-3.6 1.2-4.199c.9-.601 5.419-1.186 8.1-1.5 5.1-.601 9 1.8 9 1.8z" style="fill:none;stroke-width:1.12;stroke:#000" transform="translate(3.494 72.99)"/></g><g style="stroke-linecap:round;font-size:14;text-rendering:geometricPrecision;image-rendering:optimizeQuality;color-rendering:optimizeQuality;font-family:&quot;Open Sans&quot;;stroke-linejoin:round;color-interpolation:linearRGB;stroke-width:.5" transform="translate(94.97 2.988)scale(.8057)"><path d="M25.95 240.905s-.573.904-4.062.916c-3.171.011-4.146-.898-4.146-.898" style="fill:none"/><path d="M17.928 240.905s.974-.945 4.463-.945c2.7 0 3.572.967 3.572.967" style="fill:none"/><ellipse cx="4.997" cy="237.597" stroke="none" rx="2.7" ry="4.8" style="stroke:none"/><path stroke="none" d="M9.277 241.434H6.06s-1.906.202-1.906-3.73 1.906-3.893 1.906-3.893h3.217s1.43.793 1.43 3.825c0 2.926-1.43 3.798-1.43 3.798" style="fill:#fff;stroke:none"/><path d="M9.277 241.434H6.06s-1.906.202-1.906-3.73 1.906-3.893 1.906-3.893h3.217s1.43.793 1.43 3.825c0 2.926-1.43 3.798-1.43 3.798" style="fill:none;stroke-width:1.0305"/><path stroke="none" d="M1.8 232.885c-.994 0-1.8 2.109-1.8 4.712 0 2.604.806 4.713 1.8 4.713h3.197c-.994 0-1.8-2.109-1.8-4.713s.806-4.712 1.8-4.712z" style="stroke-width:1.0305;stroke:none"/><path stroke="none" d="M25.476 231.606h7.241s2.699.1 2.699 5.5c0 5.399-2.699 5.9-2.699 5.9h-22.2s-3.149-.951-3-6.051 3-5.35 3-5.35h8.343" style="fill:#fff;stroke-width:1.0305;stroke:none"/><path d="M25.476 231.606h7.241s2.699.1 2.699 5.5c0 5.399-2.699 5.9-2.699 5.9h-22.2s-3.149-.951-3-6.051 3-5.35 3-5.35h8.343" style="fill:none;stroke-width:1.5"/><path stroke="none" d="M18.271 231.558h7.351" style="fill:#fff;stroke:none;stroke-width:1.5"/><path d="M18.271 231.558h7.351" style="fill:none;stroke-width:.8"/><path d="M32.717 243.007s-2.4-1.24-2.4-6.05c0-4.95 2.4-5.351 2.4-5.351" style="fill:none;stroke-width:.72"/><path stroke="none" d="M39.316 241.957h3.6v9.601h-3.6z" style="stroke-width:.72;stroke:none"/><path d="M18.007 243.099c.185.54.289 33.353.289 33.353l.139.331c1.114.963 3.415.613 5.341-1.615 1.926-2.229 1.935-3.417 1.882-5.333l-.056-.589s.087-25.562.257-26.181" style="fill:none;stroke-width:1.5"/><path d="M19.088 277.021c-.793-1.48-.408-3.161 1.307-5.146 1.713-1.984 3.909-2.897 4.901-2.041" style="fill:none;stroke-width:.7122"/><path stroke="none" d="M46.517 241.807h-11.4s-2.399.254-2.399-4.698c0-4.951 2.399-4.901 2.399-4.901h11.4s1.8.999 1.8 4.816c-.001 3.683-1.8 4.783-1.8 4.783" style="fill:#fff;stroke-width:.7122;stroke:none"/><path d="M46.517 241.807h-11.4s-2.399.254-2.399-4.698c0-4.951 2.399-4.901 2.399-4.901h11.4s1.8.999 1.8 4.816c-.001 3.683-1.8 4.783-1.8 4.783" style="fill:none;stroke-width:1.5"/><path d="M46.517 241.736c-.994 0-1.8-2.109-1.8-4.713s.806-4.712 1.8-4.712" style="fill:none;stroke-width:.72"/><ellipse cx="41.097" cy="222.414" stroke="none" rx="1.78" ry=".729" style="stroke-width:.72;stroke:none"/><ellipse cx="41.097" cy="232.67" stroke="none" rx="1.78" ry=".729" style="stroke-width:.72;stroke:none"/><ellipse cx="41.097" cy="251.441" stroke="none" rx="1.78" ry=".729" style="stroke-width:.72;stroke:none"/><path d="M18.193 233.316s.797.703 4.312.656c2.344-.031 3.217-.651 3.217-.651" style="fill:none;stroke-width:1"/><path d="M21.779.672c5.952-.037 9.086 1.752 9.081 4.979v.008c.068 3.076-2.629 3.66-9.2 3.66-6.329 0-9.265-1.052-9.379-4.128v-.007C12.37 1.56 16.136.706 21.779.672" style="fill:none;stroke-width:1.3423"/><path d="M29.089 34.287c-1.353 1.264-3.945 1.948-8.049 1.948" style="fill:none;stroke-width:.3969"/><path d="M29.052 38.77c-.884.826-2.298 1.404-4.317 1.705M29.052 43.449c-.884.826-2.298 1.404-4.317 1.705M29.052 52.008c-.884.826-2.298 1.404-4.317 1.705M29.052 56.688c-.884.826-2.298 1.404-4.317 1.705M29.052 65.246c-.884.826-2.298 1.404-4.317 1.705M29.052 69.925c-.884.826-2.298 1.405-4.317 1.705M29.052 78.484c-.884.826-2.298 1.404-4.317 1.705M29.052 83.163c-.884.826-2.298 1.404-4.317 1.705M29.052 91.722c-.884.826-2.298 1.405-4.317 1.705M29.052 96.401c-.884.826-2.298 1.404-4.317 1.705M29.052 104.96c-.884.826-2.298 1.404-4.317 1.705M29.052 109.64c-.884.826-2.298 1.404-4.317 1.705M29.052 117.841c-.884.826-2.298 1.404-4.317 1.705M29.052 122.52c-.884.826-2.298 1.405-4.317 1.705M29.052 131.437c-.884.826-2.298 1.404-4.317 1.705M29.052 136.115c-.884.826-2.298 1.405-4.317 1.705M29.052 144.187c-.884.826-2.298 1.404-4.317 1.705M29.052 148.866c-.884.826-2.298 1.404-4.317 1.705M29.052 157.359c-.884.826-2.298 1.405-4.317 1.705M29.052 162.039c-.884.826-2.298 1.404-4.317 1.705M29.052 170.598c-.884.826-2.298 1.404-4.317 1.705M29.052 175.277c-.884.826-2.298 1.404-4.317 1.705M29.052 183.901c-.884.826-2.298 1.404-4.317 1.705M29.052 188.58c-.884.826-2.298 1.404-4.317 1.705" style="fill:none;stroke-width:.3175"/><path d="M29.089 47.48c-1.353 1.263-3.945 1.948-8.049 1.948M29.089 60.674c-1.353 1.263-3.945 1.947-8.049 1.947M29.089 73.867c-1.353 1.263-3.945 1.947-8.049 1.947M29.089 87.061c-1.353 1.263-3.945 1.947-8.049 1.947M29.089 100.254c-1.353 1.263-3.945 1.947-8.049 1.947M29.089 113.447c-1.353 1.263-3.945 1.947-8.049 1.947M29.089 126.641c-1.353 1.263-3.945 1.947-8.049 1.947M29.089 139.833c-1.353 1.264-3.945 1.948-8.049 1.948M29.089 153.026c-1.353 1.264-3.945 1.948-8.049 1.948M29.089 166.22c-1.353 1.264-3.945 1.948-8.049 1.948M29.089 179.413c-1.353 1.263-3.945 1.948-8.049 1.948M29.089 192.606c-1.353 1.263-3.945 1.947-8.049 1.947" style="fill:none;stroke-width:.3969"/><path d="M21.739 2.539c4.703-.114 7.398.894 7.554 1.693s-.504 2.06-7.554 1.989c-7.16-.07-7.401-1.434-7.348-1.983.063-.665 2.644-1.585 7.348-1.699" style="fill:none;stroke-width:.6712"/><path d="M25.95 222.185s-.573.904-4.062.916c-3.171.011-4.146-.898-4.146-.898" style="fill:none;stroke-width:.75"/><path d="M17.928 222.185s.974-.945 4.463-.945c2.7 0 3.572.967 3.572.967M17.928 232.571s.974-.945 4.463-.945c2.7 0 3.572.967 3.572.967" style="fill:none;stroke-width:.25"/><path d="M18.242 232.853h.054s-.104-9.413-.289-9.953c-.07-.205-1.585-17.571-2.704-20.684-1.142-3.174-1.391-8.107-1.391-8.107V8.595M25.483 233.033s-.113-9.594.072-10.134c.07-.205 1.408-17.571 2.527-20.684 1.143-3.174 1.392-8.107 1.392-8.107V8.595" style="fill:none;stroke-width:1.5"/><path stroke="none" d="M39.316 222.606h3.6v9.601h-3.6z" style="stroke-width:1.5;stroke:none"/></g><g style="stroke-linecap:round;font-size:14;fill:#323bcc;text-rendering:geometricPrecision;image-rendering:optimizeQuality;color-rendering:optimizeQuality;font-family:&quot;Open Sans&quot;;stroke-linejoin:round;stroke:#323bcc;color-interpolation:linearRGB;stroke-width:1.5" transform="translate(86.841 232.945)"><path stroke="none" d="m47.026 79.569-7.588-27.348-30.508.138-7.549 27.21s-1.277 3.58-.768 6.135c.512 2.561-.957 10.741 23.59 11.508 24.549-.767 23.078-8.947 23.59-11.508.512-2.555-.767-6.135-.767-6.135" style="stroke:none"/><ellipse cx="24.139" cy="52.463" stroke="none" rx="15.342" ry="2.813" style="fill:#3843e6;stroke:none"/><ellipse cx="24.139" cy="52.463" rx="15.342" ry="2.813" style="fill:none;stroke:#000;stroke-width:.75"/><path d="m33.534 31.202 13.473 48.555s1.271 3.557.764 6.095c-.51 2.548.951 10.677-23.449 11.44C-.082 96.528 1.379 88.399.87 85.851c-.508-2.538.764-6.095.764-6.095l13.471-48.555" style="fill:none;stroke:#000"/><ellipse cx="23.944" cy="91.184" rx="17.031" ry="4.575" style="fill:none;stroke:#000;stroke-width:.75"/><path d="M15.124 31.485 13.842 7.417M34.961 7.986l-1.517 23.619" style="fill:none;stroke:#000"/><path d="M33.504 31.101s-.176 2.057-9.168 2.309c-8.367.233-9.213-1.925-9.213-1.925" style="fill:none;stroke-width:1.2;stroke:#000"/><path d="M24.499.75C16.958.714 12.468 2.016 12.476 5.196v.007c-.086 3.031 3.85 4.068 12.176 4.068 8.018 0 11.738-1.037 11.883-4.068v-.006C36.42 1.625 31.649.785 24.499.75" style="fill:none;stroke:#000"/><path d="M24.549 2.59c-5.959-.112-9.375.881-9.572 1.669s.639 2.03 9.572 1.96c9.072-.068 9.377-1.412 9.311-1.954-.08-.655-3.35-1.561-9.311-1.675M33.102 30.641c-.266-1.266-3.312-1.717-8.77-1.856-5.459-.135-8.658.544-8.834 2.138" style="fill:none;stroke-width:.75;stroke:#000"/><circle cx="16.228" cy="13.219" r=".292" stroke="none" style="fill:#000;stroke-width:.75;stroke:none"/><circle cx="17.732" cy="7.282" r=".292" stroke="none" style="fill:#000;stroke-width:.75;stroke:none"/><circle cx="32.691" cy="2.657" r=".292" stroke="none" style="fill:#000;stroke-width:.75;stroke:none"/><circle cx="18.66" cy="13.803" r=".194" stroke="none" style="fill:#000;stroke-width:.75;stroke:none"/><circle cx="18.172" cy="11.275" r=".486" stroke="none" style="fill:#000;stroke-width:.75;stroke:none"/><circle cx="14.969" cy="6.157" r=".486" stroke="none" style="fill:#000;stroke-width:.75;stroke:none"/><circle cx="19.339" cy="17.4" r=".292" stroke="none" style="fill:#000;stroke-width:.75;stroke:none"/><circle cx="21.771" cy="17.984" r=".194" stroke="none" style="fill:#000;stroke-width:.75;stroke:none"/><circle cx="20.607" cy="7.157" r=".194" stroke="none" style="fill:#000;stroke-width:.75;stroke:none"/><circle cx="21.284" cy="15.456" r=".486" stroke="none" style="fill:#000;stroke-width:.75;stroke:none"/><circle cx="21.964" cy="21.095" r=".292" stroke="none" style="fill:#000;stroke-width:.75;stroke:none"/><circle cx="24.396" cy="21.679" r=".194" stroke="none" style="fill:#000;stroke-width:.75;stroke:none"/><circle cx="23.911" cy="19.151" r=".486" stroke="none" style="fill:#000;stroke-width:.75;stroke:none"/><circle cx="24.298" cy="24.693" r=".292" stroke="none" style="fill:#000;stroke-width:.75;stroke:none"/><circle cx="26.73" cy="25.277" r=".194" stroke="none" style="fill:#000;stroke-width:.75;stroke:none"/><circle cx="26.243" cy="22.749" r=".486" stroke="none" style="fill:#000;stroke-width:.75;stroke:none"/><circle cx="26.437" cy="28.194" r=".292" stroke="none" style="fill:#000;stroke-width:.75;stroke:none"/><circle cx="28.869" cy="28.778" r=".194" stroke="none" style="fill:#000;stroke-width:.75;stroke:none"/><circle cx="28.383" cy="26.25" r=".486" stroke="none" style="fill:#000;stroke-width:.75;stroke:none"/><circle cx="28.869" cy="31.111" r=".292" stroke="none" style="fill:#000;stroke-width:.75;stroke:none"/><circle cx="31.3" cy="31.695" r=".194" stroke="none" style="fill:#000;stroke-width:.75;stroke:none"/><circle cx="30.813" cy="29.167" r=".486" stroke="none" style="fill:#000;stroke-width:.75;stroke:none"/><circle cx="29.064" cy="23.624" r=".292" stroke="none" style="fill:#000;stroke-width:.75;stroke:none"/><circle cx="31.494" cy="24.208" r=".194" stroke="none" style="fill:#000;stroke-width:.75;stroke:none"/><circle cx="31.008" cy="21.679" r=".486" stroke="none" style="fill:#000;stroke-width:.75;stroke:none"/><circle cx="27.507" cy="19.54" r=".292" stroke="none" style="fill:#000;stroke-width:.75;stroke:none"/><circle cx="29.939" cy="20.124" r=".194" stroke="none" style="fill:#000;stroke-width:.75;stroke:none"/><circle cx="29.452" cy="17.595" r=".486" stroke="none" style="fill:#000;stroke-width:.75;stroke:none"/><circle cx="24.98" cy="15.844" r=".292" stroke="none" style="fill:#000;stroke-width:.75;stroke:none"/><circle cx="27.41" cy="16.428" r=".194" stroke="none" style="fill:#000;stroke-width:.75;stroke:none"/><circle cx="26.924" cy="13.9" r=".486" stroke="none" style="fill:#000;stroke-width:.75;stroke:none"/><circle cx="29.358" cy="7.359" r=".486" stroke="none" style="fill:#000;stroke-width:.75;stroke:none"/><circle cx="22.257" cy="12.053" r=".292" stroke="none" style="fill:#000;stroke-width:.75;stroke:none"/><circle cx="23.525" cy="7.532" r=".292" stroke="none" style="fill:#000;stroke-width:.75;stroke:none"/><circle cx="24.687" cy="12.636" r=".194" stroke="none" style="fill:#000;stroke-width:.75;stroke:none"/><circle cx="29.357" cy="2.226" r=".194" stroke="none" style="fill:#000;stroke-width:.75;stroke:none"/><circle cx="22.732" cy="1.601" r=".194" stroke="none" style="fill:#000;stroke-width:.75;stroke:none"/><circle cx="16.732" cy="2.476" r=".194" stroke="none" style="fill:#000;stroke-width:.75;stroke:none"/><circle cx="13.982" cy="4.351" r=".194" stroke="none" style="fill:#000;stroke-width:.75;stroke:none"/><circle cx="26.427" cy="7.157" r=".194" stroke="none" style="fill:#000;stroke-width:.75;stroke:none"/><circle cx="24.202" cy="10.108" r=".486" stroke="none" style="fill:#000;stroke-width:.75;stroke:none"/><circle cx="29.064" cy="10.982" r=".292" stroke="none" style="fill:#000;stroke-width:.75;stroke:none"/><circle cx="35.107" cy="5.449" r=".292" stroke="none" style="fill:#000;stroke-width:.75;stroke:none"/><circle cx="31.494" cy="11.566" r=".194" stroke="none" style="fill:#000;stroke-width:.75;stroke:none"/><circle cx="32.732" cy="6.601" r=".194" stroke="none" style="fill:#000;stroke-width:.75;stroke:none"/><circle cx="31.008" cy="9.038" r=".486" stroke="none" style="fill:#000;stroke-width:.75;stroke:none"/><circle cx="30.814" cy="14.483" r=".292" stroke="none" style="fill:#000;stroke-width:.75;stroke:none"/><circle cx="33.246" cy="15.067" r=".194" stroke="none" style="fill:#000;stroke-width:.75;stroke:none"/><circle cx="32.758" cy="12.539" r=".486" stroke="none" style="fill:#000;stroke-width:.75;stroke:none"/><circle cx="31.787" cy="19.151" r=".292" stroke="none" style="fill:#000;stroke-width:.75;stroke:none"/><circle cx="33.731" cy="17.207" r=".486" stroke="none" style="fill:#000;stroke-width:.75;stroke:none"/><circle cx="31.398" cy="27.319" r=".292" stroke="none" style="fill:#000;stroke-width:.75;stroke:none"/><circle cx="33.342" cy="25.375" r=".486" stroke="none" style="fill:#000;stroke-width:.75;stroke:none"/><circle cx="24.687" cy="31.792" r=".292" stroke="none" style="fill:#000;stroke-width:.75;stroke:none"/><circle cx="27.119" cy="32.375" r=".194" stroke="none" style="fill:#000;stroke-width:.75;stroke:none"/><circle cx="21.285" cy="28.972" r=".292" stroke="none" style="fill:#000;stroke-width:.75;stroke:none"/><circle cx="23.716" cy="29.556" r=".194" stroke="none" style="fill:#000;stroke-width:.75;stroke:none"/><circle cx="23.229" cy="27.028" r=".486" stroke="none" style="fill:#000;stroke-width:.75;stroke:none"/><circle cx="18.951" cy="24.402" r=".292" stroke="none" style="fill:#000;stroke-width:.75;stroke:none"/><circle cx="21.382" cy="24.986" r=".194" stroke="none" style="fill:#000;stroke-width:.75;stroke:none"/><circle cx="20.895" cy="22.458" r=".486" stroke="none" style="fill:#000;stroke-width:.75;stroke:none"/><circle cx="15.451" cy="19.54" r=".292" stroke="none" style="fill:#000;stroke-width:.75;stroke:none"/><circle cx="17.88" cy="20.124" r=".194" stroke="none" style="fill:#000;stroke-width:.75;stroke:none"/><circle cx="17.395" cy="17.595" r=".486" stroke="none" style="fill:#000;stroke-width:.75;stroke:none"/><circle cx="17.298" cy="24.888" r=".194" stroke="none" style="fill:#000;stroke-width:.75;stroke:none"/><circle cx="16.811" cy="22.36" r=".486" stroke="none" style="fill:#000;stroke-width:.75;stroke:none"/><circle cx="15.935" cy="28.972" r=".292" stroke="none" style="fill:#000;stroke-width:.75;stroke:none"/><circle cx="18.367" cy="29.556" r=".194" stroke="none" style="fill:#000;stroke-width:.75;stroke:none"/><circle cx="17.881" cy="27.028" r=".486" stroke="none" style="fill:#000;stroke-width:.75;stroke:none"/><circle cx="19.728" cy="32.764" r=".292" stroke="none" style="fill:#000;stroke-width:.75;stroke:none"/><circle cx="22.16" cy="33.348" r=".194" stroke="none" style="fill:#000;stroke-width:.75;stroke:none"/><circle cx="21.672" cy="30.82" r=".486" stroke="none" style="fill:#000;stroke-width:.75;stroke:none"/><circle cx="17.881" cy="30.82" r=".486" stroke="none" style="fill:#000;stroke-width:.75;stroke:none"/></g><g style="stroke-linecap:round;font-size:14;fill:#7aa7e6;text-rendering:geometricPrecision;image-rendering:optimizeQuality;color-rendering:optimizeQuality;font-family:&quot;Open Sans&quot;;stroke-linejoin:round;stroke:#7aa7e6;color-interpolation:linearRGB;stroke-width:.75"><path stroke="none" d="M26.219 4.127a3.5 3.5 0 0 1-3.561 3.445l-18.712.016A3.504 3.504 0 0 1 .5 4.028 3.5 3.5 0 0 1 4.059.582L22.774.568a3.5 3.5 0 0 1 3.445 3.559" style="stroke:none" transform="translate(97.307 318.434)"/><path d="M26.219 4.127a3.5 3.5 0 0 1-3.561 3.445l-18.712.016A3.504 3.504 0 0 1 .5 4.028h0A3.5 3.5 0 0 1 4.059.582L22.774.568a3.5 3.5 0 0 1 3.445 3.559" style="fill:none;stroke-width:1;stroke:#000" transform="translate(97.307 318.434)"/><path stroke="none" d="M24.838 7.09c-.006.461-1.463.814-3.252.785l-16.733.047c-1.789-.031-3.234-.43-3.225-.891.007-.464 1.463-.812 3.252-.783l16.732-.047c1.791.028 3.234.426 3.226.889" style="fill:#5f82b3;stroke-width:1;stroke:none" transform="translate(97.307 318.434)"/><path stroke="none" d="M25.021 4.703c-.007.46-1.463.811-3.254.783l-16.73.047c-1.789-.029-3.233-.43-3.228-.89.007-.463 1.465-.811 3.254-.785l16.732-.046c1.79.029 3.235.426 3.226.891" style="fill:#6c94cc;stroke-width:1;stroke:none" transform="translate(97.307 318.434)"/><path stroke="none" d="M24.417 2.326c-.006.46-.555.786-2.346.758L5.338 3.13c-1.787-.03-3.233-.429-3.225-.89.007-.463 1.463-.812 3.252-.784l16.732-.047c1.789.029 2.474.376 2.466.839z" style="fill:#87b9ff;stroke-width:1;stroke:none" transform="translate(97.307 318.434)"/><path d="M26.219 4.127c-.05 3.099-2.887 3.457-3.561 3.445l-18.712.016A3.504 3.504 0 0 1 .5 4.028h0A3.5 3.5 0 0 1 4.059.582L22.774.568a3.5 3.5 0 0 1 3.445 3.559" style="fill:none;stroke-width:1;stroke:#000" transform="translate(97.307 318.434)"/><path stroke="none" d="M14.414.659s-.701-.551-1.753-.374c-.887.15-.594.351-.594.351.979.015 1.747 1.596 1.715 3.529-.031 1.935-.85 3.489-1.831 3.474 0 0 .278.572 1.253.576.918.005 1.234-.42 1.234-.42.893-.705 1.323-1.661 1.354-3.599.033-1.932-.275-2.735-1.378-3.537" style="stroke-width:1;stroke:none" transform="translate(97.307 318.434)"/><path d="M14.414.659s-.701-.551-1.753-.374c-.887.15-.594.351-.594.351.979.015 1.747 1.596 1.715 3.529-.031 1.935-.85 3.489-1.831 3.474 0 0 .278.572 1.253.576.918.005 1.234-.42 1.234-.42.893-.705 1.323-1.661 1.354-3.599.033-1.932-.275-2.735-1.378-3.537" style="fill:none;stroke-width:.5;stroke:#000" transform="translate(97.307 318.434)"/></g></svg>