<svg xmlns="http://www.w3.org/2000/svg" viewBox="0 0 644.252 892.087"><defs><linearGradient id="b" x1="452.147" x2="353.138" y1="557.916" y2="864.571" gradientUnits="userSpaceOnUse"><stop offset="0" stop-color="#6c9d31"/><stop offset=".291" stop-color="#6c9c32"/><stop offset=".423" stop-color="#6b9a36"/><stop offset=".523" stop-color="#67963e"/><stop offset=".607" stop-color="#62914a"/><stop offset=".68" stop-color="#5c8b59"/><stop offset=".747" stop-color="#528368"/><stop offset=".808" stop-color="#467977"/><stop offset=".866" stop-color="#356d87"/><stop offset=".917" stop-color="#1c6095"/><stop offset=".961" stop-color="#0054a6"/><stop offset=".97" stop-color="#2e4ba0"/><stop offset=".989" stop-color="#5a3795"/><stop offset="1" stop-color="#662d91"/></linearGradient><linearGradient id="c"><stop offset="0" stop-color="#d6a186"/><stop offset="1" stop-color="#d6a186" stop-opacity="0"/></linearGradient><linearGradient id="e" x1="123.691" x2="131.337" y1="155.85" y2="161.787" gradientTransform="translate(381.678 37.545)scale(.67208)" gradientUnits="userSpaceOnUse" href="#a"/><linearGradient id="a"><stop offset="0" stop-color="#95bff2"/><stop offset="1" stop-color="#86b6f0" stop-opacity="0"/></linearGradient><linearGradient id="f" x1="122.039" x2="129.248" y1="154.09" y2="160.953" gradientTransform="rotate(55.263 276.164 519.946)scale(.67208)" gradientUnits="userSpaceOnUse" href="#a"/><linearGradient id="g" x1="123.269" x2="129.735" y1="155.344" y2="162.292" gradientTransform="translate(403.892 4.196)scale(.67208)" gradientUnits="userSpaceOnUse" href="#a"/><linearGradient id="h" x1="120.572" x2="128.387" y1="153.321" y2="163.641" gradientTransform="translate(461.902 24.364)scale(.67208)" gradientUnits="userSpaceOnUse" href="#a"/><linearGradient id="i" x1="452.446" x2="353.138" y1="557.776" y2="864.571" gradientTransform="matrix(.9476 -.01496 .01412 .97366 317.237 -10.872)" gradientUnits="userSpaceOnUse" href="#b"/><radialGradient id="d" cx="124.124" cy="103.948" r="45.932" fx="124.124" fy="103.948" gradientTransform="matrix(.40556 -.33555 .13155 .159 551.559 451.488)" gradientUnits="userSpaceOnUse" href="#c"/></defs><path fill="#f9bb9d" d="m300.786 207.891 10.157-10.28c.8 6.317 2.988 13.467 3.31 21.99.783 20.779-.104 53.864-3.368 81.974-.416 3.581-.279 12.248.098 15.847 6.324 60.37 9.553 106.688 9.89 115.754-5.59-.27-10.455.545-16.768-.81-6.449-25.41-11.81-68.671-6.017-115.78.428-3.476 1.236-10.593.573-13.971-8.17-41.633 4.191-88.721 5.396-91.941-.203-1.423-1.927-3.13-3.27-2.783" color="#000" overflow="visible" style="isolation:auto;mix-blend-mode:normal;solid-color:#000;solid-opacity:1" transform="translate(26.27 36.67)"/><g transform="translate(-365.632 60.468)"><path fill="#c47a51" d="M699.175 408.683c29.5.002 35.241-2.328 56.13 1.688 7.344 1.412 18.025 3.818 19.643 8.784-4.818-5.817-21.408-2.82-45.082 4.471-10.913 3.36-22.037 8.844-44.776 19.114-5.96 2.693-14.541 3.217-27.816 10.314-4.255 2.274-6.713 6.362-10.845 8.77-9.736 5.673-15.282 13.647-20.297 16.412-13.113 7.004-33.275 43.452-34.265 55.89-.828-9.247-.708-20.464-1.027-29.743 0 0-4.562-45.23 5.258-64.72 25.773-51.15 78.673-30.982 103.077-30.98"/><path fill="#966548" d="M658.12 451.64c-4.584 1.648-9.548 13.608-22.657 13.415-5.183-.076-19.413 10.826-16.123 17.006-15.059 19.016-37.142 57.164-23.379 53.924 14.779-3.76 37.66-35.643 57.012-44.023 9.494-1.597 29.572 3.606 38.951-8.384 8.374-10.704 13.098-7.004 16.824-11.702 1.904-2.4 3.916-5.917 4.716-8.903-1.084-4.37 3.138-11.559 10.483-11.15 10.559-10.127 21.657-19.528 32.227-23.629 17.336-6.725 20.822-7.745 18.202-10.736-4.678-5.343-25.795-2.81-56.276 10.397-8.21 3.558-26.145 10.89-33.362 15.154q-1.709.465-3.357.926c-10.203 2.857-18.567 5.605-23.26 7.704" color="#000" opacity=".912" overflow="visible" style="marker:none"/><path fill="#cc987b" d="M688.575 407.374s-.516-1.014-2.085.814c-3.319 3.865-8.776 12.84-10.59 17.622-.548 1.445-1.327 12.386-2.67 18.978 1.905 2.072 2.324 2.338 2.324 2.338l1.393-1.844s.234.114-.037-.966c.468-4.213.724-13.403 1.986-18.276 1.83-7.065 9.679-18.666 9.679-18.666" color="#000" overflow="visible" style="marker:none"/><path fill="#ddbaa6" d="m673.138 444.331 1.366-.107 1.812 1.574c.217.83.35 1.235.183 1.996l-1.976-1.833z" color="#000" opacity=".713" overflow="visible" style="marker:none"/><path fill="#8a5537" d="M677.085 445.323s10.612 12.593 13.605 16.217c5.178 6.269 6.456 16.495 6.456 16.495l-1.956.978s-2.087-10.547-6.534-16.288c-3.473-4.483-8.158-11.633-12.992-15.542.571-.588 1.42-1.86 1.42-1.86" color="#000" overflow="visible" style="marker:none"/><ellipse cx="675.21" cy="444.396" fill="#ddbaa6" color="#000" overflow="visible" rx="1.792" ry="1.63" style="marker:none"/><path fill="#faa" d="M688.372 460.016c10.845-3.796 17.381 1.473 23.669 5.133 0 0 2.249.025 5.95 4.71 2.152 8.745 6.882 22.033 3.012 27.718-2.538 3.73-8.895 2.49-13.382 2.021-3.915-.409-11.264-4.14-11.264-4.14 1.943-7.782-2.664-23.015-7.985-35.442" color="#000" opacity=".279" overflow="visible" style="marker:none"/><path fill="#faa" d="M668.858 473.134c2.43-5.68 2.578-8.084 3.33-11.53 3.382.483 5.764.17 16.283-1.48 5.355 13.36 9.65 27.198 7.786 34.014-1.906-.392-3.185 1.327-5.277 1.092-4.045-4.986-9.644-8.283-15.278-8.082 1.853-4.784-.723-9.843-6.844-14.014" color="#000" opacity=".471" overflow="visible" style="marker:none"/><path fill="#e89e55" stroke="#201b17" stroke-width=".035" d="M661.795 519.63c7.169-8.171 11.661-12.221 19.67-14.226 8.599-2.15 29.249-6.405 40.305-9.896 21.256-6.377 32.226-5 46.308-10.124 6.935-2.524 9.487-8.271 16.522-9.833 5.61 1.025 8.997 16.77 4.179 21.112-2.024 2.467-7.676 9.026-12.09 11.717-15.028 9.161-58.913 26.785-76.951 34.35-5.85 2.219-4.893 7.558-2.213 11.292 1.683 2.345 5.318 1.04 4.787 5.238-1.981 1.79-11.289 3.97-23.484 2.6-4.875-.548-8.899-3.261-12.708-6.262-3.268-2.574-6.151-5.195-7.878-9.02-4.452-9.863-1.586-21.09 3.553-26.948z" opacity=".9"/><path fill="none" d="M733.72 511.777c1.404-.342 1.965-1.37 3.37-1.37 0 0 .842-1.37 1.123-1.37l.843-.343h.28v-.343l.843-1.37M746.077 513.49h3.651c.281 0 .562.686.843.686h3.09M732.316 517.946c.561 0 1.123-.343 1.685-.343l1.123.343 1.124.343.842.685c.281.342 1.123 0 1.123.685M720.24 524.16h2.91c.581 0 .872.291 1.163.291M685.9 528.234c.873 0 1.455.292 2.038.292 0 0 1.164.582 1.454.582s.291.873.582.873h.291v.582s.873-.291.873.29M705.398 529.398h4.656l.582.291.582.292h.291c.582 0 1.455.29 2.328.29M748.324 507.323c.562-.343 1.404-1.028 1.966-1.37l.562-.686.561-.343c.562 0 1.123-.685 1.123-1.37M720.24 519.66v-1.03c0-.342.56-2.398.56-2.74v-1.37l.282-.686.28-.685h.562l.28-.343.282-.343c.281 0 .843-.686.843-1.028M655.345 526.197c-1.455-.29-2.91-.582-4.365-.582-.582 0-2.037-.29-2.328-.29h-1.165v-.292h-.29c-.292 0 0-1.164 0-1.745M638.071 525.49c1.454.872 3.053 1.6 4.361 2.471.873.727 2.472 1.018 4.07 1.018 1.454 0 3.2-.437 4.507-.437"/><path fill="none" d="M658.836 405.44c14.547 0 33.749 2.908 29.094 22.693-6.983 31.421-38.986 24.439-62.261 47.714-2.91 2.909-9.31 22.111-3.492 25.02 12.802 5.82 26.767-2.909 33.167-13.964 18.039-28.513 31.422-72.154 72.153-72.154 1.164 0-43.058 6.983-43.058 23.858 0 22.693 2.909 50.041 2.909 75.063 0 32.344-22.694 20.601-22.694 32.003 0 5.237-12.219 5.819-5.237 4.073l4.794-3.883c.582-2.909 29.537-13.574 33.61-13.574 8.147 0 23.276-4.073 26.185-9.891.582-1.164 34.913-5.238 34.913-11.056"/><path fill="#339967" stroke="#201b17" stroke-width=".035" d="m688.373 460.147 7.373-4.09c-.117-8.385-.655-17.68.898-25.927-4.53-3.256-7.054-8.102-8.183-17.406 1.206 5.183 3.912 13.284 8.617 16.42 1.998-3.106 6.31-12.041 9.954-15.057-2.895 3.607-6.88 11.043-8.552 14.324-1.476 8.53-1.624 17.67-.879 26.2 5.068-5.847 8.571-13.442 12.768-19.87 2.845-6.255 1.748-5.494 5.5-11.36.346-3.742.472-8.556.29-12.466 1.006 4.144 1.066 8.447.81 11.922-.21.343 21.257-5.424 21.053-5.08-.238.401-21.167 6.018-21.397 6.422-3 5.248-2.424 4.527-4.44 10.168l45.643-13.822-30.331 10.296 10.336 5.847-12.678-4.903-14.1 4.773c-.554 1.458-6.786 11.593-8.493 14.484 1.577 1.576 8.48 5.246 8.093 5.418-.356.157-7.252-2.582-8.799-3.964-4.481 5.465-8.774 7.262-12.541 9.432zM671.806 461.41c-1.836-.857-6.38-2.229-10.9-3.115-4.509-12.1-3.928-41.612.197-44.718-5.126 3.47-6.874 31.58-1.884 44.288-3.166-.664-7.609-1.293-11.749-2.236.899-11.26-6.68-32.325-15.66-39.69 6.553 7.939 14.866 28.4 13.904 39.745l-13.074.57c-5.336-11.023-15.094-15.213-25.12-18.988 10.868 4.934 21.05 10.203 22.769 19.618-7.395 1.347-12.859 3.208-18.962 4.904-5.971-.759-7.418-1.41-13.95-1.805 6.813 1.22 6.49 1.961 13.555 3.06-.054 6.317-12.984 19.634-14.433 18.168 8.218-1.832 15.73-11.59 16.129-18.633 7.514-1.969 14.7-3.542 22.405-4.555l9.381-.591 14.889 2.47c-21.222 6.927-49.405 24.027-62.755 39.13 5.465-5.383 12.752-10.077 16.099-12.25.182.468 3.631 15.373 6.68 19.022.227.049-5.215-16.73-4.695-20.435 16.012-11.307 35.106-19.695 47.007-24.649 4.282.829 6.674 2.13 9.864 3.233z" color="#000" opacity=".5" overflow="visible" style="marker:none"/><path fill="#3e765c" d="M644.49 474.592c-4.423-1.623-10.584-2.714-17.57-3.11-3.244-.185-4.89.284-8.146 2.32-.534.334-.813.088-.832.088-.059 0-.267-.058.119-.583 2.992-4.064 8.035-6.856 13.193-6.713 2.663.074 6.767-.218 11.465 1.141 5.157 1.492 7.108 2.312 17.516 5.659 1.937.6 6.659.78 5.724 1.197-.012.014-3.548.52-4.971.774-2.463.44-5.25.822-6.641.85-3.706.072-6.34-.357-9.856-1.622" color="#000" overflow="visible" style="marker:none"/><path fill="#468566" d="M632.742 484.09c-5.454-.288-11.089-2.547-12.61-3.62-1.043-.735-2.13-1.906-2.302-2.974-.19-1.172-.687-2.456.098-3.276 2.006-2.096 5.367-2.984 7.754-2.997 1.732-.009 5.778.378 8.614.802 4.157.62 6.836.994 10.632 2.33 2.828.995 5.484 1.87 9.132 1.73 5.105-.593 10.243-.937 12.259-1.715-2.27 2.033-5.215 3.596-7.686 4.788-4.118 1.896-8.718 2.975-12.079 3.467-4.26.624-13.812 1.464-13.812 1.464" color="#000" overflow="visible" style="marker:none"/><path fill="#339967" d="M657.577 526.645c4.86-.098 6.353.034 11.02-.044l-1.355 1.603c-4.66.247-5.136-.107-9.703-.004zM673.54 526.726s3.969.39 5.668.284c2.601-.161 5.058-1.402 7.659-1.57 2.775-.181 4.734.603 4.734.603l-1.56 2.035c-2.824.194-.768-.26-3.422-.288-1.753-.018-4.736 1.13-7.326 1.26-2.077.103-4.68-.47-6.735-.534zM707.825 537.422l-.087-.185q-.114-.243-.225-.487a51 51 0 0 1-.7-1.609c-.52-1.26-1.039-2.518-1.234-3.769-.233-1.4-.13-2.85-.052-4.365a56 56 0 0 1 .206-2.49l.018-.154-1.375-.076h-.015l-1.376.046.015.175q.03.306.062.61.104.994.244 1.983c.206 1.503.439 3.105 1.004 4.619.522 1.366 1.3 2.527 2.064 3.658a51 51 0 0 0 1.417 2zM719.202 531.13l-.088-.186q-.113-.243-.225-.487a51 51 0 0 1-.699-1.608c-.52-1.26-1.04-2.519-1.235-3.77-.232-1.4-.13-2.85-.051-4.365a56 56 0 0 1 .206-2.49l.017-.154-1.374-.076h-.016l-1.376.047.016.174q.029.306.061.61.105.994.244 1.983c.207 1.503.44 3.105 1.005 4.619.522 1.366 1.3 2.528 2.063 3.658a51 51 0 0 0 1.418 2zM730.934 525.752l-.087-.185q-.114-.243-.225-.488a51 51 0 0 1-.7-1.608c-.52-1.26-1.039-2.518-1.234-3.77-.233-1.396-.13-2.842-.051-4.35l.23-2.737-1.477.003h.176l-1.477.002.326 2.798c.207 1.51.44 3.116 1.005 4.632.522 1.366 1.3 2.528 2.063 3.658a51 51 0 0 0 1.418 2zM743.654 523.043l-.029-.055a40 40 0 0 1-.352-.685 65 65 0 0 1-.869-1.781c-.66-1.412-1.315-2.825-1.662-4.261-.409-1.648-.493-3.37-.602-5.143l-.121-3.237-1.394.156.028-.003-1.394.157.687 3.224c.402 1.739.829 3.558 1.573 5.266.663 1.502 1.569 2.807 2.465 4.085a65 65 0 0 0 1.632 2.228zM754.873 516.524q-.645-.975-1.291-1.945c-.689-1.097-1.369-2.194-1.767-3.332-.482-1.335-.676-2.769-.907-4.255l-.351-2.742-1.377.306.042-.01-1.377.306.923 2.668c.518 1.419 1.07 2.92 1.898 4.285.727 1.18 1.641 2.143 2.542 3.075zM766.242 510.037l-1.361-1.494c-.726-.844-1.443-1.688-1.885-2.598-.536-1.064-.806-2.257-1.127-3.505l-.516-2.316-1.422.48.213-.071-1.422.48 1.078 2.187c.594 1.15 1.24 2.39 2.133 3.457.79.927 1.72 1.602 2.628 2.247q.84.568 1.68 1.133M780.757 500.737l-2.314-.906c-1.157-.47-2.3-.906-3.257-1.494a652 652 0 0 1-3.349-3.019l-.873 1.107.032-.041-.873 1.107q2.19 1.14 4.3 2.227c1.326.4 2.615.558 3.862.725zM775.323 489.027l-.05.023-.133.062q-.24.112-.476.227-.775.374-1.54.777c-1.156.607-2.35 1.229-3.408 2.174-1.106 1.01-1.946 2.257-2.704 3.425l-1.335 2.164 1.339.614-.154-.07 1.34.613.818-2.32c.504-1.27.96-2.49 1.702-3.51.69-.978 1.694-1.813 2.694-2.657q.654-.549 1.33-1.078.207-.162.416-.322l.117-.089zM759.898 489.593l-.038.04-.1.107q-.183.195-.363.392-.594.649-1.168 1.318c-.91 1.06-1.827 2.15-2.54 3.444-.832 1.525-1.377 3.177-1.896 4.749a83 83 0 0 0-.913 2.928l.969.233.37.09h.008-.001l.007.001.378.052.987.137.016-.175q.03-.322.066-.648.112-1.063.253-2.122c.228-1.646.42-3.24.91-4.742.399-1.253 1.08-2.466 1.77-3.677a53 53 0 0 1 1.256-2.081zM710.317 506.078q-.818 3.138-1.634 6.283c-.447 1.932-.585 3.922-.718 5.844l-.19 3.554 1.426-.064-.077.003 1.425-.064-.43-3.484c-.197-1.903-.408-3.76-.308-5.613zM722.75 501.281q-.014.026-.027.052l-.071.137q-.128.25-.254.5-.414.825-.805 1.665c-.616 1.32-1.234 2.669-1.608 4.157-.425 1.713-.551 3.476-.67 5.16a85 85 0 0 0-.164 3.091l.996-.009q.19 0 .382-.004h.011l.38-.042.99-.107-.026-.176-.093-.65a83 83 0 0 1-.269-2.144c-.18-1.682-.376-3.308-.274-4.92.08-1.376.433-2.785.796-4.195a61 61 0 0 1 .644-2.311l.044-.148zM735.073 495.738l-1.631 6.328-1.96 8.23 1.519.21-.286-.039 1.519.21.405-8.43zM746.599 492.331l-.027.052-.071.138q-.129.249-.254.5-.414.824-.805 1.664c-.616 1.32-1.234 2.67-1.608 4.157-.425 1.714-.551 3.476-.67 5.16a85 85 0 0 0-.164 3.092l.997-.01.381-.003h.006l.006-.001.379-.042.991-.107-.027-.175-.093-.65a83 83 0 0 1-.268-2.145c-.18-1.681-.377-3.308-.275-4.919.08-1.377.434-2.786.796-4.196a61 61 0 0 1 .644-2.311l.045-.148zM693.247 558.822l-5.878-10.995c-.955-1.777-2.313-3.267-3.632-4.628l-2.389-2.332-.907 1.104.051-.062-.907 1.103 2.59 1.944c1.434 1.17 2.821 2.306 3.814 3.72zM682.487 558.253l-4.968-5.99c-.94-1.047-1.487-2.405-1.975-3.816l-.634-2.375q-.68.225-1.366.448l.096-.031-1.366.448 1.134 2.378c.776 1.447 1.763 2.905 3.114 3.983z" color="#000" overflow="visible" style="marker:none"/><path fill="#339967" d="m701.042 514.547 1.927.039c.916.033 1.82.022 2.57.236.63.166 1.207.6 1.893 1.034a19 19 0 0 1 1.034.766l.553-.81.219-.32.004-.005.002-.007.157-.355.394-.896-.34-.122a21 21 0 0 0-1.074-.335c-.792-.238-1.737-.481-2.725-.442-1.031.074-1.913.38-2.77.64zM673.684 537.206l.13-.099a54 54 0 0 0 1.39-1.088c.732-.588 1.506-1.175 2.162-1.997.732-.947 1.198-2.047 1.62-3.015a46 46 0 0 0 .811-1.958l-1.322-.361-.013-.003h.002q-.008 0-.014-.003l-1.344-.267-.01.118-.045.44q-.077.712-.176 1.42c-.173 1.078-.264 2.076-.631 2.953-.31.78-.88 1.534-1.427 2.312a55 55 0 0 1-1.035 1.418l-.07.094zM691.7 545.625l-.034-.001-.088-.002-.31-.009-1.001-.029q-1.116-.03-2.229-.066c-.669-.031-1.31-.436-2.095-.793a18 18 0 0 1-.944-.526 12 12 0 0 1-.273-.17l-.451.87-.178.343-.003.006q0 .002-.002.005l-.105.37q-.137.48-.268.943a17 17 0 0 0 1.598.266c.842.127 1.896.239 2.907-.038q1.06-.354 2.117-.71l.949-.32.294-.099.083-.028.033-.01z" color="#000" overflow="visible" style="marker:none"/><path fill="url(#d)" d="M610.758 425.536c6.392-6.147 11.293-8.57 15.97-10.429 13.187-5.497 15.26-4.737 13.8-2.072-1.301 2.378-10.955 5.293-12.497 7.612-6.692 4.672-9.648 7.092-16.887 13.11-5.218 4.337-9.939 15.123-12.119 11.985-.298-6.41 6.15-13.796 11.733-20.206" color="#000" overflow="visible" style="marker:none"/><path fill="#f4d7d7" d="m679.886 487.363-5.484 21.697c-23.385-3.782-27.994 35.606-7.22 48.72 16.133 8.13 33.407 6.13 39.547-1.07 7.757-9.094 3.327-26.403 14.971-30.142 6.056 4.38 21.098-10.177 20.283 44.02l-2.7 25.882c-6.34-3.088-10.817-4.384-16.346-7.248l4.716-35.372c-2.834 25.232-16.177 37.643-47.812 35.57-6.141-.403-16.41-3.204-23.858-7.153-6.024-3.194-10.05-6.818-15.855-13.757-13.265-15.855-13.621-38.333 1.239-67.167z" color="#000" opacity=".821" overflow="visible" style="marker:none"/><path fill="#e9afaf" d="M677.54 514.07a83 83 0 0 1-1.472-.098c-.397-4.07-.629-8.133-1.037-12.192q-.071-.705-.148-1.411-.49 6.727-.894 13.46-.466-.024-.91-.037.326-8.195.834-16.385-.135-4.966-.371-9.928.774.01 1.527.04.246 2.27.445 4.542c.295 3.075.478 6.149.64 9.223.564-4.536 1.154-9.07 1.701-13.606q.56.039.967.056c-.428 5.609-.97 11.209-1.563 16.805.046 3.176.127 6.352.28 9.531m-5.862-.23q-.196.004-.388.012l-.404.027c-.73-4.457-1.71-8.903-2.973-13.288q.663 6.723 1.474 13.428-.36.041-.706.092a464 464 0 0 1-2.272-16.263 304 304 0 0 0-2.265-9.685q.857-.159 1.706-.277a139 139 0 0 1 3.465 13.402 313 313 0 0 1-.104-13.73q.425-.024.847-.038.401-.02.796-.031a472 472 0 0 0-.099 16.883l.156 1.377q.444 4.043.767 8.091m-4.071.519q-.315.067-.612.145a84 84 0 0 0-5.86-12.232 448 448 0 0 0 4.761 12.598q-.225.094-.434.2l-.045.017a317 317 0 0 1-1.615-3.588 347 347 0 0 1-4.826-11.492 228 228 0 0 0-3.884-7.234q-.425-.754-.857-1.505l.128-.062a44 44 0 0 1 1.624-.69 103 103 0 0 1 6.67 12.098 229 229 0 0 1-3.177-13.329q.87-.265 1.738-.49a335 335 0 0 0 3.506 16.504 190 190 0 0 1 2.883 9.06m-2.865 1.108a7 7 0 0 0-.422.252 73 73 0 0 0-9.218-9.925 432 432 0 0 0 8.393 10.535 10 10 0 0 0-.4.352 353 353 0 0 1-10.742-12.38 233 233 0 0 0-7.181-6.865q.696-.645 1.427-1.257a97 97 0 0 1 10.056 9.479 196 196 0 0 1-6.987-11.78q.801-.54 1.637-1.04a266 266 0 0 0 8.104 14.777q2.792 3.844 5.333 7.852m-2.237 1.89q-.185.202-.363.415a79 79 0 0 0-11.754-6.813 454 454 0 0 0 11.077 7.702 13 13 0 0 0-.252.379l-.072.1a433 433 0 0 1-5.82-3.626 365 365 0 0 1-7.996-5.202 240 240 0 0 0-5.563-2.91 285 285 0 0 0-3.265-1.64l.13-.236q.406-.686.842-1.353a103 103 0 0 1 12.37 6.206 212 212 0 0 1-10.155-9.24q.593-.732 1.226-1.431a292 292 0 0 0 12.149 11.731 164 164 0 0 1 7.446 5.917m-1.906 2.758q-.168.305-.322.628a106 106 0 0 0-13.045-3.58 656 656 0 0 0 12.478 4.948q-.13.36-.248.737a554 554 0 0 1-15.34-5.648q-4.759-1.352-9.562-2.576.263-.776.555-1.556c4.526.86 8.991 1.916 13.379 3.187a282 282 0 0 1-12.102-6.304q.347-.78.725-1.56a374 374 0 0 0 14.754 8.046 209 209 0 0 1 8.728 3.678m-1.447 4.03q-.102.403-.196.82c-4.482-.577-9.02-.932-13.589-1.093q6.61 1.457 13.245 2.817-.079.444-.152.901a791 791 0 0 1-16.177-3.176 525 525 0 0 0-9.93-1.056q.126-.753.273-1.513a205 205 0 0 1 13.833.902 385 385 0 0 1-13.147-3.959q.195-.768.414-1.541a503 503 0 0 0 16.108 5.025q4.682.859 9.318 1.874m-.86 4.987q-.064.475-.124.961c-4.564.09-9.134.337-13.686.713q6.73.667 13.456 1.268l-.08.757-.015.276q-4.695-.385-9.386-.798-3.48-.303-6.964-.627a783 783 0 0 0-4.596-.014q-2.667-.003-5.337.004l.018-.299q.014-.55.038-1.109c4.59-.338 9.2-.58 13.813-.71a573 573 0 0 1-13.612-2.189q.07-.733.158-1.475 8.366 1.459 16.758 2.724 4.784.204 9.56.518zm-.474 5.74q-.021.53-.036 1.054a288 288 0 0 0-13.536 1.83q6.75.15 13.5.24-.004.51.001 1.014a1117 1117 0 0 1-16.416-.156q-4.957.35-9.91.766a84 84 0 0 1-.03-1.427 339 339 0 0 1 13.7-1.757q-6.85-.469-13.691-1.059.013-.697.037-1.387 8.423.676 16.856 1.231 4.763-.209 9.525-.35zm.025 5.771q.018.492.045.974c-4.45.878-8.876 1.898-13.27 3.08q6.715-.546 13.42-1.18.048.468.107.926a814 814 0 0 1-16.302 1.664 534 534 0 0 0-9.746 1.869 75 75 0 0 1-.19-1.493 242 242 0 0 1 13.418-3.179q-6.848.199-13.707.225a80 80 0 0 1-.101-1.46q8.445-.041 16.878-.259 4.718-.632 9.447-1.167m.583 5.275a28 28 0 0 0 .17.87 142 142 0 0 0-12.764 4.765 743 743 0 0 0 13.142-3.129q.1.396.206.779a566 566 0 0 1-15.889 4.17 371 371 0 0 0-9.358 3.378 46 46 0 0 1-.452-1.573 170 170 0 0 1 12.86-5.105 385 385 0 0 1-13.58 1.985q-.052-.263-.1-.524a72 72 0 0 1-.181-1.004 600 600 0 0 0 16.716-2.32 342 342 0 0 1 9.23-2.292m1.176 4.48q.117.356.244.694a102 102 0 0 0-11.633 7.02 544 544 0 0 0 12.177-5.743q.147.3.303.58a418 418 0 0 1-14.574 7.477 275 275 0 0 0-8.38 5.321 48 48 0 0 1-.831-1.572 125 125 0 0 1 11.514-7.61 279 279 0 0 1-12.967 4.45 47 47 0 0 1-.626-1.583 408 408 0 0 0 16.062-5.2 232 232 0 0 1 8.71-3.833m1.66 3.38q.158.25.333.496a85.3 85.3 0 0 0-9.536 9.666 501 501 0 0 0 10.296-8.705q.205.235.423.464a408 408 0 0 1-12.143 11.025q-3.422 3.6-6.714 7.329-.63-.647-1.233-1.324c2.86-3.646 5.925-7.1 9.179-10.338a228 228 0 0 1-11.477 7.508 41 41 0 0 1-1.06-1.502 311 311 0 0 0 14.365-8.862 175 175 0 0 1 7.568-5.757m2.305 2.61q.238.214.486.423a91 91 0 0 0-3.567 5.688 99 99 0 0 0-3.216 6.093q3.99-5.43 7.86-10.945.297.21.621.417a525 525 0 0 1-9.197 13.564 349 349 0 0 0-4.81 8.686q-.706-.445-1.414-.921a135 135 0 0 1 5.263-10.341q.543-.963 1.105-1.913a245 245 0 0 1-9.202 10.181 40 40 0 0 1-1.373-1.154 337 337 0 0 0 11.615-12.26 190 190 0 0 1 5.83-7.518m3.346 2.3q.364.202.751.404c-1.63 4.224-3.057 8.546-4.325 12.926q3.017-6.04 5.958-12.113.429.205.876.414a993 993 0 0 1-7.07 14.807 660 660 0 0 0-3.485 9.302 56 56 0 0 1-1.35-.59 234 234 0 0 1 4.245-13.15 409 409 0 0 1-6.996 11.809 55 55 0 0 1-1.395-.754 512 512 0 0 0 8.74-14.447 284 284 0 0 1 4.051-8.609m4.536 2.13q.39.157.789.302a143 143 0 0 0-2.399 13.377q2.07-6.406 4.037-12.844.42.122.847.233a711 711 0 0 1-4.634 15.715 471 471 0 0 0-1.956 9.728q-.75-.196-1.501-.411a192 192 0 0 1 2.197-13.61 380 380 0 0 1-5.197 12.665q-.75-.256-1.498-.533a512 512 0 0 0 6.551-15.53 287 287 0 0 1 2.764-9.092m4.72 1.351q.442.095.892.18c-.32 4.517-.455 9.064-.42 13.628q1.17-6.655 2.252-13.326.465.067.938.126a874 874 0 0 1-2.526 16.25q-.374 4.965-.663 9.938-.741-.09-1.486-.199c-.03-4.624.071-9.237.313-13.829a460 460 0 0 1-3.299 13.322 65 65 0 0 1-1.498-.307 616 616 0 0 0 4.147-16.365 346 346 0 0 1 1.35-9.418m5.236.722q.481.045.97.084c.257 4.542.666 9.087 1.212 13.62q.414-6.747.757-13.494.498.024 1 .044-.321 8.2-.765 16.406.165 4.97.4 9.935-.72 0-1.445-.014c-.52-4.584-.933-9.179-1.232-13.776a570 570 0 0 1-1.684 13.653q-.735-.045-1.47-.109a761 761 0 0 0 2.096-16.803 427 427 0 0 1 .161-9.546m5.558.214q.483-.008.966-.024c.72 4.48 1.592 8.948 2.62 13.394q-.309-6.75-.697-13.493a51 51 0 0 0 .956-.076q.6 8.195 1.049 16.402.708 4.924 1.5 9.84-.74.073-1.48.132a256 256 0 0 1-2.7-13.563 541 541 0 0 1-.256 13.73q-.739.027-1.476.038.267-8.444.345-16.892-.467-4.743-.827-9.488m5.398-.418q.473-.057.941-.123a188 188 0 0 0 4.154 13q-1.104-6.659-2.293-13.3.461-.085.918-.179a832 832 0 0 1 3.012 16.133 547 547 0 0 0 2.673 9.57q-.735.168-1.471.32a237 237 0 0 1-4.289-13.134q.762 6.822 1.338 13.67-.74.118-1.479.22a709 709 0 0 0-1.597-16.835 401 401 0 0 1-1.907-9.342m5.198-.992q.45-.11.893-.229a172 172 0 0 0 5.737 12.346 959 959 0 0 0-3.984-12.864q.433-.14.86-.289a759 759 0 0 1 5.089 15.565q1.904 4.577 3.9 9.117-.72.265-1.44.514a217 217 0 0 1-5.935-12.444 462 462 0 0 1 3.033 13.365q-.728.213-1.459.41a651 651 0 0 0-3.659-16.473q-1.575-4.49-3.035-9.018m4.869-1.609q.414-.166.823-.343a157 157 0 0 0 7.367 11.428 876 876 0 0 0-5.766-12.18q.392-.198.777-.408a695 695 0 0 1 7.282 14.7 458 458 0 0 0 5.18 8.478q-.69.367-1.386.716a199 199 0 0 1-7.637-11.491q2.52 6.364 4.831 12.812-.707.312-1.418.608a593 593 0 0 0-5.841-15.806 336 336 0 0 1-4.212-8.514"/><path fill="#e6a5a5" fill-opacity=".745" d="M680.514 493.824c-4.569-1.497-19-3.617-27.722 4.992-16.781 16.565-18.292 24.236-19.097 57.028-1.297-6.489-3.571-11.268-3.143-20.775-1.153-18.125 8.394-57.221 50.703-46.11z" color="#000" overflow="visible" style="marker:none"/><path fill="#e9afaf" d="M725.294 565.863c1.66-3.763 5.04-29.184 1.43-28.926-.868 2.458.648 13.189-7.068 32.387-2.576 6.41-2.677 4.24-6.049 8.882-7.385 7.658-33.451 11.828-30.822 11.525 0 0 35.67 2.525 42.51-23.868" color="#000" overflow="visible" style="marker:none"/><path fill="#e6a5a5" fill-opacity=".745" d="M725.577 526.146c-2.371-1.607-9.207 2.557-11.684 9.2-2.197 5.709-1.044 13.535-3.915 18.373-2.282 3.845-9.341 7.463-12.918 7.868-20.4 2.313-18.738 2.658-36.788-8.728 3.886 8.34 10.385 12.57 12.938 13.27 11.864 3.255 24.453 5.237 35.068-1.895 5.736-3.853 8.568-8.978 8.78-18.38.144-6.434 3.956-13.874 8.519-19.708" color="#000" overflow="visible" style="marker:none"/><path fill="#339967" d="M650.371 547.53c1.933-2.083 3.246-4.25 5.421-4.735l2.17 6.365c-2.766 2.047-3.477 3.528-6.703 3.353-2.224.343-2.99-2.397-.888-4.983" color="#000" opacity=".736" overflow="visible" style="marker:none"/><ellipse cx="770.554" cy="961.013" fill="#246c49" color="#000" overflow="visible" rx="1.635" ry=".863" style="marker:none" transform="scale(.84593 1)skewY(-28.071)"/><path fill="#339967" d="m649.076 525.997 9.507.634-.404 1.498c-3.168-.315-5.819-.113-9.045-.288-1.302-.06-1.175-1.72-.058-1.844" color="#000" opacity=".736" overflow="visible" style="marker:none"/><ellipse cx="649.934" cy="526.99" fill="#246c49" color="#000" overflow="visible" rx="1.095" ry=".519" style="marker:none"/><path fill="#339967" d="M676.003 462.894c1.676.733 2.516 1.862 3.717 3.137 1.163-2.428 5.364-4.689 8.889-6.07.489.942.604 1.11.882 1.846-2.949 1.256-7.561 3.605-8.31 6.136.649 3.181 1.19 5.295 1.745 10.327 1.585 14.36.061 25.15-5.889 39.66-3.421 8.343-6.26 13.483-8.858 16.85-2.684 3.48-6.462 6.832-8.878 9.205 0 0 10.84 2.688 14.152 1.152 5.365-2.49 8.629-6.424 13.302-12.113 2.142-2.607 2.489-5.143 4.926-6.996 1.997-1.518 9.394-1.344 11.65-2.189 2.624-1.36 4.035-3.285 7.27-4.946 1.802-.925 4.119-1.138 6.285-1.991 1.62-.638 4.56-2.863 6.369-3.667 1.93-.858 4.323-.682 6.551-1.59 1.916-.782 3.625-2.396 5.794-3.213 2.362-.89 4.815-.661 7.037-1.447 1.735-.614 4-2.505 5.654-3.073 3.197-1.099 5.025-.822 7.942-1.833 2.297-.795 4.918-2.64 7.057-3.443 2.17-.814 4.423-1.2 6.446-2.113 4.476-2.02 8.47-4.72 12.49-6.9-3.431 2.403-7.782 5.525-12.108 7.762-2.105 1.088-4.266 1.656-6.193 2.426-2.54 1.015-4.555 2.546-7.244 3.527-2.718.993-5.381 1.19-8.25 2.423-1.688.725-3.446 2.04-5.33 2.78-2.16.848-4.654.377-7.013 1.38-1.952.832-3.483 2.258-5.674 3.155-2.016.825-4.679 1.278-6.802 2.185-1.685.72-4.277 2.673-6.054 3.267-1.98.662-3.878.785-5.73 1.759-2.405 1.264-3.852 3.432-6.064 4.894-1.966 1.251-10.068 1.33-12.517 3.337-2.357 1.933-3.291 4.576-5.34 7.284-5.564 7.357-11.672 11.214-13.09 11.882-2.352 1.107-13.43-.978-15.103.02-1.963 1.171-.13.44-1.908 1.128-1.339-2.433-1.882-4.57-2.27-5.905 1.467-1.22 2.307-2.293 3.803-3.9 6.553-7.032 9.516-9.865 14.528-22.626 3.468-8.83 5.705-16.658 6.607-22.262.158-.987.706-4.24.776-5.863-.372-.233-.757-.453-.58-1.555-.693-.028-1.355-1.604-.866-2.511-1.034.098-1.364-1.329-1.087-2.343-.712-.144-1.032-1.25-.825-2.116-1.081-.19-1.229-.945-1.126-1.826-1.291-.015-1.279-1.66-2.058-1.962-.731.78-2.97-.817-3.787-1.04-.805.28-1.283 1.238-2.774.828-2.109.976-5.177 2.759-10.663 5.123-5.353 2.307-6.595 2.016-13.82 3.311-3.798.681-15.37 1.21-19.23-.346-6.975-2.81-9.598-5.87-8.711-9.09 1.292-4.692 9-9.123 13.833-9.68 9.54-1.1 20.624 3.052 27.836 5.911 2.855 1.254 5.889 1.493 8.854 1.059.835-.624 1.659.688 3.173 1.119 1.027-.784 2.25-.832 2.934-.3.494-.602 1.37.473 1.98 1.2 1.234-.513 1.742 1.04 2.11 1.809 1.04-.307 2.234 1.024 2.158 1.879.887.157 1.332 1.669.952 2.234.701.435.992 1.771.537 2.383.556.223 1.086 1.77.92 2.158.266.347.19.663.293.919.027-.763-1.07-12.095-1.637-14.36-.235-.938-.443-2.514-.823-3.354-.995-.924-2.192-2.36-3.366-2.734-1.548-.494-2.353-.74-3.9-1.129.13-1.196-.097-1.485.397-2.416 2.574.757 1.568.37 4.029 1.447m-19.562 16.78c3.896-1.511 7.752-2.723 9.683-5.378-4.87-.754-11.921-1.243-19.776-4.554-3.069-1.294-11.756-3.022-15.995-2.947-5.11.091-11.72 3.836-12.515 7.771-.865 4.286 2.007 6.074 7.695 7.757 7.407 2.192 12.68.482 17.755.193 6.755-.385 9.894-1.577 13.153-2.842"/><path fill="#339967" d="m695.366 507.579.634 18.436h-1.268z" color="#000" overflow="visible" style="marker:none"/><path fill="#f26522" d="M796.235 483.137c-1.747 15.473-9.885 25.74-19.254 33.304-21.196 17.112-30.955 18.668-40.66 21.898-5.32 1.77-19.05-2.401-24.76-4.249-4.962-1.605-11.862-6.765-14.355-10.267-3.309-4.648-5.836-7.288-10.294-13.478-3.28 3.564-5.037 4.479-9.93 3.006-5.218-.027-12.617 1.328-15.648 6.062-3.676 5.739-12.258 27.317 8.971 39.978 5.315 3.169 26.444 7.42 37.556-3.226 6.387-6.119 4.46-17.299 5.723-20.382 2.66.159 11.471 3.602 24.563 2.39 3.24 6.92 5.202 12.282 3.97 30.121-1.23 17.79.426 18.673-2.347 28.762-3.107.484-7.36-1.798-17.034-7.214 1.552-5.95.607-13.405 3.952-31.855-.242 12.742-6.395 23.422-18.4 28.053-12.219 4.713-31.296 6.473-47.478-.689-10.227-4.525-18.803-12.598-24.196-23.205-11.861-23.333-6.63-49.233 5.15-63.738 8.937-11.003 25.72-13.458 38.324-9.944 5.274.714 9.14 4.864 9.912 8.797 1.46-1.894 5.6-2.796 8.83-.939 4.565 2.623 9.989 6.232 18.11 4.853 6.57-1.115 7.339-4.624 6.417-15.106-.396-4.502-2.47-10.99-4.019-16.45-.417-1.472-2.08-3.417-5.652-6.635-3.16-4.159 4.509-13.326 10.374-10.777 1.967 5.667 3.54 5.153 3.746 3.97 1.346-17.848 23.035-34.524 41.65-33.97 14.818.44 18.74 4.914 23.582 19.24 5.753 17.02 4.003 34.546 3.197 41.69" color="#000" opacity=".532" overflow="visible" style="marker:none"/><path fill="none" stroke="#c0272d" d="M722.554 589.645c1.436-8.03 1.117-14.311 3.068-24.166.452 1.762-4.16 18.059-19.639 21.508-5.64 1.256-17.058 4.657-30.5 2.519-7.583-1.207-17.355-3.596-26.972-11.69-14.681-12.356-19.401-28.561-18.073-48.77 1.499-22.789 12.427-34.183 21.794-38.962 7.395-3.774 18.047-4.87 30.756-1.347 3.177.767 5.666 4.347 7.118 7.19 11.434-4.726 10.691 6.582 25.301 4.644 8.7-1.154 8.602-6.034 7.235-16.315-.6-4.522-3.548-14.748-3.548-14.748l-5.53-6.36" color="#000" overflow="visible" style="isolation:auto;mix-blend-mode:normal;solid-color:#000;solid-opacity:1;marker:none"/><path fill="none" stroke="#c0272d" d="M724.254 452.271c.829 1.546 2.73 5.16 2.886 3.89 3.755-30.521 55.755-51.108 65.217-15.7 3.054 11.429 3.886 21.51 4.459 40.405-1.995 24.097-23.258 41.471-42.26 51.014-18.71 9.396-29.642 6.3-39.722 4.013-10.51-2.384-21.243-14.723-28.365-24.54-3.33 1.824-3.601 3.316-6.359 3.101-8.404-.807-13.71-1.485-18.673 5.17-5.758 7.722-9.736 24.69 2.221 34.727 3.62 3.038 10.412 8.173 17.848 8.337 7.303.16 17.107.695 23.923-4.687 11.33-8.945 3.018-17.446 10.737-27.863 7.719-10.418 19.236-1.767 21.334 4.318 2.124 6.163 4.997 13.412 4.991 23.915-.007 13.76.267 25.698-3.055 38.166" color="#000" overflow="visible" style="marker:none"/><path fill="#cd4646" d="m695.5 408.457 17.554.205c2.173 20.191 7.432 33.8 10.415 42.714-4.486 1.728-9.922 1.745-10.684 10.177-10.056-12.43-14.421-31.707-17.285-53.096" color="#000" opacity=".275" overflow="visible" style="marker:none"/><path fill="none" stroke="#c0272d" d="M725.64 565.255c1.271-5.694 1.744-23.18 1.744-23.18" color="#000" overflow="visible" style="isolation:auto;mix-blend-mode:normal;solid-color:#000;solid-opacity:1;marker:none"/><path fill="#f9b797" d="M718.392 526.86c4.063-3.383 9.97-2.755 14.803 1.115 4.62 3.7 5.917 9.77 5.917 9.77-7.3 2.067-16.944 1.14-26.296-1.98-.366-.22 1.408-5.435 5.576-8.906" color="#000" opacity=".532" overflow="visible" style="isolation:auto;mix-blend-mode:normal;solid-color:#000;solid-opacity:1;marker:none"/><path fill="#e89e55" d="M659.108 548.08c3.06 5.138 8.279 9.092 14.457 12.108 3.532 1.724 7.662 1.997 11.693 1.969 4.578-.033 13.148-.355 17.082-3.083.487 1.324-.397 4.298-.986 4.003-2.148 1.133-23.828 6.822-37.925-4.518-2.668-2.145-5.29-4.704-7.264-7.979z" color="#000" opacity=".8" overflow="visible" style="isolation:auto;mix-blend-mode:normal;solid-color:#000;solid-opacity:1;marker:none"/><path fill="#e89e55" stroke="#201b17" stroke-width=".035" d="M658.162 528.16c-1.726 5.11-2.01 9.608-1.185 13.563l-3.213 1.976c-.95-4.228-.897-9.344.751-15.644zM668.314 514.903c-2.24 1.232-4.71 2.279-6.642 5.356-1.189 2.127-2.156 4.164-2.918 6.116l-3.788-.12q.57-1.915 1.335-3.971c1.812-4.86 5.765-7.621 12.013-7.381z" color="#000" opacity=".8" overflow="visible" style="isolation:auto;mix-blend-mode:normal;solid-color:#000;solid-opacity:1;marker:none"/><path fill="none" stroke="#c87137" d="M711.781 538.204c-5.386 2.273-9.067 3.89-13.798 5.887-4.431 1.87-3.167 9.946.928 10.987 3.989 1.014 6.232 6.782 3.9 7.444-50.456 14.33-55.949-28.4-44.886-43.071 2.477-3.286 6.547-4.95 10.152-4.695"/><path fill="none" stroke="#e0864d" d="M656.455 542.053c.285 2.374 1.325 4.563 2.303 6.399M657.94 526.125l-.744 2.168"/></g><path fill="none" stroke="#c0272d" stroke-width="1.07" d="M311.656 200.223c2 10.607 1.158 17.268 2.967 31.737.234 1.877 1.503 31.229-3.498 69.75-.498 3.843.003 11.586.36 15.552 4.926 54.795 11.096 115.759 9.911 115.876m-17.947-.751c-1.113-5.625-14.694-63.15-5.272-115.721.843-4.698.985-9.594.087-14.158-7.89-40.096 5.952-71.187 5.48-74.524-1.26-8.92.062-15.858-.281-17.636-.223-1.218-1.134-2.555-2.829-2.552" color="#000" overflow="visible" style="isolation:auto;mix-blend-mode:normal;solid-color:#000;solid-opacity:1" transform="translate(26.27 36.67)"/><path fill="#dfecfb" stroke="#8282c6" stroke-width="1.07" d="M321.451 306.499c-.93-2.697-2.227-6.233-2.737-8.381-1.403-5.913-2.618-11.966-4.426-17.799-.641-2.067-1.598-4.041-1.986-6.15-2.114-5.045-4.602-7.86-6.548-11.73-6.371-10.395-4.843-9.16 6.875-22.428 5.36-4.134 8.69-9.302 12.195-15.119.883-1.467 6.336-8.005 4.105-8.582 1.513-9.894-2.39-25.487 4.226-29.473 1.548-.135 4.752-1.58.467-12.433s-7.935-13.422-21.794-16.73c-14.36-1.616-37.65.232-52.4-1.988-6.006-.701-9.529-.889-9.529-.889-2.052.022-1.475 4.12-3.097 5.518-1.941.919-18.896-6.98-18.118-6.612-.489-1.896.01-6.166.84-7.896 1.404-2.925 3.735-5.392 5.612-8.01 4.342-6.056 8.825-12.73 13.914-18.205 5.487-6.005 10.245-12.341 18.04-9.849 12.944 4.44 20.856 2.341 34.641 2.835 3.323-.02 9.51 2.946 11.031 6.277 1.635 3.58 2.436 7.755 4.455 10.94 3.145 4.964 17.548 8.725 21.09 12.927 4.098 4.86 6.295 10.452 4.763 16.36a173 173 0 0 1-1.014 35.423c-1.116 8.428-2.411 16.227-3.655 23.835-1.076 6.321-1.073 12.991-.103 18.827-3.49 3.915-2.681 4.126-7.612 10.015-.222-1.217-1.134-2.554-2.828-2.552-2.269.002-1.676 1.98-1.933 3.286-.061 4.826.902 5.557.174 9.8-.911 5.583-.385 11.216.837 16.708 1.304 5.879 2.657 11.626 3.434 17.612q.058.45.112.902c.342 2.872 1.191 6.012 1.942 8.869"/><path fill="#dfecfb" stroke="#8282c6" stroke-width="1.07" d="M483.219 115.21c.481-1.168 9.92 2.66 11.064 2.677 7.468.115-.732-11.082-5.231-11.665-4.064 1.93-4.407 5.526-5.833 8.988zM554.83 143.279c9.758-2.07 5.737-4.982 1.573-8.614-1.535-1.395-2.661-7.781-4.846-8.757-4.315-1.926-9.944.588-9.944.588-1.914 7.27 1.298 19.045 13.217 16.783z" color="#000" style="isolation:auto;mix-blend-mode:normal;solid-color:#000;solid-opacity:1" transform="translate(-222.884 -12.303)"/><path fill="none" stroke="#c1e9f7" stroke-linecap="round" stroke-width="1.07" d="M322.084 253.33c-2.726.55-4.962 2.38-7.608 3.186-3.288 1.005-6.792 1.044-10.05 2.165"/><path fill="#2196f9" d="M538.19 291.27a19.4 19.4 0 0 1 7.743-1.605c-2.44.007-4.602.836-6.94 1.338M540.687 300.722c1.218-.23 2.366-.768 3.608-.984.903-.158 1.922-.096 2.795-.357-2.02.163-4.073.091-5.957.985M542.292 307.768c1.269-.406 2.53-.592 3.854-.715 1.156-.105 2.608-.011 3.71-.36-2.566-.036-4.97.543-7.385 1.343" color="#000" opacity=".35" style="isolation:auto;mix-blend-mode:normal;solid-color:#000;solid-opacity:1" transform="translate(-222.884 -12.303)"/><path fill="#2196f9" d="M549.035 315.95q.105-.17.149-.38c.302-1.5-2.162-1.963-3.137-1.416 1.93-1.08 3.806-.515 3.116-3.305-.621-2.51-1.25-2.28-3.276-3.081 1.105-1.263 2.78-.316 2.293-2.683-.174-.854-.63-1.598-.764-2.499-.129-.853.22-2.063-.834-2.349.559.152 1.843-2.22 2.01-2.66.392-1.04.382-2.147.287-3.237-.195-2.257-.057-4.914-3.069-4.881.733-.534 1.58-.434 1.999-1.281.3-.609.201-1.68.101-2.34-.217-1.428.188-3.876-.498-5.082-.63-1.107-3.388-.535-3.365-1.57.013-.494 1.798-1.765 2.098-2.226.295-.457.864-3.112 1.357-3.11 1.08.006.6 5.904.753 6.778.405 2.324.731 4.686 1.399 6.934 1.43 4.823 1.715 9.94 2.72 14.856.508 2.493 1.526 9.448 2.38 11.807-.643.244-10.855 6.393-10.341 3.15.99.406 4.04-.48 4.622-1.425M484.394 139.238l6.927 5.293c12.144 8.575 36.303 3.025 51.88 3.588-8.542 4.834-38.505 8.492-53.286.12-6-5.546-12.31-17.205-5.52-9M499.516 126.997c5.1 5.35 27.42 16.303 38.284 8.52l.84 5.041c-11.008 1.348-23.216 3.058-36.724-6.84-2.637-2.24-1.75-4.48-2.4-6.721M479.325 158.855c5.589 2.163 26.68 6.507 35.3 2.905l19.455-3.56c-15.967 13.894-52.877 7.373-55.906 3.398-1.88-1.142-4.78-3.212-5.524-4.425-9.067-14.78 1.184-3.663 6.675 1.682M551.842 157.24c2.67-.449 2.796 13.13 3.84 15.722-.24.192-3.37-8.992-8.04-6 1.415-4.003 1.175-9.959 4.2-9.722M548.379 236.75l4.243-7.638c.666 1.478 3.032 3.459-4.2 13.902-4.098 5.915.805 12.454 4.48 13.99l-4.34.52s-1.974-2.748-2.907-5.557c-.671-2.02-.144-4.636-1.185-3.832l-14.824 11.443c-2.158 1.665 16.305-17.412 18.733-22.829M548.408 186.744l3.317 6.155c4.09 12.938 4.574 25.044.81 36.17l.167-16.046c1.094-4.564-1.697-10.82-3.153-13.246-1.689.365-2.135 1.56-2.017 3.13l-2.39-6.318z" color="#000" opacity=".35" style="isolation:auto;mix-blend-mode:normal;solid-color:#000;solid-opacity:1" transform="translate(-222.884 -12.303)"/><path fill="url(#e)" d="M451.027 164.08c.703-1.725.594-4.048 1.858-5.89 14.128-20.582 27.166-36.487 31.951-35.968l1.763 3.722-34.31 39.937z" color="#000" style="isolation:auto;mix-blend-mode:normal;solid-color:#000;solid-opacity:1" transform="translate(-222.884 -12.303)"/><path fill="url(#f)" d="M485.07 122.137c1.818-.405 4.29.24 6.409.948 8.29 2.768 18.158 2.326 25.858 2.205 5.368-.085 8.271.124 11.262.788 5.859 3.038 6.733 5.192 7.003 7.13l-49.876-7.647z" color="#000" style="isolation:auto;mix-blend-mode:normal;solid-color:#000;solid-opacity:1" transform="translate(-222.884 -12.303)"/><path fill="url(#g)" d="M484.26 114.135c.895-3.04 2.189-6.08 5.036-7.503 1.766.807 3.3 1.969 4.535 3.59l-6.423 4.892z" color="#000" style="isolation:auto;mix-blend-mode:normal;solid-color:#000;solid-opacity:1" transform="translate(-222.884 -12.303)"/><path fill="url(#h)" d="M541.76 133.056c-.058-1.446-.385-4.804.506-6.011 1.1-1.491 6.315-1.205 7.873-1.096 1.52.394 2.29 1.54 2.835 2.91l-10.048 8.236z" color="#000" style="isolation:auto;mix-blend-mode:normal;solid-color:#000;solid-opacity:1" transform="translate(-222.884 -12.303)"/><path fill="#2196f9" d="M527.962 272.568c6.277-.116 14.896-4.066 18.065-5.957.762 1.785-4.606 6.85-4.783 8.88l-9.743 2.752z" color="#000" opacity=".35" style="isolation:auto;mix-blend-mode:normal;solid-color:#000;solid-opacity:1" transform="translate(-222.884 -12.303)"/><path fill="#e6e6e6" d="m328.015 114.306 3.846-.48.64 5.767h-3.524zM316.158 106.775l8.652 4.967-10.415 80.436-2.243 1.282c1.993-21.877 10.521-59.248 4.006-86.685" color="#000" overflow="visible" style="isolation:auto;mix-blend-mode:normal;solid-color:#000;solid-opacity:1" transform="translate(26.27 36.67)"/><path fill="#f0e8c8" d="M320.484 121.837c1.603-.955 4.166-4.195 5.769-1.122 0 0-1.61 6.286-3.045 11.857l-2.724-1.442c-.554-3.99-2.557-5.577 0-9.293M327.374 122.157c3.51-8.054 7.37.962 7.37.962l-1.922 31.084c-3.913-1.084-7.485-1.062-13.139-.16.473-5.054.526-9.032 1.982-13.544 1.395-4.321 4.17-9.895 5.71-18.342M228.672 169.265h7.21c.623 8.78.604 13.397 2.652 23.813-4.875 6.724-8.378 3.059-11.01-1.7.074-3.638.717-5.69.868-9.002.106-2.334-.64-5.117.28-13.11M226.39 120.157c12.847 1.618 37.825 1.503 56.738 2.254.996.828 1.294 1.655-.117 2.483-17.658-1.728-33.283-.18-42.5 1.187-5.473.812-5.957 7.01-7.673 12.74l-6.25.48zM320.116 82.686c-.835-.368-.621-3.723-2.082-5.168-.607-.6-2.815-.027-3.42-.116 4.534 4.376-6.057 17.389-9.81-2.781-5.476-.962-10.047.153-14.692-.656-16.635-2.897-29.223-.442-35.763-2.99-1.57-.612-2.411-2.073-3.435-3.39-3.646-6.431-6.64-13.112-12.547-17.169-3.613-3.748.073-13.298 1.08-21.049l-2.947-1.179c-3.034 10.955-4.428 25.217-6.118 36.71-4.813 10.694-12.914 15.593-17.335 22.207l1.739.902c4.526-3.217 15.257-17.178 19.975-17.825 14.208 4.13 22.264 4.838 40.921 4.13 3.564 1.598 9.284 3.181 11.595 6.695 3.889 5.913 2.14 7.195 4.317 10.575 1.029 1.597 2.924 3.93 7.48 5.898 10.571 4.57 27.573 15.75 31.984 18.464 2.053.75.954-1.838 1.388-3.11z" color="#000" overflow="visible" style="isolation:auto;mix-blend-mode:normal;solid-color:#000;solid-opacity:1" transform="translate(26.27 36.67)"/><path fill="none" stroke="#ffb4b4" stroke-width="2.5" d="M249.254 12.479c-9.409 3.76-17.824 15.978-19.225 25.741-1.182 8.24-.526 16.645-2.605 24.77-1.348 5.265-5.986 9.682-9.418 14.222-5.201 6.881-10.893 13.91-15.527 21.188-6.227 9.782-8.053 16.887 4.273 21.24 3.758 1.33 6.33.95 8.579 4.684 2.112 3.507-1.625 14.46-2.093 18.154 0 3.307 4.02 5.906 9.952 3.196M223.595 152.558c-12.281-4.148-7.46 7.738-6.9 12.281.893 7.234-3.787 13.665-3.437 20.742.72 14.511 22.372 19.068 35.506 20.505 6.748.739 13.474-1.513 15.948 5.495 2.266 6.417 5.535 12.537 8.755 18.975" color="#000" overflow="visible" style="isolation:auto;mix-blend-mode:normal;solid-color:#000;solid-opacity:1" transform="translate(26.27 36.67)"/><path fill="#f2cccc" d="M319.123 181.755c2.752 2.898 4.123 7.187 5.319 10.933 1.097 3.436 2.823 9.384.92 12.85-2.223 4.047-13.172 7.988-16.464 13.186-3.907 5.268-5.752 11.621-11.734 13.155-1.015.815-.361 5.06-1.66 5.064-5.449.022-24.454-3.96-31.783-5.534-.882-.189 1.687-3.019.997-3.015 0 0-1.489-6.108-2.242-16.235.943 1.18 11.859-6.843 10.953-8.89-2.64-4.418-9.649-9.638-11.03-13.19-1.019-2.623 1.554-7.103 3.343-8.347 8.545-8.994 21.99-9.872 29.182-9.865 9.083.008 17.624 3.623 24.199 9.888" overflow="visible"/><path fill="#f58b59" stroke="#c0272d" stroke-width="1.07" d="M328.202 216.597c-1.878-1.185-11.727 13.3-10.372 5.718 1.087-6.08 9.203-11.341 9.33-17.407.049-2.37-4.263-20.233-6.109-21.254-5.622-9.04-18.892-11.91-23.837-12.362-13.848-1.266-36.756 7.485-35.094 18.805.595 4.05 13.93 12.294 10.496 14.166-1.809.985-3.833 1.986-5.838 1.522-3.094-.715-3.554-3.28-6.112-4.468-.257 1.373.315 1.216.108 2.495-3.01.18-5.107-5.68-6.246-4.942-.268.174.165 7.038-1.314 4.27 0 0-.538-3.757-.974-5.784-.463-2.157-.362-4.12-1.21-5.578-2.41-4.148-.916-21.817 1.156-26.312 1.262-1.283-1.122 6.532.748 7.776 2.538 1.688 3.744 1.787 6.037 2.604 1.971-.946 2.34-10.112 6.83-11.4 15.311-2.969 36.151-3.122 45.887-1.002 11.977 2.608 14.868 12.91 19.072 22.065.744.874 1.485 1.766 2.494 1.316" overflow="visible"/><path fill="#fff" stroke="gray" stroke-width=".642" d="M230.495 155.28s-.904-.272-1.084.085c-1.174 2.334-.885 9.906-.539 12.812.535 1.557 2.29 6.424 3.158 7.283.581-.014 1.73.248 1.646-.544-.258-2.404 1.179-8.185 1.127-9.44-.442-3.8-2.117-3.877-3.106-6.818-.4-1.117-.665-1.566-1.202-3.377z" color="#000" overflow="visible" style="isolation:auto;mix-blend-mode:normal;solid-color:#000;solid-opacity:1" transform="translate(26.27 36.67)"/><path fill="#fff" stroke="gray" stroke-width=".642" d="M253.516 175.78c.036 1.034.222 6.059 1.407 8.167.277.493 1.52-.008 1.52-.008s1.749-9.586 2.694-10.661c-.494-2.156.308-7.05-.156-7.738-.298-.441-.98-.465-1.656-.415-2.45 1.963-4.502 6.8-3.809 10.655z" overflow="visible"/><path fill="#023a49" d="M284.466 217.19c1.2-.446 2.388-.784 3.47-1.006 2.247-.46 6.491-.635 8.466.549-1.725-1.035-6.139 1.867-7.775 2.418-3.694 1.243-7.688 2.65-11.632 2.878 1.639-2.094 4.584-3.77 7.47-4.84" color="#000" opacity=".35" overflow="visible" style="isolation:auto;mix-blend-mode:normal;solid-color:#000;solid-opacity:1" transform="translate(26.27 36.67)"/><path fill="#047391" d="M320.003 301.797c2.736-.71 5.497-.782 8.28-1-.64-.286-1.88.017-2.555.098-1.643.198-3.397.604-4.923 1.26" overflow="visible"/><path fill="#e8f2f7" stroke="#626366" stroke-width=".642" d="M301.417 259.467c-1.676-3.703-1.396-3.189-1.49-7.506-3.615-2.632-2.317.948-2.375 1.634 1.43 8.789 7.877 16.233 9.363 15.357-.888-2.296-3.071-6.075-5.498-9.485zM327.311 217.707c-.669-.532-6.472 6.7-6.913 7.185-2.603 2.861-6.099 7.849-8.97 10.532-2.405 2.249-4.582 6.07-5.262 9.185 2.058-3.795 5.825-6.408 8.84-9.23 2.864-2.68 4.618-6.04 6.732-9.353 2.437-3.837 6.09-7.616 5.573-8.319z" overflow="visible"/><path fill="#e8f2f7" stroke="#626366" stroke-width=".51" d="M301.81 219.956c-3.739 1.118-2.372 15.557.793 16.985 2.875 1.297.463-5.755.237-6.843-.535-4.848.122-7.52-1.03-10.142z" color="#000" overflow="visible" style="isolation:auto;mix-blend-mode:normal;solid-color:#000;solid-opacity:1" transform="translate(26.27 36.67)"/><path fill="#e8f2f7" stroke="#626366" stroke-width=".51" d="M309.163 272.012c-2.886.957-3.481 8.423.652 7.746 2.391.407.921-3.91.618-4.437-.595-1.035-.565-2.414-1.53-3.04" overflow="visible"/><path fill="#f0e8c8" d="M272.884 197.926c-.467 1.71-1.126 4.024-2.365 4.024-1.238 0-1.55-2.511-.988-4.364.513-1.696 1.797-3.436 3.036-3.436s.317 3.776.317 3.776M318.882 156.286c4.54 2.045 9.24 1.964 13.62 1.122l-2.885 14.42c-4.056-1.69-7.43-2.683-12.337-2.242zM317.12 173.271l11.376 1.122-3.686 13.94-9.774-1.282z" color="#000" overflow="visible" style="isolation:auto;mix-blend-mode:normal;solid-color:#000;solid-opacity:1" transform="translate(26.27 36.67)"/><path fill="#efc2c2" d="M283.617 122.7c9.248 2.046 18.364 2.753 23.571 21.952.005 2.105-.011 4.003-1.281 3.557 0 0-1.454-1.422-1.826-2.477-3.756-10.636-9.852-18.233-19.983-21.077z" color="#000" overflow="visible" style="isolation:auto;mix-blend-mode:normal;solid-color:#000;solid-opacity:1" transform="translate(26.27 36.67)"/><path fill="#fff" fill-rule="evenodd" stroke="#fff" stroke-width="1.075" d="M249.685 182.634c.042 2.252.204 4.145.396 5.948" overflow="visible"/><path fill="#efe9c6" d="M232.844 139.747c.8.73 1.686.766 2.683-.077.834.487 1.669.978 2.503-.07 1.083.423 2.134.656 3.023-.087 1.33.846 2.477.4 3.615-.103l1.324-.037c-5.212 2.87-6.914 4.782-9.107 7.652l-1.722.082.141-1.675-1.256 1.728-3.576.17 1.27-6.79c1.521-.722 1.102-.793 1.102-.793M234.266 162.687c.518.517 1.035.74 1.552.084.46.34.971 1.029 1.246.068.466.305.909.727 1.564.085.71.793 1.422.478 2.132.116 1.137.385 2.269.75 3.213.174-3.853-3.097-5.902-5.298-8.095-8.168l-5.264.136c.938 4.238 1.797 5.285 3.652 7.505" color="#000" overflow="visible" style="isolation:auto;mix-blend-mode:normal;solid-color:#000;solid-opacity:1" transform="translate(26.27 36.67)"/><path fill="#e6e6e6" d="M271.453 201.392c1.288-1.667 1.777-3.974 2.003-6.49l-.34 18.823c1.944-3.382 4.527-4.851 6.854-7.087l.082 1.004-6.195 7.37c-.856-.603-1.188-1.76-2.644-.962zM279.465 232.557l1.522-.521 1.803 3.164-1.442 1.082zM284.032 243.412l1.241-1.081 1.282 3.084-1.322.641z" color="#000" overflow="visible" style="isolation:auto;mix-blend-mode:normal;solid-color:#000;solid-opacity:1" transform="translate(26.27 36.67)"/><path fill="#f2cccc" d="M299.665 210.942c.794-3.621 2.297-1.235 3.003 0l.056 10.31c-1.549-2.783-1.755-.646-2.492-.452z" color="#000" overflow="visible" style="isolation:auto;mix-blend-mode:normal;solid-color:#000;solid-opacity:1" transform="translate(26.27 36.67)"/><path fill="#e6e6e6" d="m301.497 236.76 1.924.765-.398 3.46-1.673.02z" color="#000" overflow="visible" style="isolation:auto;mix-blend-mode:normal;solid-color:#000;solid-opacity:1" transform="translate(26.27 36.67)"/><path fill="#f2cccc" d="m225.948 120.383.64 6.26c-4.33 4.603-4.358 9.965-4.646 16.184-1.42 2.884-3.927-.873-4.967-.64.893-5.66 2.794-9.363 2.043-17.115.322.507 3.1-1.464 3.775-5.441.2-1.185 2.517 1.38 3.155.752M227.902 190.526l1.09-13.664c-5.196-5.65-5.23-12.231-5.576-19.865-1.703-3.54-2.79.285-4.038 0 1.243 8.053 1.477 15.534 5.546 22.021.897 1.43 1.658 10.18 2.978 11.508" color="#000" overflow="visible" style="isolation:auto;mix-blend-mode:normal;solid-color:#000;solid-opacity:1" transform="translate(26.27 36.67)"/><path fill="#e6e6e6" d="m213.16 86.991 2.493.907c-10.116 11.96-12.254 17.03-16.089 23.566l-.453-4.532c5.605-9.978 9.547-13.762 14.05-19.94" color="#000" overflow="visible" style="isolation:auto;mix-blend-mode:normal;solid-color:#000;solid-opacity:1" transform="translate(26.27 36.67)"/><path fill="none" stroke="#ffb4b4" stroke-width="2.5" d="M423.048 63.006c4.328 7.073 9.726 12.135 12.35 20.035 2.82 8.498 5.578 17.823 6.34 26.774 1.718 20.158-8.198 36.286-17.602 53.493-10.628 19.446-27.234 38.239-24.503 61.815 6.241 53.875 98.755 70.09 138.448 90.949" overflow="visible"/><path fill="none" stroke="#ffb4b4" stroke-width="2.5" d="M142.774 374.814c-.185 9.1 3.46 18.39 10.036 25.203-3.025 30.332-4.925 59.403-1.128 90.002 2.917 23.503 15.545 40.203 20.475 62.279 4.777 21.39 2.758 44.187.137 65.729-4.176 34.322-12.024 69.343-12.024 104M101.37 292.005c30.808-44.83 113.943-33.838 154.816-72.007" color="#000" overflow="visible" style="isolation:auto;mix-blend-mode:normal;solid-color:#000;solid-opacity:1" transform="translate(26.27 36.67)"/><path d="M239.285 128.75c12.251-3.427 27.364-3.147 38.046-2.154 5.825.542 9.786.881 10.625 2.153-19.872-.831-36.356-3.401-45.905 2.681-4.534 2.888-5.768 8.64-8.518 15.755l-3.244-.147c.772-1.792.497-3.987 1.261-6.056.672-1.817 1.38-1.236 2.112-2.95 2.026-4.743 1.813-8.217 5.623-9.283M230.584 155.15l2.802.294c2.367 5.857 5.928 8.728 8.997 12.832h-3.54c-3.455-4.175-7.431-8.201-8.26-13.127" color="#000" opacity=".162" overflow="visible" style="isolation:auto;mix-blend-mode:normal;solid-color:#000;solid-opacity:1;marker:none" transform="translate(26.27 36.67)"/><path fill="#bfa9a0" d="M300.957 207.744c-8.523-11.421-1.778-19.29 2.345-25.308.497-.726.399-1.94.4-2.73.002-.8-1.392-.091-1.375-.815.306-13.23 1.943-25.863 4.933-28.197 4.562-.561 2.123-8.283 1.728-11.039.892 1.083 5.282.373 7.733.204.549 3.169-1.475 18.48-1.477 20.057-.002 3.112-6.761 27.055-3.609 42.135l-7.199 9.31c.35-1.693-2.47-3.958-3.48-3.617" color="#000" overflow="visible" style="isolation:auto;mix-blend-mode:normal;solid-color:#000;solid-opacity:1" transform="translate(26.27 36.67)"/><path fill="#f2cccc" d="M303.538 813.812c.81-.602 1.284-1.313 1.5-2.091-.793-.704-1.12-1.826.022-2.24-.021-2.907-3.182-5.983-4.848-7.844-3.945-5.858-5.305-10.369-6.13-17.781-.214-5.07-.401-.429-.39-.18.425 8.64 3.596 15.962 5.946 19.577.827 5.356-7.805-4.384-9.41-5.758-.807-.692-1.153-.613.21 1.56.448.714 6.535 6.002 8.237 7.822 1.7 1.819 2.77 6.74 4.863 6.935M309.476 813.96c-.81-.603-1.284-1.314-1.5-2.092.793-.703 1.12-1.826-.022-2.24.021-2.907 3.182-5.982 4.848-7.843 3.945-5.858 5.305-10.37 6.13-17.782.214-5.069.401-.428.39-.179-.425 8.64-3.596 15.962-5.946 19.577-.827 5.356 7.805-4.384 9.41-5.758.807-.693 1.153-.614-.21 1.56-.448.714-6.535 6.001-8.237 7.821-1.7 1.82-2.77 6.74-4.863 6.935" color="#000" overflow="visible" style="isolation:auto;mix-blend-mode:normal;solid-color:#000;solid-opacity:1" transform="translate(26.27 36.67)"/><path fill="none" stroke="#ffb4b4" stroke-width="2.5" d="M472.208 385.614c-17.82 23.38-9.582 76.152-14.844 106.21-4.733 27.032-13.713 54.996-12.201 82.716 3.275 60.06 24.37 116.045 21.645 176.51" color="#000" overflow="visible" style="isolation:auto;mix-blend-mode:normal;solid-color:#000;solid-opacity:1" transform="translate(26.27 36.67)"/><path fill="url(#i)" stroke="#6c5635" stroke-width=".576" d="M647.58 808.623c-.288-2.786-.26-6.433.903-9.168 3.832-3.634 7.919-9.276 8.938-15.608.317-1.979.869-17.189-4.952-21.841 6.72-8.016 1.87-16.834.622-20.468 11.643 7.727 19.311 16.118 34.584 13.94 25.556-3.644 43.61-6.307 54.905-31.927 1.456-3.298 2.527-6.86 4.569-9.85 2.389-3.503 6.068-5.784 7.357-10.069.784-2.61.482-4.75 1.87-6.975.752-1.203 2.298-1.758 3.18-3.13 3.42-5.328-.709-8.89.267-14.065.85-4.493 5.773-6.51 5.808-12.559.017-3.117-2.316-6.477-1.5-9.578.683-2.602 3.46-4.913 4.516-7.648 1.49-3.86 1.7-7.45.07-11.21-.614-1.416-2.029-3.258-2.348-4.695-.307-1.382.39-2.518.894-4.038 1.44-4.343 1.653-9.46.232-13.787-.894-2.723-1.973-4.188-1.246-7.105.705-2.83 4.49-2.622 4.27-8.084-.196-6.285-3.52-8.679-4.065-11.061-.639-2.789 3.069-2.782 4.3-11.662 1.158-8.36-.868-12.688-3.324-16.052 3.207-10.937 2.917-16.319-4.36-25.132-2.625-10.614-10.851-14.163-20.975-6.756-10.014 7.325-14.427 16.854-11.795 27.545 1.36 5.518 1.883 7.451 1.294 13.16-.083.8-.238 15.667 4.45 12.378-3.702 2.597-4.27 6.721-4.873 11.035-.925 6.636 1.901 7.116 3.15 12.366.76 3.21-.195 4.026-.895 7.908-.97 5.365 1.645 9.478 1.801 13.518.11 2.892-2.006 5.069-2.606 8.388-.832 4.605 2.077 6.36 2.436 10.207.196 2.091-2.65 18.24-3.278 19.274-2.153 3.544-7.718 4.119-9.805 7.503-2.844 4.61.845 10.335-1.093 15.025-1.528 3.696-7.204 3.553-8.774 8.526-1.347 4.274.908 10.139.922 14.736-9.458-.15-17.475 7.143-19.118 16.624-.393 2.275-31.29-11.865-34.361-11.997-10.885-.465-19.308 6.312-24.463 15.513-5.543 9.893-4.832 16.402-2.26 25.371.896 3.127 1.103 2.49 3.4 5.661-2.208 7.672-2.05 9.454-1.194 18.437 1.69 6.74 4.125 13.054 9.565 18.218 1.578 3.46 1.64 7.138-.012 9.222" transform="translate(-314.157 40.848)"/><path fill="#537f24" d="M446.26 594.461a41 41 0 0 0-.107 1.57c-.155 3.27-4.577 7.006-.916 9.3 2.36 1.48 4.856-1.925 6.61-3.065 1.37 12.358-13.388 12.19-12.001 22.508 1.041 7.738 6.026 4.076 10.714 2.684 3.01 6.499-3.065 6.669-5.275 10.686-2.503 4.552-2.481 12.94 4.509 9.804-.04-.088.692 3.049.708 3.221-1.178-.036-4.8 1.565-7.311 1.573-2.48 3.695-3.897 10.18-3.42 14.546.683 6.273 7.711 8.354 11.565 1.805 1.15 11.384-10.13 6.064-13.937 13.584-5.19 10.256 5.483 14.157 13.617 12.598-1.638 2.92-3.109 4.766-5.635 6.296-3.827 2.32-1.987-2.447-5.537 2.57-3.698 5.227-4.415 18.6 5.301 14.6-2.372 6.192-7.429 1.761-11.741 3.104-1.055 2.89-.555 6.378-.596 9.638 4.028-2.16 8.215 2.07 12.936.105-2.303 5.897-7.761 6.44-12.595 5.782.842.79 1.208 2.115 1.901 2.96-2.855 1.808-7.991 11.264-1.987 10.135-.704.988-1.783 2.81-2.363 3.634-3.033 2.049-6.41 3.018-8.234 5.614-3.927-1.595-15.505 11.09-19.491 14.6 6.808-5.31 23.766-29.172 7.971-30.663-.053-.686-.205-1.152-.454-1.718 3.882 2.38 9.52-2.546 10.967-6.414-3.554-2.28-6.339-6.952-4.647-10.984 4.017 6.153 8.31-.152 6.706-4.97.121-.168 1.14-.745 1.13-.72-2.709-5.082-9.7-14.937-5.498-20.19 2.539 6.006 8.5 9.46 8.092 1.127-5.402-4.158-8.99-12.762-6.365-19.234 1.527 2.909 3.294 7.43 7.873 6.732-.676-5.122 3.898-10.543 1.596-14.482-.57.148-1.524.41-2.152.497-3.445-4.354-9.736-14.108-5.12-19.108 2.537 3.227 4.537 10.294 8.193 5.664 1.682-2.13.609-9.984-.73-12.053-7.373 4.889-10.25-10.27-8.064-15.11.755 2.085 3.446 4.389 5.745 2.244 1.1-1.026-.347-6.652.757-8.817-8.396-4.52-12.29-12.371-9.253-23.253-.13-.116 1.555-.033 1.524-.025-.138 1.687.723 3.059.875 4.527 8.386-4.98-11.068-11.584-1.598-19.853.702-.613 3.943-1.268 5.776-2.933 4.959-4.507 3.43-14.07 9.684-16.912 4.72-2.144 8.628.635 10.401 4.63 2.365 5.336.427 15.722-.124 22.166"/><path fill="#8cc63f" d="M428.447 591.055c1.128 8.165 2.834 24.638 3.286 34.819.659 14.809.2 30.77-.57 45.629-1.66 32.058-2.133 64.047-18.785 91.72 5.628-8.92 12.255-18.693 15.205-28.877 2.184-7.542 1.762-15.242 2.61-22.914 1.54-13.958 3.361-28.032 3.81-42.165.475-14.916.28-30.07.613-44.943.227-10.23-.554-24.678-5.57-33.363-1.485.285-.66 1.002-1.142 1.855"/><path fill="#f69161" stroke="#c0272d" d="M406.7 647.55c1.07-1.66 3.193-1.803 5.176-2.194 2.849-5.513 8.603-5.858 12.638-10.07 6.426-6.71 4.257-25.676-5.346-29.118-8.593-3.08-17.564 2.964-23.292 8.31-5.247 4.896-11.404 11.479-10.955 18.798-.08-1.311-.185-3.087-.593-4.274-1.937.568-3.87 2.107-6.123 2.266 2.462-.974 5.298-1.988 7.198-3.766 3.834-3.588 6.35-10.571 6.474-15.528.131-5.18-3.103-8.622-8.676-9.542-14.067-2.32-20.96 10.694-33.463 11.26-24.813-5.067-35.596 18.083-28.447 19.203 1.19-1.074 1.55-2.113 3.298-2.703 2.08-.7 4.463-.886 6.64-1.193 2.368-.333 5.017-.357 7.395-.121 2.967.298 5.702 1.432 8.632 1.903 2.288.367 4.512.543 6.79 1.06 1.838.418 6.18 2.294 7.632.537.744-.9 1.045-2.087 1.92-3.008 1.023-1.076 2.29-1.994 3.42-2.988 2.895-2.542 5.568-5.379 7.793-8.386 1.312-1.774 1.058-4.636.52-6.703.608 1.6.287 3.404 1.151 4.933.339-1.06 4.595-1.493 5.788-2.165-2.395.583-4.992 1.562-6.715 3.164-2.459 2.282-3.993 5.63-6.226 8.127-2.015 2.25-7.71 3.994-7.243 7.486.258 1.936 2.176 2.231 4.013 3.146 2.948 1.467 5.922 2.89 8.89 4.335 3.444 1.68 12.364 4.076 15.713 1.258 2.136-1.797 4.182-4.546 6.124-6.574 5.12-5.355 11.977-9.99 14.961-16.732-.452 2.4-3.524 5.954-4.818 8.44 2.462-1.983 4.752-3.414 8.083-3.9-7.285 1.67-10.565 5.13-15.204 9.966-2.237 2.33-4.137 4.896-6.287 7.257-1.158 1.277-2.72 2.356-3.702 3.779-.867 1.255-.663 2.106-.717 3.5-.086 2.278-1.357 3.685-2.08 5.811-1.38 4.057 2.38 6.09 5.9 7.463 1.98.77 4.046 1.389 5.953 2.31.753.363 2.093.865 2.653 1.425 1.085 1.082.49 2.45.858 3.748.427 1.513 1.74 2.849 2.138 4.449.395 1.59.453 3.37-.283 4.869-.732 1.49-2.462 2.243-3.047 3.704 4.414 3.34 14.82 5.842 17.942.288 1.013-1.801 1.087-3.961 1.202-5.93.156-2.66.387-5.414.14-8.088-.182-1.947-.603-3.883-.87-5.82-.195-1.422-1.137-3.785-.798-5.157.207-.843 1.638-1.887 2.243-2.631 1.348-1.66 2.465-3.452 3.982-5-2.62 2.184-5.75 5.602-5.552 8.994.216 3.708.445 7.476.662 11.207.303 5.21-.64 10.267-2.834 15.104-2.135 4.708-7.146 9.56-5.784 14.92.285-5 1.399-11.205 5.436-14.997-1.224 1.15-4.986 1.029-6.556.898-2.434-.202-4.47-1.01-6.54-2.13-3.874-2.092-6.576.185-8.09 3.66-1.052 2.418-.315 5.498-.11 8 .21 2.567-.63 5.13.652 7.487 1.204 2.214 3.3 4.251 4.27 6.508a37 37 0 0 0-2.06-3.136c-.46-.638-2.036-3.322-2.802-3.487-.746-.16-1.156.654-1.75 1.147a53 53 0 0 1-6.422 4.538c1.628-2.248 4.465-3.666 6.524-5.561 1.933-1.78 1.003-4.385.991-6.53-.018-3.083.61-6.631 1.338-9.643.868-3.585 5.414-4.742 7.1-7.892.75-1.402 1.528-3.865 1.286-5.436-.188-1.224-3.164-4.125-3.103-4.542.39-2.686-1.71-4.86-4.28-5.84-2.738-1.044-5.12-.378-7.517 1.09-4.604 2.82-6.767 7.979-9.33 12.246-.728 1.212-1.318 2.442-1.902 3.706-.46.998-1.922 2.792-1.833 3.894.057.692.91 1.572 1.278 2.175.76 1.243 1.482 2.476 1.944 3.831-.286-1.345-2.115-5.625-3.974-5.438 2.194-6.796 7.707-12.616 11.617-18.626.53-.815 1.062-1.739 1.712-2.452.299-.328 1.2-.784 1.333-1.165.42-1.22-1.77-1.614-2.454-2.175-.937-.767-1.562-2.09-1.795-3.192-.67-3.177 1.884-4.536 2.462-6.281.944-2.845-.16-4.919-2.966-6.237-1.43-.673-2.694-.809-4.127-.874-.924-.042-1.297.276-2.316-.083-2.612-.92-5.104-2.503-7.586-3.738-2.619-1.303-5.48-2.286-8.264-3.253-5.202-1.805-10.482-3.198-15.826-4.518-5.254-1.296-10.442-2.974-15.972-2.385-3.16.336-9.376 1.47-10.158 4.97-.304 1.365 1.593 2.78 1.99 4.072 1.205 3.923-2.737 7.034-5.27 9.636-2.698 2.769-5.423 5.594-6.852 9.123 1.179 1.62 3.832 1.645 5.748 1.92 3.294.468 6.15 2.127 9.22 3.356 6.336 2.531 13.794 5.752 18.654 10.368 1.715-3.06 3.98-5.647 6.96-7.853-5.404 6.136-8.9 8.27-4.112 15.891-.766-5.132-4.268-9.167-8.953-11.761-7.273-4.026-28.479-18.156-32.92-4.251 2.69-2.85 3.628-6.898 6.015-10.017 2.243-2.93 5.249-5.239 7.573-8.134 2.062-2.57 4.94-6.484 2.78-9.661-2.24-3.295-6.28-1.687-9.423-1.17-11.453 1.879-19.043-.881-29.573-4.374-9.235-3.064-16.48-2.118-22.187 4.515-2.402 2.792-5.557 4.729-5.844 8.018-.256 2.932.748 5.796.056 9.014-.824 3.836-1.931 7.518-2.298 11.422-.523 5.579 2.24 10.515 2.076 16.07-.112 3.803-2.294 7.819-1.63 11.574.343.098.656-.048.99.082 1.243 2.103-.062 4.163.86 6.611 1.686 4.47 6.672 12.272 11.905 13.852 3.466 1.047 10.685 2.02 13.785-.293 1.585-1.181 2.023-3.636 2.624-5.31 1.019-2.833 3.006-6.718 5.66-8.57 6.634-4.634 17.1-.495 22.79-6.59a40 40 0 0 0 1.842-2.162c-.997 1.349-2.385 2.83-2.891 4.37q.076.063.146.133c2.581-.414 5.643-.756 8.307-.582-1.658.738-4.273.352-6.18.664-1.396.229-2.676.346-4.072.471-2.22.202-4.248 1.18-6.423 1.432-1.718.2-3.532.115-5.285.308-3.775.415-7.69 1.174-10.308 3.925-1.34 1.408-1.637 4.795-2.454 6.51-.625 1.307-2.637 3.502-2.878 4.84-1.336 7.387 9.146 15.164 15.466 17.498 8.258 3.05 10.846-2.933 15.328-7.853 5.677-6.232 12.41-11.095 20.063-15.102 2.902-1.519 3.636-2.626 3.569-5.745.13 1.11.078 2.355.576 3.375 1.134-.326 2.482-.203 3.69-.387-4.71-.04-8.809 3.123-12.416 5.59-1.181.808-5.303 3.001-3.16 4.507 1.377.969 3.016.622 4.595.835 1.831.248 3.738.828 5.542 1.249 2.043.476 9.342 1.928 6.493 4.614 1.926-.549 4.179.033 6.062.345.999.167 2.332-.014 3.144.505-.075-.85.463-2.528.71-3.525.754-3.072 2.21-6.159 3.73-8.97.769-1.422 4.19-5.21 6.162-4.676-2.84.61-4.867 3.375-6.212 5.564 2.105-.413 3.964-1.523 6.047-1.957 1.624-.338 3.384-.26 4.993-.511a67 67 0 0 0-9.215 2.109c-1.444.437-1.895.532-2.57 1.758-1.3 2.372-1.642 4.828-2.671 7.24-.355.835-.916 1.805-.712 2.757.683 3.185 4.929 4.313 7.733 5.444 4.123 1.663 5.928 4.437 8.815 7.474 2.196 2.312 3.83 5.58 7.357 6.42 3.576.851 6.726-1.451 9.95-2.37-2.422 1.124-5.816.904-7.725 2.778-2.231 2.19-4.021 7.23-3.214 10.077.382-2.469 2.784-8.102.99-10.142-.863-.98-3.085-1.638-4.189-2.638-3.889-3.526-5.737-8.783-10.98-10.967-1.896-.79-4.015-.866-5.872-1.658-2.378-1.012-2.475-3.921-5.155-4.617-.942-.245-8.282-.301-8.406-.043.283-.587.882-.992 1.588-1.12-.356-.876-1.747-1.665-2.731-2.098-4.721-2.078-13.013-3.736-18.168-2.259-3.243.93-5.786 3.1-7.77 5.554-1.92 2.374-3.894 5.101-5.356 7.733-.873 1.572-.233 2.979 1.231 3.971 1.427.968 3.582 1.97 5.198 2.65 4.345 1.825 9.216.662 13.806 1.068 2.44.218 4.57-.015 6.724 1.223 2.277 1.31 3.747 3.62 5.39 5.443-1.887-2.968-8.596-6.473-12.49-6.871-4.842-.495-9.303.36-14.117-1.106-3.62-1.1-12.859-6.378-16.07-2.099-.9 1.199-.987 4.618-1.378 6.09-.698 2.625-2.19 5.953-1.651 8.654.944 4.724 8.225 8.967 12.544 11.16 2.112 1.072 4.227 1.358 6.502 1.918 2.046.505 4.082.945 6.207 1.12 2.92.242 5.892.1 8.82.235 2.363.108 4.684.48 7.041.6 2.99.152 6.128.349 9.108.297 1.076-.02 2.042-.445 3.089-.623 1.316-.223 2.6-.192 3.927-.08-1.782.255-4.49-.093-6.067.702 1.465.871 2.633 2.12 4.097 2.976-1.155-.794-2.167-1.732-3.469-2.363-1.013-.49-1.896-.445-3.01-.513-4.019-.243-8.05-.771-12.087-.898a116 116 0 0 1-13.378-1.2c-8.948-1.318-18.915-4.232-23.166-12.326-2.176-4.146 1.379-9.114 1.911-13.272.672-5.266-4.72-9.37-10.06-10.265-2.263-.38-7.683-5.121-9.963-4.392-2.126.68-4.932 1.713-6.694 2.965-1.828 1.298-3.67 3.042-4.963 4.895-3.446 4.938-2.76 3.167 3.094 3.794 4.354-1.06 12.975 5.19 14.62 3.653-.744 2.243-.528 3.428-2.62 4.85-1.885 1.28-1.95 1.39-2.688 3.374-1.48 3.976-.546 6.4-.66 10.745-.093 3.475 4.08 5.824 6.955 8.152.932 1.23 3.767 1.61 6.204 1.19 2.752 4.748 9.263 9.368 15.442 11.874 6.12 2.485 13.344 2.284 19.84 1.383 4.932-.683 9-.55 13.873-.253 5.85.358 10.431.43 16.095-.927 4.2-1.007 10.229-2.025 10.776-7.01.347-3.167.456-7.775-1.594-10.431-1.71-2.214-4.832-3.416-6.476-5.637-1.008.954-2.27.351-3.711.677-1.66.375-2.952 1.35-4.72 1.45-5.298.303-11.147-1.33-16.028-3.086-3.651-1.312-7.454-1.52-11.051-3.034-2.48-1.046-5.17-2.801-7.7-3.569-2.681-.813-5.397.187-8.017.689 1.449.047 2.857-.688 4.345-.76-.592-1.073-1.345-2.309-1.562-3.47.814 4.364 5.822 3.849 9.26 5.306 1.073.454 1.999 1.088 3.04 1.596 1.951.952 4.174 1.333 6.31 1.801 2.022.443 4.089.733 6.076 1.302 1.772.505 3.354 1.402 5.065 2.054 2.262.864 4.484.932 6.931 1.052 2.377.116 4.353-.335 6.653-.773 1.876-.356 4.12-.745 4.83-2.587.789-2.053.178-4.606-.695-6.54-2.37-5.247-6.85-12.378-12.875-14.608-1.572-.582-2.319-1.218-3.646-2.083-1.589-1.038-1.68-.854-3.813-.964-1.423-.072-2.74-.4-4.146-.435-1.66-.039-3.16.369-4.831.415 2.039-1.277 4.923-1.09 7.042-.475-.983-.985-1.43-2.373-2.385-3.412.557 1.053 1.814 3.137 2.957 3.72.963.493 2.442.054 3.478.31 2.146.53 3.585 2.384 5.704 3.211 2.654 1.037 5.902 2.577 7.748 4.764 1.818 2.153 2.609 5.252 3.599 7.793.882 2.265 2.056 4.445 2.184 6.874.105 1.997.58 3.34 2.234 4.825 2.731 2.453 6.7 4.029 10.367 4.927 3.389.83 6.717 1.314 10.186 1.167 3.398-.145 4.295-.08 6.456-2.268 5.844-5.92 9.19-11.612 10.82-19.668.407-2.004-.641-4.348-2.086-6.013-1.926-2.222-5.848-2.003-8.356-3.333-.006-.015.104-.264.09-.345-6.93-2.44-13.54-4.02-14.211-11.713-.302-3.452.968-6.69 2.744-9.681 4.281-7.203-3.942-9.074-9.04-11.754-1.455-.766-3.582-2.457-5.364-2.51-2.974-.084-5.156 2.538-7.991 2.812-3.193.308-7.267-1.028-10.322-1.765-2.325-.563-4.358-1.07-6.324-2.194-2-1.142-3.573-1.912-5.922-.82-2.993 1.39-3.255 5.182-6.516 7.197-3.148 1.946-6.857 3.257-10.163 4.92-3.549 1.785-11.106 4.555-12.4 8.415-.912 2.715-.846 6.788.478 9.342-1.441-3.668-.277-7.055-.503-10.632-.1-1.572-.536-1.62-2.018-2.26-2.89-1.25-5.812-1.72-7.87-4.219 1.572 2.15 6.349 4.321 9.18 4.783 1.646.268 4.838-1.54 6.435-2.112 3.546-1.271 6.732-3.429 10.032-5.138 3.638-1.883 7.694-3.04 9.724-6.65 1.131-2.012 2.673-3.547 1.907-5.9-.634-1.95-2.609-3.759-4.349-4.917-1.955-1.3-4.181-2.326-6.475-3.021-1.778-.54-3.671-.685-5.442-1.239-1.566-.49-2.926-1.328-4.521-1.791-3.267-.949-6.84-.878-10.223-.662-1.595.1-3.235.07-4.789.479-1.498.395-3.035.916-4.501.396-3.07-1.085-4.45-4.908-4.638-7.569-.273-3.826 1.249-6.859 2.317-10.412.71-2.364 1.498-4.707 1.368-7.182-.091-1.739-.397-1.816-2.323-2.078-1.69-.23-3.42-.346-5.125-.155-4.452.498-6.773 4.543-8.048 8.023-1.636 4.472-2.943 8.64-3.507 13.33-.45 3.726-.536 7.073.254 10.731.727 3.355.533 6.376 5.051 5.805-.885-.215-1.987.33-3.006.123 1.086 2.936 2.913 5.96 4.587 8.654-3.703-4.401-6.66-10.322-7.468-15.852-.613-4.195.265-9.66 1.606-13.735 1.72-5.22 1.38-12.476 7.261-15.65.402-.555 1.463-1.198 2.32-1.418-7.094.785-15.413-1.279-16.664-8.587 1.133 3.278 5.02 7.262 8.76 8.35 2.13.62 4.661.047 6.867.253 1.471.139 2.665.088 4.2.064 2.839-.045 5.649.338 8.378-.408 3.74-1.023 7.928-3.001 11.277-4.804-3.983 1.458-7.638 3.719-11.522 5.368-1.67.709-2.233.911-2.718 2.517-.593 1.956-.634 4-1.007 5.99-.363 1.931-1.313 3.59-1.854 5.471-1.092 3.808-1.255 8.082 1.615 11.28 3.098 3.45 8.124.31 12.721.1 5.994-.277 9.885 2.076 15.087 3.862 3.185 1.095 7.256 1.543 10.052 3.432 2.643 1.784 3.718 4.483 6.91 5.934 6.53 2.97 14.6 6.068 21.991 5.56 7.544-.514 9.464-7.513 10.63-13.247.683-3.357.96-6.762 1.348-10.152.359-3.144 1.5-6.014 1.707-9.173.521-7.92-5.257-8.545-12.76-10.771-3.73-1.105-9.813-3.893-13.682-3.746-2.281.086-6.126 2.172-8.63 2.629a76 76 0 0 1 7.936-3.093c-5.19-1.529-4.139-4.421-7.323-7.762 3.72 10.763 22.34 8.752 30.34 14.09 7.598 5.069 3.928 12.341 2.937 20.401-.524 4.259-1.286 8.905-2.753 12.993-1.375 3.833-2.454 4.181.748 6.734 1.619 1.29 3.967 1.406 5.877 2.263 3.7 1.66 8.334 4.64 7.003 9.095-.854 2.864-2.496 5.457-3.053 8.503-1.41 7.717 5.437 13.538 13.116 15.19 3.669.787 8.17 1.476 11.827.236 5.211-1.77 4.777-5.82 7.944-9.255-1.736-1.167-2.594-3.19-2.546-5.215-.189 8.035 16.48-1.89 19.076-3.523 6.275-3.948 6.969-9.888 10.253-15.735 2.79-4.967.467-6.737-.643-12.323-1.172-5.91 1.652-11.596 2.484-17.385 1.156-8.045 2.385-26.265-9.597-27.926-3.766-.523-8.251 1.184-10.918 3.844-1.519 1.515-2.044 3.459-4.021 4.57-2.932 1.65-6.324-.305-9.081 1.515 2.918-.583 5.865-1.069 8.782-1.665"/><path stroke="#c0272d" d="M588.777 685.897c.707-.146-2.897 2.79-6.232 4.325-3.666 1.686-7.362.273-7.993.877-.562.539 2.373-3.532 5.89-4.666 3.413-1.1 7.14-.29 8.335-.536z" color="#000" overflow="visible" style="isolation:auto;mix-blend-mode:normal;solid-color:#000;solid-opacity:1;marker:none" transform="translate(-314.157 40.848)"/><path fill="#6c9d31" stroke="#6c5635" stroke-width=".576" d="M243.943 769.791q1.475 1.051 3.153 1.903c5.114 2.59 10.144 3.43 15.921 3.15 3.297-.16 9.259-3.297 10.996-4.073 0 0 2.013 2.095 2.492 3.443 2.464 3.959 6.241 6.488 8.902 10.306.53.761 3.032-.133 2.595-2.195-3.751-5.278-6.944-6.142-9.181-10.545-.792-1.82-1.38-2.657-1.868-3.729 1.838-1.777 4.834-5.885 6.06-8.748 2.05-4.787 4.251-9.96 4.84-15.219-.668-8.399-3.614-17.3-7.915-17.519-3.519-.045-6.02.23-6.02.23.77-2.906 1.26-7.324.603-10.169-.028-3.386-2.57-8.047-9.96-7.166 1.589-1.248 1.553-4.439 1.553-4.439-2.46-6.894-7.052-9.906-10.08-10.73-1.93-.41-4.075 2.075-5.519 3.008 3.287-2.12 3.109-3.5 3.608-7.733.303-2.57-.572-9.566-3.473-10.542 1.48-2.178 5.68-8.23 1.38-10.009 1.537-2.346 4.292-11.17 1.46-13.414 2.019-3.521 3.674-7.361 2.976-11.468-.303-1.79-.614-3.246-.482-5.108.024-.343-.036-4.851.154-4.655-1.7-1.737-2.571-3.908-4.486-5.582 7.036 6.153 4.332 10.237 12.55 10.976-.597 8.598 16.634 15.931 21.05 14.259.624-.166.66-.815 1.49-.82 1.233-.01 3.253 1.613 4.38 2.081 2.971 1.234 9.153 3.562 11.98.99 4.133 6.105 14.842 5.867 19.914 1.162 1.553 1.18 13.05-.83 12.233-3.81 4.37 3.413 13.955-2.246 13.92-3.374 2.328 3.972 20.262-2.555 20.827-6.897 3.25.175 15.69-1.547 13.543-7.219 2.76 1.497 7.546-1.553 11.044-3.349 3.465-1.779 2.206-4.11 3.326-4.815 1.47-.925 7.432.38 9.206-.315 4.264-1.672 5.206-1.197 7.086-4.601 3.583-6.22 2.422-5.703 7.744-8.663 2.148-1.194 2.458-7.977 5.63-8.398 7.244-.96 10.168-7.834 9.996-14.644 16.033 6.994 14.229-17.078 4.574-23.334-7.747-5.705-29.442 11.214-34.513 22.58-3.622-1.135-5.256-.947-8.68.624-4.088 1.85-4.917 4.26-5.116 6.182-1.994-4.38-11.533 5.31-14.443 10.102-3.272-1.698-7.991-3.179-11.474-1.507-2.87 1.376-8.15 4.755-7.158 8.588-.821-.287-1.48-1.08-2.22-1.323-1.967-.644-7.909-2.16-9.792-1.572-2.578.803-10.39 2.6-9.033 6.416-1.742-2.006-7.367-3.209-11.573-1.07-4.093 2.081-5.933 5.022-5.229 5.52-.05.093-.169.408-.2.524-1.786-1.2-3.148-3.123-7.34-1.948-2.858.8-6.292-3.314-7.168.05-3.513-3.676-10.3-8.463-15.147-3.144-2.827-4.74-9.632-6.715-13.985-4.912.852-3.035-4.424-9.568-6.466-12.578-1.733-2.554-2.265-5.877-5.398-7.256-3.024-1.33-10.585-.272-12.127 3.001-1.037-1.442-6.028-2.868-7.959-3.178-3.729-.602-7.696 1.02-10.585 3.298-3.241 2.554-5.409 5.33-6.503 9.446-.598 2.246-1.794 5.864-.642 8-2.985.97-5.025 4.403-5.77 7.328-.445 1.74.003 3.825-.44 5.44-.28 1.018-.371.827-1.142 1.801-2.372 3-4.301 4.763-4.433 8.987-.05 1.608.732 3.832.47 5.307-.378 2.118-2.34 3.598-2.598 6.01-.174 1.626.32 2.905.47 4.515.122 1.312.22 2.88-.133 3.955-.285.87-1.214 1.582-1.493 2.498-1.069 3.511-1.61 9.632 2.567 13.208-5.405 1.532-3.497 5.309-1.93 8.821-4.142.543-4.574 9.291-3.977 12.286.765 3.834 3.46 6.385 9.25 7.576-8.761-.353-6.323 10.256-4.588 16.146.762 2.582 2.025 5.516 4.448 7.115 5.88 3.443 8.733-1.865 8.238.242-2.255 2.988-4.183 7.476-2.296 11.305.773 1.568 2.892 5.175 4.842 5.2.709 10.58 4.225 21.905 13.064 28.191z" opacity=".8"/><path fill="#537f24" d="M231.832 742.106c8.17 2 9.79-5.274 15.36-8.815.507.242 1.04 1.145 1.444 1.554.54-.207.835-.995 1.426-1.032 5.218 8.826 7.51 4.441 9.689-.888-6.169 5.67-18.68-12.732-12.468-16.655 5.116-1.24 13.823-3.245 17.693-8.684-10.16 9.564-25.497 2.186-24.433-9.111 6.581 1.47 9.82-2.884 11.472-9.277-9.251 13.152-20.182-.593-15.033-11.184 4.218 2.751 10.933.847 13.586-3.371-10.184 5.013-15.163.667-13.62-9.909 1.888 1.332 3.715 1.107 6.108.881-7.199-2.712-5.602-12.13-3.51-17.837 3.015 1.123 5.197 3.105 8.27 1.984-3.548-1.967-6.687-4.92-5.537-9.467 1.64-1.327 2.048-4.68 3.758-5.623 3.002-1.655 5.55 1.512 7.878-1.675-2.354-4.016-6.978-6.649-10.294-9.946-2.892-2.876-4.775-5.955-7.55-8.995.889 8.68.256 17.326-9.989 9.492.135 5.221 7.645 6.842 11.906 7.304-1.674 7.116-4.61 13.876-13.81 10.124 2.885 3.202 7.088 3.486 11.133 3.36.336 7.297-5.542 14.128-12.744 13.814 2.924 1.385 7.313 2.423 10.113-.23.009.675-.16 1.393-.368 2.084q.366.046.496-.292c-1.26 6.244.259 14.223-8.76 13.464 2.186 1.227 4.742 1.375 7.144.576 1.329 9.328-.046 11.274-9.39 8.195 2.651 2.343 7.11 3.034 10.692 3.34-1.201 8.233 3.484 19.611-9.701 16.419 3.233 2.06 6.966 1.485 10.22.251 2.666 4.653 6.15 9.4 6.256 15.023-5.029 2.041-12.715 9.706-18.368 7.92 4.772 3.56 17.02-5.683 20.307-3.703 1.092.658 4.427 8.2 3.865 9.542-2.925 6.969-9.547 11.9-14.297 9.952.467 4.159.084 4.051 1.26 6.408-.66-2.502-.083-2.86-.204-4.993" opacity=".8"/><path fill="#537f24" d="M425.502 579.972c5.56.573 17.785 11.577 18.17-1.863-.145 5.106 1.384 15.379-7.522 11.96.443 10.167-4.205 13.254-10.636 15.593-2.532.921-2.42 6.189-4.466 7.422-2.956 1.783-4.543 8.572-7.761 10.517-4.555 2.752-9.253 10.299-14.473 9.572-.39 6.923-9.856 6.555-15.234 2.762 1.715 4.878-7.861 7.426-13.35 7.098.33 3.137-17.101 11.762-20.632 7.003-2.995 2.782-10.255 6.07-14.542 3.14.788 4.85-11.559 4.373-11.559 4.373-15.971 7.207-13.948 1.631-20.72-1.47-2.253.754-6.896 1.677-12.284-1.404-2.463-.75-1.781-1.689-4.546-1.639-8.36 1.085-23.248-3.98-20.402-13.968-3.663 1.165-4.13-4.121-7.794-5.346-2.173-.724-8.638-7.101-9.453-7.12 5.004.12 9.224-6.155 13.436-8.137-1.954 2.467-4.652 5.032-5.48 7.836 2.374.562 2.13 2.249 4.4 3.34 1.66 2.495 4.485 5.329 6.931 6.091 1.114 11.752 10.86 7.995 15.916-1.14-.904 2.69-6.878 10.544-6.177 12.269 2.351 5.79 10.06.6 12.276-1.015 5.062 8.929 10.325 1.51 10.868-5.51.807-10.47-7.99-11.686-16.053-13.689.127 1.39-.316 3.015-.009 4.424-7.113-2.43-21.78-18.081-20.994-21.66-.014 2.165-.598 4.346-.748 6.282.33-2.223-1.444-5.36-4.403-6.426.208-4.095-3.598-8.814-5.723-12.6 2.083 1.455 4.129 3.254 5.886 5.087-.43-.93-.529-2.072-.87-2.997 2.723 3.158 9.876 8.617 13.55 4.814-.298 1.071.063 2.558-.328 3.772 3.954 3.758 7.2 16.54 7.405 11.672 2.295 1.586 17.404 11.777 15.388 2.67 1.382 6.226 13.733 11.124 17.828 10.142-.557-1.372-.982-6.228-2.106-7.576 3.892 4.893 16.938 8.372 13.293-1.603 1.341 1.115 2.717 1.625 3.395 3.217-.362.667-.843.76-1.292 1.304 3.029 2.025 7.995 2.619 11.897 2.308-3.437 1.36-7.07 2.065-10.829.544a177 177 0 0 0 2.912 6.1c-3.465-7.143-8.304-3.583-14.015-2.37.928 1.68 1.364 3.308 2.678 4.872-3.562-3.816-4.328-1.532-8.92-2.21-2.837-.419-4.849-4-8.035-5.362 1.576 2.787 6.016 8.748 1.278 9.974.483 2.45.261 4.886-.26 7.482 2.896 4.422 18.892 8.876 19.562 3.564 2.8 1.822 7.642-.527 9.76-2.107.002-.954.29-1.802.447-2.623 6.733 3.586 14.638.873 16.53-5.277 2.13 2.556 15.026 2.595 17.388-1.004 2.404-3.663-3.067-13.617-6.128-15.382-3.88-3.374-9.645 3.672-18.484-5.67 5.265 3.804 29.37 5.222 21.03-5.209 1.465 1.995 2.258 4.138 4.33 5.55 5.164-2.531 15.982-4.32 13.912-12.205.01 1.921.534 4.553 1.196 6.204 2.309-1.205 4.141 3.51 6.55 2.35-5.569 3.977-12.324 1.693-17.782 5.572 1.274.847 2.37 2.22 3.654 2.92-5.903-3.627-8.627-2.845-13.993.732 3.906-2.603 6.704 8.62 8.712 9.997 3.054 2.091 14.874 1.589 9.714-3.473-.306-1.106-.154-2.825-.37-3.879 5.922.207 12.56 11.315 16.513 2.784q.447.388.91.754c.511-2.642-.055-5.127-1.781-7.148 5.425 5.864 10.594-.55 9.317-11.31 4.013 11.64 15.684 9.148 16.741 1.336.443-.186.585-7.554 1.407-7.865 6.641-5.177 23.677-17.378 4.993-25.841-7.144-2.754-4.578 16.496-10.644 19.94 1.138 2.114 1.882 4.396 2.05 6.816-3.887-9.324-11.547-7.82-17.567-3.864.55 1.352.735 3.352 1.298 4.505-1.336-2.557-2.239-2.878-4.454-4.284 4.197-2.086 19.454-5.73 9.514-11.245-5.083-2.82-11.344.238-10.186 5.998-3.392-6.208 2.037-6.516 6.5-9 4.428.41 6.488 4.016 7.59-1.844 3.402-1.576 9.585-10.75 13.654-9.103-4.743.835-16.105 11.033-13.642 16.67" opacity=".8"/><path fill="#8cc63f" d="M254.068 598.375c1.257.735 3.284.995 4.638 1.447-.215-1.426.307-1.389.363-2.066 3.056 11.235 19.599 25.122 28.116 27.195 18.445 4.489 49.1 6.873 66.788-.175 24.984-9.953 60.415-17.801 68.725-42.585 1.478-4.936 3.364-7.958 6.432-12.129.307-.131-1.154 3.843-1.723 4.576-1.053 2.604-1.808 4.437-2.82 7.373.402 17.612-44.402 36.615-69.698 44.897-17.937 5.873-50.301 7.45-68.979.461-8.369-3.132-17.176-10.046-21.398-14.316-4.91-4.966-4.093-8.997-9.307-14.695M239.616 621.392c.38 9.513-3.24 18.92-4.694 28.239-2.728 17.497-3.644 33.675-.836 51.232 1.266 10.07 5.743 24.232 16.646 33.986 4.92 4.402 11.424 8.114 15.139 13.902 4.259 6.634 7.433 16.786 8.27 21.759.558-.856 2.422-2.01 2.3-3.04-.707-5.928-4.794-14.582-9.31-21.646-3.242-5.07-9.292-8.708-13.894-13.434-8.968-9.208-14.09-21.72-15.728-30.617-4.427-24.042-3.801-50.625 7.45-72.812 1.62.372 3.244.013 4.82 1.093-5.163-3.741-9.405-6.616-11.813-12.667.451 2.266.948 5.144 1.703 7.51" opacity=".8"/><path fill="#537f24" d="M546.417 708.138c16.16 27.342 28.432 23.885 38.453 17.103.403-.272.357-4.749-1.353-10.556.844.866 3.748 9.394 3.662 9.06l.98 5.951c-9.46 6.646-18.433 5.048-27.252.815-8.583-5.41-12.986-13.101-14.49-22.373M597.71 712.078l3.927-12.295c1.005 8.418-3.468 20.554-10.587 27.237l-4.27-12.551 5.145 8.098z" color="#000" opacity=".8" overflow="visible" style="isolation:auto;mix-blend-mode:normal;solid-color:#000;solid-opacity:1;marker:none" transform="translate(-314.157 40.848)"/><path fill="none" stroke="#00f" stroke-dasharray="1 1" d="M291.7 739c-1.424-20.427-18.551-14.901-24.301-10.39-4.064 3.189-11.66-4.2-12.824-6.095"/><path fill="#00f" stroke="#00f" d="m229.126 688.779-1.743-4.37 3.717 2.485z" color="#000" opacity=".8" overflow="visible" style="isolation:auto;mix-blend-mode:normal;solid-color:#000;solid-opacity:1;marker:none" transform="translate(26.27 36.67)"/><g color="#000"><path fill="#ffc20e" stroke="#000" stroke-width=".3" d="M382.92 248.277c-1.27 2.736-2.871 3.682-2.36 6.991.758 4.894 7.168 5.221 9.97 5.596 3.826.512 9.766 1.017 12.239-4 2.7-5.483 1.431-11.485-3.526-12.188-4.053-.573-7.171.83-11.196.79-1.646-.017-3.283.232-5.128 2.811z" opacity=".507" style="isolation:auto;mix-blend-mode:normal;solid-color:#000;solid-opacity:1" transform="translate(-89.394 -29.198)"/><path fill="#faa41a" d="M386.47 254.789c-.236-.334-.3-.968-.125-2.02-.447-.082-2.4-.05-2.645.488.462-1.018-1.306-2.488-1.157-3.624.076-.586-1.484 2.223-1.724 2.905-.27.767-.123 3.086.114 3.984.586 2.215 2.844 2.49 4.338 3.024 3.465 1.241 9.557 2.268 13.03.784 2.849-.543 4.723-2.318 5.152-6.48.632-3.207-.031-9.109-3.177-8.19 1.02 1.069.9 2.826-.264 4.22 1.565.589 1.276 5.19-.61 3.61-.677 1.35-.585.813-1.284 1.43-.094.377-.383 1.243-.56 1.57-2.152 1.004-5.138-2.04-6.885-1.078.232-.129.751-.778 1.232-.95 1.122 1.19 1.91-.724 1.998-2.037-1.507-1.022-6.334 3.922-7.433 2.364" opacity=".5" style="isolation:auto;mix-blend-mode:normal;solid-color:#000;solid-opacity:1" transform="translate(-89.394 -29.198)"/><path fill="#ffc20e" stroke="#000" stroke-width=".249" d="M381.193 250.492c-5.92-2.527-8.522-5.637-14.096-9.756-2.519-1.86-6.125-5.814-6.094-6.115-.28.126-.569.328-1.081.334 1.375 1.683 2.227 3.188 4.44 4.882l10.14 7.762c1.378 1.172 4.946 3.298 6.185 3.948" opacity=".507" style="isolation:auto;mix-blend-mode:normal;solid-color:#000;solid-opacity:1" transform="translate(-89.394 -29.198)"/></g><path fill="#ffc20e" stroke="#000" stroke-width=".3" d="M382.772 235.186c-6.367-.143-13.9 1.376-19.358 1.98-3.664.404-7.089 1.073-12.07 2.433.629.321 2.174-.583 2.207 2.137 4.257-1.238 3.813-1.66 12.886-2.992 4.036-.592 12.818-2.186 16.575-1.535" opacity=".507" transform="matrix(.9997 0 0 1.1234 -71.343 -88.218)"/><path fill="#faa41a" d="M321.81 190.509c-.688.37-1.71.847-2.57.999.157.15.592.613.802.86-2.279.016-3.217 2.874-.93 3.748.016.383-.326.568-.15.967 1.278.702 2.495.252 3.5-.914-.014.131.304 1.092.34 1.271-1.489.413-1.576.391-.901 2.004-1.765.739-3.136 2.97-1.782 4.766.337-.435 1.206-.894 1.636-1.505-.076.725.154 1.06.174 1.423 2.29-1.994 3.229-5.008 4.467-7.674-.288-.312-.556-.131-.784-.296.836-.69.613-1.19 1.098-2.063-.646-.382-.961-.59-1.689-.699-.02-.036.453-.638.418-.905-.348-.172-.738.063-1.017-.295.472-1.353 1.383-2.338 2.512-3.082.072-.06-.81.018-.788.023.8-.273 1.442-.845 2.062-2.145 1.172 1.457 2.394 1.486 2.393-.844 1.607.216.506.174 1.889-1.024 1.37-.124 1.7-.728 1.147-2.432-.306-.11-.532.205-.652.179.002.002.4-.694.308-.913-.436-.143-.896-.162-1.362-.286 4.205 1.114 2.533-6.646 2.06-8.058-.557-1.66-.648-1.552-2.2-2.844-1.327-1.104-3.665-5.302-5.18-5.46 4.886.683 10.312 7.718 10.566 12.736.583 6.448-.748 10.82-2.754 14.781-.157-.326-.826-1.526-1.008-1.871-.308-.197-.482.443-.633.347-.113-.109-.268-.693-.395-.88-.878.777-1.09.54-1.273 1.686-1.207.66-.909.823-1.304 1.954.886-.12 1.951.31 2.836.035-.839.6 1.08 1.546.633 2.154-.133 3.84-7.154 9.792-8.834 11.266-2.792 2.497-12.364 12.164-12.654.787.183.403.879 1.085 1.188 1.526-.416-.594 3.26-.951 3.414-.951-.097-1.835-1.434-4.33-3.352-3.266.24-2.302 1.883-3.44-1.156-4.76.037-1.62.37-6.826.309-9.551-.336-5.977-1.146-15.486-.784-17.042 1.988 2.72 1.004 3.558 2.997 2.065-.188-.038-.646.001-.788-.091.786.042 1.814.525 2.575.766-.85 1.003-1.171 2.724-.246 4.203-.195-.281-.639-.708-.786-.906-.974 1.84-.333 3.89 1.395 4.79.008-.015.55-.587.606-.64-2.25 2.032 2.127 3.099 3.145 2.761a5.96 5.96 0 0 0 1.502 3.3" opacity=".5"/><path fill="#ffc20e" stroke="#000" stroke-width=".3" d="M383.298 255.13c-.295 3.39-2.319 11.65 2.256 13.259 3.273 1.15 7.734-2.624 10.002-4.555 2.973-2.533 6.38-4.806 8.37-8.264 1.753-3.05 2.42-6.211 3.791-9.357 2.251-5.161 2.023-12.98-4.096-17.834-3.85-3.056-6.016-4.017-11.032-3.35-3.002.4-6.29 1.497-8.697 3.382-.797.624-1.19 4.663-1.12 6.149.305 6.98 1.02 14.296.526 20.57z" opacity=".507" transform="matrix(.9997 0 0 1.1234 -71.343 -88.218)"/><g color="#000"><path fill="#ffc20e" stroke="#000" stroke-width=".273" d="M369.176 256.383c.178-.326 3.185-1.68 3.99-1.633 3.408-.044 6.223 1.743 9.534 2.352 2.894.51 9.984-.25 12.819 1.322 3.552 1.97-.487 6.094-1.08 6.828-1.834 2.273-25.436 2.755-26.383 1.883-1.045-.478-1.185-8.743 1.12-10.752z" opacity=".507" style="isolation:auto;mix-blend-mode:normal;solid-color:#000;solid-opacity:1" transform="translate(-100.24 -48.387)"/><path fill="#faa41a" d="M369.819 265.745c.603.35 3.714.788 4.984.617.374-.05 2.125-3.035 1.214-.073 1.42-.083 3.122.18 4.869.127-.516-.634-.566-2.163-.315-1.671.422.826 1.198 1.177 1.69 1.586 1.133.752 3.545-.716 3.922-1.671.184-.015-.606 1.389-.424 1.373 4.835-.698 9.361-1.771 11.106-4.29.4-.577-1.92 3.268-2.428 3.615-1.61 1.81-24.3 3.379-26.42 2.002-.527-.992-.96-1.416-1.064-1.793-.179-.664.54-6.22.906-6.336-.378 5.046.85 5.618 1.96 6.514" opacity=".5" style="isolation:auto;mix-blend-mode:normal;solid-color:#000;solid-opacity:1" transform="translate(-100.24 -48.387)"/><path fill="#ffc20e" stroke="#000" stroke-width=".273" d="m373.574 254.7 1.538-4.494.818.186-1.585 4.421M377.007 255.508l1.394-4.291.819.186-1.381 4.227M381.324 256.744l.795-4.454.819.186-.843 4.381M385.008 257.243l.357-4.37.818.186-.404 4.297M388.724 257.22l.282-4.232.818.187-.193 4.03M392.532 257.565l.107-4.332.818.186.02 4.36" opacity=".507" style="isolation:auto;mix-blend-mode:normal;solid-color:#000;solid-opacity:1" transform="translate(-100.24 -48.387)"/></g><path fill="#bee7fb" d="M146.365 174.894h91.599v34.853h-91.599z"/><text x="39.689" y=".313" fill="#c0272d" font-family="Arial" font-size="18" font-weight="400" style="line-height:0%;text-align:start" transform="translate(34.776 53.682)">Salivary Glands</text><text x="39.263" y="20.612" fill="#f26522" font-family="Arial" font-size="16" font-weight="400" style="line-height:0%;text-align:start" transform="translate(34.776 53.682)">Parotid</text><text x="39.779" y="59.012" fill="#f26522" font-family="Arial" font-size="16" font-weight="400" style="line-height:0%;text-align:start" transform="translate(34.776 53.682)">Sublingual</text><text x="39.779" y="39.813" fill="#f26522" font-family="Arial" font-size="16" font-weight="400" style="line-height:0%;text-align:start" transform="translate(34.776 53.682)">Submandibular</text><text x="357.56" y="300.533" fill="#f26522" font-family="Myriad-Roman" font-size="18" style="line-height:0%" transform="translate(34.776 53.682)">Esophagus</text><text x="423.624" y="152.654" fill="#ed1c24" font-family="Arial" font-size="18" font-weight="400" style="line-height:0%;text-align:start" transform="translate(34.776 53.682)">Tongue</text><text x="422.657" y="129.823" fill="#00adef" font-family="Arial" font-size="18" font-weight="400" style="line-height:0%;text-align:start" transform="translate(34.776 53.682)">Pharynx</text><text x="5.127" y="414.699" fill="#c0272d" font-family="Myriad-Roman" font-size="18" style="line-height:0%" transform="translate(34.776 53.682)">Liver</text><text x="5.487" y="442.867" fill="#006e3a" font-family="Myriad-Roman" font-size="18" style="line-height:0%" transform="translate(34.776 53.682)">Gallbladder</text><text x="471.193" y="470.009" fill="#f26522" font-family="Arial" font-size="18" font-weight="400" style="line-height:0%;text-align:start" transform="translate(34.776 53.682)">Stomach</text><text x="224.64" y="361.76" fill="#0071bc" font-family="Arial" font-size="18" font-weight="400" style="line-height:0%;text-align:start" transform="translate(34.776 53.682)">Pancreas</text><text x="5.056" y="473.597" fill="#f26522" font-family="Myriad-Roman" font-size="18" style="line-height:0%" transform="translate(34.776 53.682)">Duodenum</text><text x="8.034" y="596.413" fill="#006e3a" font-family="Arial" font-size="16" font-weight="400" style="line-height:0%;text-align:start" transform="translate(34.776 53.682)">Transverse colon</text><text x="8.432" y="623.012" fill="#006e3a" font-family="Arial" font-size="16" font-weight="400" style="line-height:0%;text-align:start" transform="translate(34.776 53.682)">Ascending colon</text><text x="68.047" y="705.17" fill="#006e3a" font-family="Arial" font-size="18" font-weight="400" style="line-height:0%;text-align:start" transform="translate(34.776 53.682)">Cecum</text><text x="52.547" y="742.66" fill="#006e3a" font-family="Arial" font-size="18" font-weight="400" style="line-height:0%;text-align:start" transform="translate(34.776 53.682)">Appendix</text><text x="317.248" y="798.643" fill="#2e3192" font-family="Myriad-Roman" font-size="18" style="line-height:0%" transform="translate(34.776 53.682)">Anus</text><text x="194.475" y="777.655" fill="#2e3192" font-family="Arial" font-size="18" font-weight="400" style="line-height:0%;text-align:start" transform="translate(34.776 53.682)">Rectum</text><text x="7.174" y="651.262" fill="#006e3a" font-family="Arial" font-size="16" font-weight="400" style="line-height:0%;text-align:start" transform="translate(34.776 53.682)">Descending colon</text><text x="456.226" y="636.18" fill="#f26522" font-family="Arial" font-size="14" font-weight="400" style="line-height:0%;text-align:start" transform="translate(34.776 53.682)">(small intestine)</text><text x="4.638" y="503.123" font-family="Arial" font-size="18" font-weight="400" style="line-height:0%;text-align:start" transform="translate(34.776 53.682)"><tspan x="4.638" y="503.123" fill="#2e3192" style="line-height:80%;text-align:start">Common</tspan><tspan x="4.638" y="524.723" fill="#2e3192" style="line-height:80%;text-align:start">bile duct</tspan></text><text fill="#f26522" font-family="Myriad-Roman" font-size="18" style="line-height:0%" transform="translate(514.987 669.898)">Ileum</text><path fill="none" stroke="#006e3a" stroke-width="1.6" d="M33.724 709.778v-98.842"/><path fill="none" stroke="#c0272d" stroke-width="2.104" d="M62.826 42.558v73.85"/><path fill="none" stroke="#000" d="m175.424 645.985 98.764-21.974M172.177 671.965l58.455-.406M177.454 700.381H438.79M239.969 754.371h-71.04M281.201 777.112c-37.153 21.957-73.352 17.14-111.46 16.23"/><text x="7.512" y="570.398" fill="#006e3a" font-family="Arial" font-size="18" font-weight="400" style="line-height:0%;text-align:start" transform="translate(34.776 53.682)">Colon</text><path fill="none" stroke="#000" d="m323.302 689.48 182.558-24.822M296.395 825.41l35.722-32.385"/><path fill="none" stroke="#000" stroke-width="1.21" d="M90.179 465.317c63.838 2.921 127.822 5.661 171.797 33.412"/><path fill="none" stroke="#000" stroke-width=".988" d="M147.124 524.556c56.963 2.612 96.934 27.88 145.401 41.82"/><path fill="none" stroke="#000" stroke-width=".975" d="M152.075 492.875c52.409.626 79.163 26.906 117.96 41.143"/><path fill="none" stroke="#000" stroke-width="1.012" d="M297.543 595.618c-58.448-10.244-103.816-33.568-175.351-30.725"/><path fill="none" stroke="#000" stroke-width=".894" d="M402.197 518.966h96.212"/><path fill="none" stroke="#000" stroke-width=".942" d="m321.747 594.945 178.178-39.14"/><path fill="none" stroke="#000" stroke-width=".731" d="M332.888 348.771h50.573"/><path fill="none" stroke="#000" stroke-width="1.072" d="M305.24 196.964c47.526 28.287 92.546 6.495 138.944 4.296"/><path fill="none" stroke="#000" d="M337.496 198.44c34.3-14.58 71.943-21.292 107.676-19.094M304.77 225.786 264.613 89.283h-74.64"/><path fill="none" stroke="#000" d="m280.947 212.217-27.684-103.131h-94.79"/><path fill="none" stroke="#000" stroke-width="1.017" d="M330.655 176.06 298.66 71.72l-163.004-1.91"/><text x="472.429" y="506.969" fill="#0054a6" font-family="Arial" font-size="18" font-weight="400" style="line-height:0%;text-align:start" transform="translate(34.776 53.682)">Pancreatic</text><text x="491.521" y="526.042" fill="#0054a6" font-family="Arial" font-size="18" font-weight="400" style="line-height:0%;text-align:start" transform="translate(34.776 53.682)">duct</text><text x="118.189" y="140.212" fill="#2e3192" font-family="Arial" font-size="18" font-weight="400" style="line-height:0%;text-align:start" transform="translate(34.776 53.682)">Oral cavity</text><path fill="none" stroke="#000" d="M317.52 581.306c7.81-50.293 12.81-103.02-7.665-157.517"/></svg>