<svg xmlns="http://www.w3.org/2000/svg" id="レイヤー_1" data-name="レイヤー 1" viewBox="0 0 699.97 287.2"><defs><style>.cls-1{fill:#fefefe}.cls-3{fill:#e2e496}.cls-4{fill:#f2eb93}.cls-7{fill:#eff9ba}.cls-9{fill:#ebf3b1}.cls-11{fill:#e9e794}.cls-12{fill:#e5e695}.cls-13{fill:#e8eea9}.cls-14{fill:#eff9b8}.cls-15{fill:#e9f0ad}.cls-17{fill:#e4e9a1}.cls-19{fill:#ecf5b5}.cls-20{fill:#edf5b5}.cls-21{fill:#eaf1af}.cls-22{fill:#e5eaa3}.cls-29{fill:#ecf4b4}.cls-30{fill:#e2e79c}.cls-33{fill:#e2e69b}.cls-59{fill:#dfe49d}.cls-60{fill:#f0fcac}.cls-62{fill:#effbb1}.cls-66{fill:#f6f8ae}.cls-68{fill:#effab4}.cls-70{fill:#effab5}.cls-73{fill:#060605}.cls-75{fill:#040403}.cls-76{fill:#d2dba3}.cls-77{fill:#f9ebdb}.cls-79{fill:#f6e9d9}</style></defs><path d="M353.91 0c45.66.13 94.72 2.7 143.5 9.11 46.72 6.15 92.92 14.81 137.12 31.87 17 6.54 33.29 14.34 47.34 26.18 12.7 10.69 20.13 23.37 17.57 41-1.26 8.64-.22 17.62-.07 26.45a229 229 0 0 1-.44 23c-.27 3.2-.39 6.9-2.47 9-7.27 7.4-6 16.56-5.37 25.23.64 9.25-2.78 15.08-10.23 20.4-20.14 14.36-42.63 23.66-65.54 32.21-42.23 15.75-86 25.37-130.38 32.51a845.3 845.3 0 0 1-156.8 9.96 998 998 0 0 1-139.07-13.61c-31.49-5.28-62.93-11-93.46-20.46-27.37-8.49-52.22-22.16-75.22-39.24-6.64-4.92-10.48-10.76-9.78-19.43.42-5.11-.32-10.31-.45-15.47a5.36 5.36 0 0 0-1.82-4.36 23.12 23.12 0 0 1-7.75-16.74c-.92-19.48-.54-39-.35-58.46.11-10.88 5.53-19.66 13.06-27.2 12.22-12.24 27.16-20.2 42.8-26.94 33.17-14.29 68-22.65 103.41-29.09C224.78 4 290.3.21 353.91 0"/><path d="M37.91 123.98a42.5 42.5 0 0 1-12.6-14.54c-1.62-2.94-1.28-5 1.23-7.34 9.54-9.05 20.65-15.64 32.44-21.17 30.29-14.2 62.42-22.54 95.08-28.89 85.81-16.66 172.5-20 259.57-15.77 56.75 2.78 113 9.48 168.21 23.73 23.51 6.08 46.55 13.54 68.1 25a111.6 111.6 0 0 1 24.42 17.15c2.57 2.42 2.71 4.51 1.13 7.38a43.1 43.1 0 0 1-12.58 14.54c-3.16 1.66-5.17-1-7.59-2.07a29.5 29.5 0 0 1-5.57-3 21.4 21.4 0 0 0-3.66-2.09c-5.75-2.66-11.16-6-17.16-8.16-1.52-.68-3-1.41-4.53-2.11-7.32-3.77-15-6.71-22.62-9.75a33 33 0 0 0-4.85-1.71 249 249 0 0 0-32.8-10.26c-1.44-.5-3-.72-4.41-1.12-7.33-2.79-15-4.08-22.66-5.69a14 14 0 0 1-1.4-.34 62 62 0 0 0-9.48-1.76 8 8 0 0 1-1.28-.32 18.8 18.8 0 0 0-4.34-.87 11 11 0 0 1-1.22-.33 24.6 24.6 0 0 0-3.71-.65 8.4 8.4 0 0 1-1.22-.32c-1.61-.6-3.33-.37-5-.7a12 12 0 0 1-1.3-.32c-1.84-.52-3.77-.31-5.63-.7a14 14 0 0 1-1.6-.34q-29.32-4.87-58.92-7.44c-11.6-1-23.22-1.83-34.83-2.36-26.76-1.24-53.57-1.86-80.35-1.06-50.23 1.48-100.36 4.44-150 12.8a422 422 0 0 0-52.37 12.69c-12.25 3.26-23.87 8.25-35.53 13.09-3.89 1.38-7.47 3.51-11.35 4.93-8.46 3.9-16.64 8.33-24.79 12.83-3.55 1.72-6.77 4-10.17 6-1.47.59-2.85 1.69-4.66 1.04" class="cls-1"/><path d="M23.01 97.09c1.57-9.85 7.13-16.35 13.81-22 11-9.37 23.85-15.69 37.13-21.1 31.26-12.72 63.95-20.24 97.09-25.91 68.36-11.71 137.32-15.4 206.57-13.84 64.35 1.44 128.3 7.09 191.17 21.76 25.41 5.93 50.39 13.28 73.75 25.19 11 5.6 21.48 12 29.24 22a30.9 30.9 0 0 1 5 9.11 2.87 2.87 0 0 1-.19 2.32c-.63.75-1.41.07-2.09-.46-29.8-23.54-65.32-33.52-101.23-42.38-44.23-10.91-89.28-16.49-134.65-19.9a1175 1175 0 0 0-145.84-1.84c-65 3.17-129.36 10.52-192 28.89A287 287 0 0 0 52.03 77.7a132 132 0 0 0-29.02 19.39" class="cls-1"/><path d="M477 620.78c-18.19-2.69-36.17-6.45-54.14-10.33-.29-.06-.54-.37-.81-.56.78-3.58 3.85-4 6.55-4.14 9.3-.51 18.63-.35 27.95-.5 3.83-.06 7.65-.19 11.46-.43 18.91-1.18 37.86-1.3 56.77-2.34 19.56-1.06 39.16-1.25 58.71-2.73 6.27-.48 12.64-.13 19-.34 18.43-.59 36.84-1.7 55.24-2.71 23.38-1.28 46.78-1.44 70.16-2.71 20-1.09 40.12-1.89 60.23-2 9.07-.06 18.25-.57 27.35-1.49 14.59-1.48 29.27-.53 43.85-1.31 13.28-.71 26.59-.84 39.85-1.91 3.71-.3 8-1.42 10.79 2.61a324 324 0 0 1-40 13.95c-13.22 1.27-26.54-.11-39.76 1.65-6.92.92-13.95.85-20.92.88-12.49.07-24.93.72-37.4 1.48-23.69 1.46-47.43 1.86-71.15 2.78-10.93.43-21.94.66-32.88 1.13-10.58.45-21.25.4-31.81 1.75-8.24 1.06-16.58.69-24.86.82-13.82.22-27.58 1.31-41.37 1.68-15.59.43-31.15 2-46.77 1.48a57 57 0 0 0-9.93.92c-11 1.56-22.24-.11-33.28 1.64-1.01.13-2.03-.05-2.83.73" style="fill:#eee993" transform="translate(-290.09 -354.08)"/><path d="M594.24 186.09c-17.37 5.77-35.26 9.44-53.2 12.78-78.78 14.64-158.28 18.2-238.2 15.34a1082 1082 0 0 1-107.93-9.42 14.4 14.4 0 0 1-2.34-.73c3.5-4.12 8.63-3.65 13-3.56 17.28.35 34.41-2.39 51.65-2.06a180 180 0 0 0 26.69-1.52c12.14.34 24.28.73 36.42 1a1225 1225 0 0 0 124.78-3.21c26.87-2.13 53.66-5.06 80.26-9.56a23 23 0 0 1 2.48-.12c6.75.88 13.5.25 20.25-.09 12.79-.63 25.58-1.34 38.39-1.5 2.8 0 5.74.1 7.75 2.65" class="cls-3"/><path d="M186.91 266.7c0-.61-2.29-1.7-.13-1.7 8.23 0 16.25-3.32 24.61-1.2 4.1 1 8.28-.53 12.32-1.09 11.33-1.58 22.76-1.19 34.07-1.5 22.74-.64 45.41-2.6 68.18-2.59 9.76 0 19.65-.63 29.48-1.42 14.78-1.18 29.67-1.85 44.5-2.1 14.29-.25 28.57-1 42.85-1.37 9-.24 18 1.08 27-1.62 5-1.5 10.39.57 15.71-.13 11.89-1.54 23.88-.82 35.83-1.16 9.81-.28 19.59-1.47 29.4-1.86 8.26-.32 16.54-.08 24.81 0 1.45 0 3-.42 4.26.82a556 556 0 0 1-66.93 16 3.45 3.45 0 0 0-2.79-.74c-23.07 1.3-46.18 1.75-69.27 2.53-10.77.37-21.48 2.23-32.34 1.88-17-.55-33.82 1.87-50.78 2-12.77.11-25.58.4-38.3 1.2-12.92.81-26 0-38.8 2.27-7.56 1.35-15.32-.43-22.9 1.14a646 646 0 0 1-70.78-9.36" class="cls-4"/><path d="M909.93 589.86c-6-2.59-12.43-1.38-18.46-.64-7 .86-14-.09-21 .57-15.9 1.5-32 .37-47.88 1.48-11.12.78-22.29 1.23-33.42 2.36-6.33.65-13 .08-19.47.36-11 .47-22 0-33 1.63-5.47.81-11.43-.17-17.19.33-14.64 1.26-29.48-.33-44 1.42-13.66 1.65-27.28.83-40.89 2a387 387 0 0 1-43.41 2c-10-.23-19.92 2.3-29.7 1.23-9-1-17.49 2.35-26.54.7-6.13-1.12-12.8.71-19.22 1.27-4.39.39-8.77 0-13.19.28-13.68 1-27.42.79-41.12 1.95-10 .85-20.15.25-30.23.13-3.47 0-6.58.57-9.2 3a179 179 0 0 1-29-7.11c.58-3.26 3.4-2.89 5.51-3 5.31-.38 10.62-1.17 15.92-1.18 20.3-.07 40.55-1.64 60.83-2.33 24.76-.84 49.53-1.73 74.27-3a246 246 0 0 1 25.76-.37l10.67.29c4.77 1 9.64-.35 14.4.72h18.95c53.18 0 106.25-2.33 159.13-8.09 12.73-1.38 25.39-3.31 38.09-5 13.43.12 26.81-.9 40.21-1.58 16.1-.82 32.21-1.63 48.33-1.64 8.67 0 17.27-.84 25.91-1 2.07 0 4.84-.9 5.86 2.24l-23.71 10.22c-.97.42-1.94 1.2-3.21.76" style="fill:#ebe894" transform="translate(-290.09 -354.08)"/><path d="M515.64 582.09c-9-.22-17.78-1.71-26.57-3.3.54-2.5 2.72-2.69 4.6-3 3.09-.56 6.2-1.33 9.34-1.22 13.26.45 26.45-1.54 39.69-1 5.29.21 10.44-2.1 15.75-.63 17.28.69 34.57 1.63 51.86 2a1223 1223 0 0 0 133.72-4c1.15-.1 2.32 0 3.47 0 7.6-.36 15.22-1 22.77-1.12 21.12-.48 42.18-2.16 63.3-2.29 2 0 4-.16 5.92.63 1.45.6 2.38 1.47.49 2.74-20.37 4.75-41.05 7.68-61.79 9.95a1373 1373 0 0 1-168 7.93c-29.8-.4-59.56-2-89.15-5.88-1.75-.9-3.69 0-5.4-.81" style="fill:#e7e795" transform="translate(-290.09 -354.08)"/><path d="M86.71 149.02a156.8 156.8 0 0 1-32.73-14.19c.88-3.45 3.82-3.32 6.36-3.37 6.16-.14 12.31-.86 18.42-.88 12.48 0 24.93-.87 37.37-1.42q29.13-1.28 58.26-2.47c11.6-.5 23.26-.7 34.86-1.2 12.44-.54 24.89-1 37.34-1.56 14.61-.61 29.2-1.78 43.84-1.52a8.15 8.15 0 0 1 4.32 1c2.86 4 1.29 8.66 1.8 13 .26 2.18-2.14 2.79-4 2.84-4.82.11-9.58 1.06-14.38 1.12-15.39.2-30.75 1.34-46.13 1.84-2.55.08-5-.22-7.07-1.82-5.94-8.72-16.5-11.56-26.2-7a10.8 10.8 0 0 0-5.63 6c-1.47 3.8-4.36 5.39-8.37 6.06-10.24 1.73-20.59 1-30.87 1.56-12.42.68-24.9 1.26-37.38 1.5-9.93.21-19.85 1.41-29.81.51" class="cls-7"/><path d="M689.55 113.49c-3.46-6.21-6.92-11.77-7.3-19.25-.42-8.18-6-14.6-11.89-20.2-10.27-9.77-22.53-16.44-35.37-22.07-30.16-13.22-61.91-21-94.15-27-72.85-13.5-146.42-17.44-220.33-15.71-62.18 1.45-124 7-184.79 20.72-27.59 6.22-54.71 14-80.06 26.9-9.82 5-19.14 10.82-26.82 18.86-6.62 6.93-11.12 14.77-11 24.85.08 5.23-5.33 8.16-6.33 14.06-5.72-8.81-6.71-17.09-2.89-25.84s10.62-15.23 18.22-20.77c18.93-13.78 40.47-22.05 62.53-29.06 35.6-11.3 72.15-18.19 109.11-23.18 58.06-7.84 116.4-10.64 174.93-9.56a1089 1089 0 0 1 122.5 8.75c46.81 6.19 93.1 14.79 137.36 32 15 5.84 29.56 12.77 42.34 22.84 6.48 5.09 12.3 10.79 15.77 18.39 4 8.7 3.3 17.04-1.83 25.27" class="cls-1"/><path d="m328 478.06 4-2.05c2.35.26 4.06-2.32 6.55-1.49 16.81-.58 33.57-1.69 50.36-2.52 13.27-.66 26.55-.38 39.84-1.64 7.67-.73 15.59-.65 23.4-.78 21.62-.34 43.22-1.42 64.81-2.38 13.58-.61 27.22-1 40.81-2.24 9.36-.86 19 0 28.39-.77 12.29-.95 24.64.06 36.89-1.59 8.09-1.09 16.28-.5 24.42-.86 17.6-.8 35.21-1.29 52.81-2.57 6.7-.49 13.58-.54 20.39-.62 17.64-.18 35.25-.7 52.84-2.34a170 170 0 0 1 17.94-.4c14.66.21 29.23-1.32 43.87-1.59 15.29-.28 30.59-1 45.87-2 3.64-.24 7.34.31 10.93-.75 5.69.4 10.4 3.6 15.54 5.58.69.26.4 1.08-.1 1.6a9.38 9.38 0 0 1-6.13 1.74c-17.3-.37-34.54.83-51.8 1.65-14.74.7-29.49 1.38-44.23 1.86-19.07.62-38.11 1.77-57.22 1.92a371 371 0 0 0-40.3 2.21c-10 1.17-20.22.59-30.34.93-8.63.29-17.24 1.22-25.88 1.05-10.14-.2-20.23 1.06-30.37 1a15.6 15.6 0 0 0-7.58 2.19c-2.56.45-17.77-.37-19.72-1-8.91-1.36-17.83-.86-26.74-.2a33 33 0 0 1-4 .43c-13-.56-25.94.73-38.88 1.3-10.28.46-20.58.69-30.86 1.08-6.42.24-13 .14-19.31.71-9.77.9-19.58.22-29.28 1.55a20.4 20.4 0 0 1-3.47.36c-13.66-.57-27.25.9-40.88 1.23-17.6.41-35.18 1.56-52.79 2-5.27.14-10.54 1.22-15.87.52a8.9 8.9 0 0 1-3.91-3.12" style="fill:#effab6" transform="translate(-290.09 -354.08)"/><path d="M642.91 136.06c-1.64 2.3-4.51 2.54-6.65 4a8.25 8.25 0 0 1-3.45.35c-21.45-.23-42.83 1.67-64.26 2.09-16.74.33-33.48 1.39-50.22 2-15.59.57-31.2 1.05-46.76 2-12.92.82-25.92.13-38.79 1.89a10.9 10.9 0 0 0-2.87.77c-2.26.67-4.47 0-6.69-.29a12.4 12.4 0 0 0-6.19-.43c-4.07.77-7.87 2.72-12.1 2.82-20.26.43-40.49 1.67-60.74 2.29q-21.9.68-43.79 1.84c-26.07 1.39-52.15 2.22-78.24 3.14q-24.15.84-48.3 2.13c-10.61.56-21.29 0-31.87 1.56-3.44.49-6.91-.21-10.37-.23a88.7 88.7 0 0 1-19.71-5.07c1.27-2.62 3.76-2.4 6-2.49 17.54-.66 35-2.17 52.61-2.16 5.93 0 11.86-1.09 17.84-1a5.58 5.58 0 0 0 4.45-1.85c3-2.14 4.86.94 7.26 1.57 6.95 4.78 13.47 2.62 19.86-1.29 1.41-.86 2.38-3.06 4.59-1.47 1.06 1.59 2.72 1.68 4.41 1.85a70 70 0 0 0 13 .1c13.93-1.12 27.91-.93 41.86-1.72 19.1-1.07 38.25-1.31 57.34-2.27 15.92-.81 31.88-.93 47.76-2 19.58-1.28 39.26-.46 58.77-3 5.44-.71 11 .73 16.45-.12 2-.31 4-.4 5.37-2.17 1.21-1 2.4-.61 3.59 0a7.58 7.58 0 0 0 5.83 1.65 12.7 12.7 0 0 0 4.07-.56c5.73-.13 9.37-4 13.24-7.43 1.25.3 1.51 1.29 1.65 2.38a6 6 0 0 1-.18 1.58c-.66 3.18 1.85 2.6 3.46 2.74 5.49.46 11-.19 16.45-.46 3-.15 6-.41 9-.41 14.12 0 28.15-2.14 42.25-1.94 14.31.21 28.53-1.42 42.84-1.44 8.94 0 17.91-1 26.89-.6 1.46.19 3.63-.99 4.34 1.65" class="cls-9"/><path d="M547.81 630.13a5.23 5.23 0 0 1 4.34-2.11c11.33.71 22.48-1.94 33.7-1.83 8.3.09 16.46-1.57 24.66-1.1 7.42.43 14.85-1.61 22-.71 8.68 1.09 17-1.94 25.53-.52 7.22 1.2 14.34-1.65 21.65-1.52 10.39.19 20.8.06 31.17-.44 12.55-.59 25.07-2.36 37.6-2.39 10.3 0 20.54-1.06 30.85-.75 7 .21 14-.55 21.07-.72 1 0 3.54-1.37 2.66 1.79-19.79 4-39.65 7.56-59.8 9.21-1.63.93-3.55-.08-5.19.77l-3.7.26c-1.68.84-3.6-.07-5.3.72-37.23 4.29-74.6 5.08-112 4-4.46-1-9 .34-13.5-.74l-10.55-.26c-2.76-.89-5.69.23-8.44-.72l-7.56-.28c-2.36-.89-4.92.24-7.26-.73l-5.74-.27c-2-.85-4.24.2-6.24-.73l-4.76-.26c-1.63-.81-3.5.11-5.13-.71Z" style="fill:#f4ec92" transform="translate(-290.09 -354.08)"/><path d="M285.28 238.8c-22.08.91-44.09 3.08-66.24 3.33-16.39.18-32.79 1.29-49.2 1.92-15.56.6-31.13 1.41-46.69 2.08-6 .26-12.19.27-18.23 1.26a2.48 2.48 0 0 0-1.93 1.31 133.7 133.7 0 0 1-27-9.91c.91-3.44 3.85-3.32 6.39-3.36 7.49-.1 15-.88 22.43-.92 21.65-.12 43.2-2.15 64.84-2.43a284 284 0 0 0 29.86-1.58 6.15 6.15 0 0 1 3 .29l38.64 4.22c13.57 1.46 27.16 2.55 40.79 3.18a25 25 0 0 1 3.34.61" class="cls-11"/><path d="M202.45 230.79c-14.54 2.89-29.29 2.8-44 3.12-18.56.41-37.07 1.92-55.65 2.25-7.08.13-14.22.53-21.34.72-2.07 0-4 .32-5.46 1.91a124.3 124.3 0 0 1-23.14-11.61c.15-4 3.28-3.47 5.76-3.76 8.44-1 16.95-.57 25.41-1 19.26-1.1 38.52-2.32 57.84-2a5.8 5.8 0 0 1 2.44.37Z" class="cls-12"/><path d="M203.91 175.02a233 233 0 0 1-38.3-6c1.37-1.78 3.42-2 5.39-2.12 8.31-.4 16.58-1.38 24.9-1.61q33.42-1 66.79-2.84c9.29-.52 18.61-.45 27.92-.84 12-.51 23.94-1 35.9-1.5 19.59-.85 39.23-1.1 58.8-2.62 5.77-.44 11.66.3 17.24-1.88 2.33 1.9 1.68 4.36 1.26 6.78-1.77 3.6-5 4.87-8.65 4.75-12-.39-23.91.8-35.87 1-10.6.19-21.22.61-31.8 1.45-4.8.38-9.62.16-14.44.36-18.21.76-36.49.82-54.62 2.12-11.59.83-23.21.27-34.76 1.67-6.55.86-13.28-.82-19.76 1.28" class="cls-13"/><path d="M268.36 218.8c-18.88 2.83-37.91 2.81-56.93 3.31-4.08.11-8.66 0-12.45 2.6-31.73-4.54-63.24-10.13-94.15-18.74 1.17-3.45 4.16-3.55 7-3.47 8.12.25 16.2-.69 24.31-.66a5.9 5.9 0 0 0 2.83-.82c17.18 3.12 34.27 6.63 51.57 9.11 24.4 3.5 48.88 6.25 73.47 7.91a42 42 0 0 1 4.35.76" class="cls-3"/><path d="M294.91 123.92c-15 .33-30-.15-44.83 1.25-13 1.23-26.13-.15-39.19 2.16-5.37.95-11.41.13-17.18.44-14.1.76-28.25.51-42.34 1.23-16.57.84-33.15 1.43-49.72 2.11-13.9.57-27.81 1.3-41.73 1.78-2.21.08-4.33.15-5.95 1.93a30.7 30.7 0 0 1-8.06-4.8c-.06-2.26 1.62-2.93 3.27-2.93 4.34 0 8.49-1.4 12.87-1.21 13.12.56 26.22-.64 39.3-1.14 16.92-.63 33.85-1.24 50.76-2 15.06-.67 30.13-1.47 45.2-2.14 7.43-.33 14.88-.61 22.33-.79 18.08-.43 36.13-1.52 54.21-2.15 6.95-.24 13.93-.53 20.9-.71 1.79-.05 3.72-.28 5.08 1.38 1.54 3.46-.9 4.68-3.33 5.91a1.78 1.78 0 0 1-1.59-.32" class="cls-14"/><path d="M144.29 220.79c-16 1.43-32 2-48.07 2.2-5.75.08-11.63 2.22-17.17 1.42-7.24-1-14.14 1.11-21.21.51-2-.17-4.07-.11-5 2.26A142 142 0 0 1 26 209.92c3.45-3.15 7.82-3.44 12.08-3.4 13.2.14 26.36-1.36 39.56-.76a4.16 4.16 0 0 0 2.27-.84c21.35 5.88 42.85 10.92 64.38 15.87" class="cls-3"/><path d="M402.91 155.92c-2.52 2.47-5.51 3-9 3.09-19.06.43-38.1 1.49-57.16 2.08-15.23.47-30.46 1.29-45.69 2-17.72.78-35.44 1.34-53.16 2-15.73.63-31.44 1.61-47.19 1.93-8.37.18-16.72 1.35-25.08 2.06a112 112 0 0 1-20.82-4.08c1.75-2.62 4.52-2.54 7.16-2.6 19.6-.44 39.18-1.57 58.77-2.23 24.57-.82 49.14-1.91 73.7-3 17.92-.82 35.87-1.08 53.75-2.49 13.91 1 27.74-1.55 41.65-.93a14 14 0 0 0 5.4-.62 9 9 0 0 1 1.63-.35c5.21-.73 10.58.86 15.72-1 1-.76 2.37-.91 3.34-1.77l11-3c1.84 1.31 4.15-.25 6 1 2.06 0 4.14-.19 6 1 1.57-1.13 2.9-.33 4.23.52.74.78 1.4 1.59.71 2.74a3.25 3.25 0 0 1-2.18.56c-3.83-1-7.52-2.48-11.62-2.6a18.2 18.2 0 0 0-12.55 3.83 9.4 9.4 0 0 1-.94 1.05 6.25 6.25 0 0 1-2.43 1.31 1.36 1.36 0 0 1-1.24-.5" class="cls-15"/><path d="M936.92 578.85c-4-1.78-8.24-1.19-12.2-.68-10.7 1.4-21.41.54-32.11.86-5.53.17-11.05.58-16.57 1-6.83.52-13.69-.33-20.51.7-10.39 1.57-21 .3-31.34 2-2.82.47-5.12-1-7.58-1.93 17-3.6 34.12-6.56 51-10.79 3.36-.84 6.78-1.43 10.18-2.14 11.51-.89 23-.33 34.61-1.52a319 319 0 0 1 38.6-1.75c2.36 0 5.16-.07 5.9 3.23a217 217 0 0 1-19.98 11.02" style="fill:#e8e794" transform="translate(-290.09 -354.08)"/><path d="M504.21 174.07c-11.9 2.47-24 3.46-36.06 4.67a1196 1196 0 0 1-161.18 5c-9.45-.32-19-.28-28.36-1.69a3.43 3.43 0 0 1 3-1.45c6.49.45 12.84-1.11 19.29-1.38 13.94-.59 27.9-.48 41.82-1.48 9.6-.69 19.25-.32 28.87-1.24 17-1.62 34.1-.61 51.14-2.44 6.65-.72 13.56-.35 20.37-.56 16.62-.51 33.23-1.14 49.83-2 3.98-.22 8.12-.8 11.28 2.57" class="cls-17"/><path d="M431.91 151.92h2c1.26-.45 2 .28 2.73 1.15.47.68.73 1.48 1.18 2.17 5 3.79 10.74 2.66 16.19 2.15 3.45-.32 6.89-.86 10.39-1 16.29-.48 32.56-1.59 48.84-1.75 20.28-.2 40.46-2.39 60.73-2.32 5.46 0 10.92-1.67 16.39-.46 2 .45 4.92-.14 5.54 3.06a160 160 0 0 1-26.65 7.08c-8.92.78-17.9.91-26.82 1.18-12.78.38-25.59.91-38.35 1.48-19.24.86-38.53 1-57.74 2.6-3.76.32-7.78.86-10.41-3-1.18-4.14-3.44-7.97-4.02-12.34" class="cls-13"/><path d="M494 529.1c4.42-4.92 10.17-1.78 15.29-2.5 12.12-1.72 24.5 1.09 36.53-2 3.87-1 7.71.15 11.67-.24 12.32-1.21 24.74.1 37.17-1.68 5.55-.79 11.63-.22 17.47-.46 8.91-.37 17.83-.68 26.75-1 7.38-.25 14.77-.24 22.14-.73 8.6-.57 17.19-.39 25.79-.49 2.52 0 4.21-1.81 6.19-3 3.81 5.53 3 7.37-3.31 8.58-10.37 2-20.89 1-31.32 1.61-12.08.74-24.25.93-36.35 1.49-20.07.94-40.16 1.53-60.22 2.55-10.76.54-21.56 1.53-32.37.78-3.31-.24-6.59 1.21-9.89.09a152.3 152.3 0 0 1-25.54-3" style="fill:#e7eda6" transform="translate(-290.09 -354.08)"/><path d="M666.83 213.75c-6-3.64-12.66-1.88-18.92-1.5-7.2.45-14.38.78-21.59.84-4.07 0-8.12 1.43-12.21 1.76-7.26.58-14.58-.69-21.84.68-1.74.33-3-1.15-4.58-1.71 16.5-4.93 33.26-9 49.47-14.88 2.17-.78 4.4-1.39 6.61-2.07 12.42-.43 24.85-.13 37.27-.94a4.77 4.77 0 0 1 3.73 1c.51 2.27.11 4.41-1.75 5.83-5.2 3.92-10.05 8.42-16.19 10.99" class="cls-12"/><path d="M193.91 148.92c.37 3-.79 4.13-3.91 4.05-12.25-.28-24.46 1.12-36.73 1.1-12.71 0-25.42 1.17-38.12 1.9a14.6 14.6 0 0 0-3.3 1 139.6 139.6 0 0 1-25.17-7.93 28 28 0 0 1 8.83-1.13c19.9-.14 39.78-1.44 59.64-2.34 10-.46 20.14.44 30.16-1.44 3.07-.58 5-1.89 6.24-4.13 4.38-8 11.55-11.59 20.4-9.87 4.07.79 8 1.68 11 5.08a5.94 5.94 0 0 1 1.96 4.71l-.62.32a2.5 2.5 0 0 1-1.26-.5c-1.49-1.64-2.72-3.64-5.29-3.79-6.67-2.2-13.27-2.82-19.7.82-4.58 2.31-3.77 6.31-3.18 10.24a3 3 0 0 1-.95 1.91" class="cls-19"/><path d="M496.91 135.92v-1c1.23-2.13-1.24-4.5.43-6.59 15.86 2.86 31.75.19 47.59-.32 12.89-.41 25.84-.93 38.74-1.32 11.57-.34 23.11-2.35 34.72-1.14 4.06.43 7.93-.77 11.85-1.24 7.71-.92 15.57 1.45 23.2-1.37-1.34-1.77-4.45-1.79-4.64-4.65 0-.13.15-.28.26-.39s.5-.22.84 0c4.53 1.67 8.18 5.18 13 6.16a49.6 49.6 0 0 1-11.86 8.3c-4.39-1.43-8.51 1.05-12.81.9a356 356 0 0 0-38.38.87c-14.12 1.07-28.24.47-42.31 1.65-18 1.5-36.09 2-54.18 1.94-2.32 0-4.72.2-6.45-1.8" class="cls-20"/><path d="M549.91 216.76c.93-2.52-1-1.87-2.15-1.83-8.08.34-16.15-.23-24.28.76-9.23 1.13-18.65.37-28 1.15-7.4.62-14.85-.49-22.28 1-5.24 1-10.51-.66-15.78-1 10-1.22 20-2.49 30.06-3.65q34.36-4 68.22-11.08a22.4 22.4 0 0 1 3-.23c12.21-.21 24.4-1.36 36.61-1.35 3.09 0 6.77-.51 8.57 3.31-17.83 5.08-35.77 9.57-53.97 12.92" class="cls-12"/><path d="M405.91 149.92a3.46 3.46 0 0 1-2 2c-3.59 2.11-7.56 1.4-11.37 1.34a14.6 14.6 0 0 0-5.63.66h-1c-10 .31-20 0-29.92 1.38-5.64.77-11.42-1.06-17.07.62a27 27 0 0 1-7.35 1c-21.58-.19-43.1 1.69-64.68 2.17-15.73.34-31.47 1.21-47.2 1.92-16.9.76-33.82 1.13-50.69 2.18-8 .5-16.3-.7-24.21 1.76a50.8 50.8 0 0 1-13.16-3c4.92-1.81 10.24-1.8 15.2-1.85 11-.11 21.89-1.06 32.84-1.32 19.47-.45 38.93-1.48 58.4-2.12q24.84-.81 49.69-1.95c16.7-.76 33.4-1.37 50.1-2 16.4-.64 32.79-1.51 49.19-2 6.26-.18 12.55-.73 18.86-.79" class="cls-21"/><path d="M504.21 174.07c-14-2-28 .07-42 .59-.66 0-1.31.22-2 .23-9.12.14-18.25.56-27.35.81-16 .43-32 2-47.94 1.9-10.75 0-21.38 1.14-32.07 1.51-14.54.51-29.1.73-43.64 1.52-10.18.56-20.39 1.54-30.63 1.43-5 0-10.07.21-15-1 7.69-4.65 16.29-3.43 24.67-3.94 10.59-.64 21.2-.38 31.8-1.4a226 226 0 0 1 29.79-1 86 86 0 0 0 9-.27c15.24-1 30.52-1.12 45.76-2.07a13.8 13.8 0 0 0 6.09-1.93c2.16-.65 4.28.09 6.39.35a19.57 19.57 0 0 0 12.83-2.7c1.34-.79 2.92-2.68 4.7-.44 1 3 3.38 2.73 5.76 2.57 14.92-1 29.89-1.26 44.82-2 11.28-.56 22.59-.44 33.87-1.5 5.43-.5 11.33-1.9 16.21 2.36a213 213 0 0 1-31.06 4.98" class="cls-22"/><path d="M574 551a29.5 29.5 0 0 1-14.39 2.83 298 298 0 0 0-37.35.9c-11.64 1-23.32.11-34.86 1.83a28.6 28.6 0 0 0-4.71 1.56 358 358 0 0 1-45.82-8.09c1.68-1.94 4.06-2.26 6.34-2.37 4.64-.23 9.28-1.24 13.87-1.08 13.92.5 27.78-2.19 41.7-.71a4.26 4.26 0 0 0 3.25-1l46 4.25c2.37.9 4.94-.22 7.3.73l6.69.26c3 1 6.26-.28 9.29.75Z" style="fill:#e2e69a" transform="translate(-290.09 -354.08)"/><path d="M603.85 203.8c-6.28-3.11-13.06-2.27-19.51-1.62-8.63.88-17.13 1.14-25.67-.34 15.83-4.26 31.93-7.55 47.5-12.8l20.72-7a134.6 134.6 0 0 0 20.28-.24c4.65-.36 9.9-2.44 13.9 2.18a344.7 344.7 0 0 1-57.22 19.82" class="cls-3"/><path d="M825.33 523.16c-14.4-2.48-28.72.26-43.08.6-1 0-2 .27-3 .22-14.14-.7-28.2 1.53-42.34 1.08-3.1-.1-6.24.58-9.36.94-4.23.49-6.11-.67-3.59-5-1.21-2.28.14-3.27 2-4 3.14 4.21 7.68 3.38 11.77 2.71a57 57 0 0 1 8.89-.7c21.24-.14 42.43-1.53 63.64-2.33 11.2-.42 22.51.11 33.72-1.55a35.8 35.8 0 0 1 15.31 1 231.5 231.5 0 0 1-33.96 7.03" style="fill:#e6eca4" transform="translate(-290.09 -354.08)"/><path d="M502 544.91c-1 2.4-3.14 2.13-5.12 2.07-13.46-.44-26.85 1.41-40.32 1.15-6.56-.12-13.14 1.24-19.72 1.92a229 229 0 0 1-33.79-8.05c.45-2.67 2.76-2.53 4.57-2.82a127 127 0 0 1 22.79-1.59c5.23.13 10.53.28 15.64-1.35 12.45 2.3 25 3.72 37.42 6.43 6.06 1.33 12.37 1.51 18.53 2.24" style="fill:#e4e9a0" transform="translate(-290.09 -354.08)"/><path d="m435.91 152.92-2-1c-.33-.67-.66-1.33-1-2 3.45-2.93 7.88-2.92 11.81-2.81 13.62.37 27.19-.73 40.74-1.24q25.8-1 51.59-2.05c16-.66 32.12-1.09 48.13-2.1 12.43-.78 24.92-.05 37.32-1.68 2.75-.37 5.75-.21 7.37 2.88a19.76 19.76 0 0 1-8.94 3.11c-10.94.65-21.91.94-32.84 1.58-19.06 1.1-38.16 1-57.19 2.64-7.77.66-15.6.53-23.39.84-18.73.76-37.46 1.6-56.19 2.29-5.13.19-10.32.59-15.41-.46" class="cls-21"/><path d="M886 509a22.93 22.93 0 0 0-14.48-1.87c-6.65 1.13-13.26.47-19.87.86-7.34.43-14.67 1.25-22 1.55-10 .41-20.06-.09-30 .87-10.73 1-21.54-.64-32.19 1.46a3.8 3.8 0 0 1-1 .07c-11.37-1.13-22.59 1.94-34 1.14-3.25-.24-5.44-.93-6.45-4.12a5.79 5.79 0 0 1 4.65-1.42c10.47 1.32 20.81-.87 31.23-1.17 22.16-.62 44.32-1.83 66.47-2.71 12.88-.52 25.84-.72 38.71-1.44 10.1-.58 20.24 0 30.31-1.21 2.54-.3 5 0 6.87 2.07A87.3 87.3 0 0 1 886 509" style="fill:#e9efab" transform="translate(-290.09 -354.08)"/><path d="M701 525c-1.57 4.14-5.25 2.68-8.12 2.83-16.24.82-32.49 2.1-48.72 1.93-9.6-.1-19.34.15-28.68 1-10.51.89-21.13.36-31.61 2-5.58.88-11.39 0-17.09.1-4.62 0-8.53 2.86-13.09 2.35l-6.69-.32c-2.07-.85-4.34.13-6.4-.73l-5.6-.28c-1.76-.75-3.73 0-5.48-.73-3.36 0-6.74.24-10-1 13.86-1.38 27.76-1.77 41.68-2.29 16.23-.6 32.46-1.35 48.7-2s32.83-1 49.17-2.18c10.08-.75 20.19.24 30.27-1.41 4.73-.77 5.85-1.61 3.72-5.78A3.8 3.8 0 0 1 693 517v-7h1a2.89 2.89 0 0 1 1.14 2.59c-.64 5.41 3.21 8.6 5.86 12.41" style="fill:#e6eba4" transform="translate(-290.09 -354.08)"/><path d="M554.12 540.87c22.47.84 44.9 2.25 67.39 2.56a1151 1151 0 0 0 120.79-4.22c16.24-1.48 32.44-3.36 48.65-5.05.78 1.14 2.54.65 3.24 1.93-12.38 2.58-25 3.52-37.5 4.77a1183 1183 0 0 1-148 5.11c-17-.42-33.88-1.42-50.82-2.2a29 29 0 0 1-3.89-.69 1.55 1.55 0 0 1 .14-2.21" style="fill:#e1e59a" transform="translate(-290.09 -354.08)"/><path d="M496.91 135.92a132.4 132.4 0 0 0 25.26 0c9-.69 18 .42 27.19-1.4 6-1.19 13-.73 19.48-.6 12.16.25 24.27-.61 36.4-1.46 10-.71 20-.43 30-.5 3.5 0 7 .09 10.28-1.38 2.38-1.07 4.16-.25 5.53 1.8a17.1 17.1 0 0 1-8.13 3.69c-9.66 0-19.31-1-29 .71-4.6.83-9.36-.34-14.13 0-11.85.86-23.75 1-35.62 1.58-15.84.75-31.67 1.86-47.53 2.32-7.42.22-15 1.07-22.4-.61.09-1.95 2.17-2.54 2.67-4.15" class="cls-29"/><path d="M594.24 186.09c-8-1.74-16-.58-24.09-.44-13.23.23-26.41 1.81-39.64 1.21-1-.05-3.54 1.35-2.65-1.8l47.82-9.59c6.58-.52 13.2 0 19.75-.52 6.84-.54 13.65-.44 20.47-.44 2.27 0 4.79-.2 6.06 2.45a158 158 0 0 1-27.72 9.13" class="cls-30"/><path d="M590 474c-.73-1.58-2-2-3.68-2-6 0-12-.42-18 .13-12.88 1.17-25.8 1.33-38.7 1.86q-29 1.2-58 2.22c-15.89.54-31.81 1.11-47.68 2-13.86.8-27.76 1.26-41.62 2.1-10.78.65-21.75 1.31-32.68.85-4.56-.19-9.64-.38-13.69 2.92l-4-3c5.28-2.39 11.13-1.74 16.49-1.81 13.8-.21 27.56-1.14 41.34-1.51 17.41-.47 34.86-.9 52.2-2.14 10.2-.73 20.46-.44 30.72-1.8a151.5 151.5 0 0 1 24.46-.79c13.15.44 26.24-.79 39.34-1.28 18.39-.68 36.8-1.26 55.17-2.28 2.32-.13 3 .53 3.28 2.49-1.01 2.2-2.74 2.72-4.95 2.04" style="fill:#eff9b7" transform="translate(-290.09 -354.08)"/><path d="M614.13 149.04c-14.19-.61-28.34.73-42.47 1-10 .21-20 .93-30 1.16-11.38.27-22.83.08-34.2 1.06-4.57.39-9.15.47-13.69.82-14 1.07-28.14-.05-42.14 2.22-5.1.83-10.5-.22-15.77-.41v-2c1.27-.33 2.56-1 3.81-.94 13.75.82 27.52-.37 41.16-1.09 18.48-1 37-.88 55.46-2.7 8.58-.84 17.19-.28 25.82-1 13.53-1.18 27.19-.93 40.79-1.21 4.48-.09 8.83-1.61 13.35-1 1.59.2 3.39-.52 4.63 1.11-1.74 2.08-4.5 1.95-6.75 2.98" class="cls-15"/><path d="M446.05 536.2c1.1 2.91-1.7 2.11-2.52 2.15-7.57.35-15.17.19-22.73.73-6 .43-12.1.28-17.75 2.88a172.6 172.6 0 0 1-28.11-8.73c.14-3.38 2.81-2.48 4.71-2.68 8.22-.85 16.51-.2 24.72-1.28 1.59-.21 3.35.28 4.69-1 10.5 2.77 21.37 3.92 31.67 7.54 1.6.51 3.59-.39 5.32.39" style="fill:#e6eca5" transform="translate(-290.09 -354.08)"/><path d="M661.07 184.02c-4.79-2-9.82-1.48-14.62-.68-5.63.93-11.2.27-16.79.53a3 3 0 0 1-2.77-1.79l26.9-12.34c8.58-.38 17.17-.05 25.74-.62 1.81-.12 3.64-.6 5.21.79.7 2-.5 3-2 3.89a102.8 102.8 0 0 1-21.67 10.22" class="cls-33"/><path d="M629.85 142.92c-5.57-3.69-11.68-1.08-17.43-1.07-15.63 0-31.26.94-46.88 1.61-13.34.57-26.67 1.75-40 1.79-10.82 0-21.69.38-32.39 1.08-11.94.78-23.92.32-35.83 1.58-8.11.85-16.42-.54-24.42 2l-4-1a3 3 0 0 1 3.17-2c5.68.61 11.19-1.13 16.84-1.07 21.07.21 42.06-1.81 63.12-2.25 8.09-.16 16.24-.18 24.33-.76 24.88-1.78 49.82-2.11 74.72-3.13 8.44-.34 16.8-1.63 25.18.31a16 16 0 0 1-6.41 2.91" class="cls-9"/><path d="M79.91 204.92c-3.31 4-8.6 2.87-12 2.41-6.46-.85-12.52.95-18.78.59-7.79-.45-15.58-.22-23.17 1.94-3.74-2.65-8.08-4.76-8.91-10 2.81-2.19 6.05-1.25 9.15-1.21 10.58.15 21.13-1 31.72-.78Z" class="cls-33"/><path d="M138.91 201.02c-3.75 3.48-8.65 2-13 2.72-4.65.75-9.52.3-14.28.12a9.74 9.74 0 0 0-6.84 2.11 212 212 0 0 1-31.88-9.05c1.76-2.58 4.52-2.52 7.11-2.45 8.39.25 16.68-1.93 25.09-.8a3.3 3.3 0 0 0 1.83-.67c9.13 2.3 18.3 4.46 27.35 7 1.56.51 3.28-.08 4.62 1.02" class="cls-30"/><path d="M348.05 552c-2.31 2.62-5.58 1.6-8.27 1.7-10.85.39-21.73.24-32.6.29-.32-6.4-.65-12.8-1-19.85 14.08 6.67 27.75 12.86 41.87 17.86" style="fill:#e4e89f" transform="translate(-290.09 -354.08)"/><path d="M974.86 551c-10.71 2.36-21.67-.17-32.45 1.75-2.66.47-5.69-1.14-8.55-1.79 13.55-6 27.76-10.5 41-18.35Z" style="fill:#e1e496" transform="translate(-290.09 -354.08)"/><path d="M330 520.13a106.7 106.7 0 0 1 16.86 9c1.09.71 2.18.43 3.11 1.05-1.64 4.77-6.14 3.95-9.22 3.61-6.79-.74-13.27.17-19.82 1.4-4.67-1-8.52-3.8-12.66-5.94-3.81-2-1.73-5.43-2.08-8.28 6.09-1.13 12.25-.07 18.36-.51a31 31 0 0 0 5.45-.33" style="fill:#e8efab" transform="translate(-290.09 -354.08)"/><path d="M912.05 531c-8.12-2.08-16.35-1-24.53-.67-3.71.15-7.39 1-11.1-.06a9.86 9.86 0 0 0-5.83.28c-1.72.57-3.58 1-4.82-1l32.23-8.48c9.17-.82 18.4-.13 27.56-1 2.81-.27 5.65-.79 7.63 2a101.8 101.8 0 0 1-21.14 8.93" style="fill:#e4e99f" transform="translate(-290.09 -354.08)"/><path d="M409.06 528.22c.65 1.23.28 1.71-1.1 1.81-6.47.49-12.87 1.36-19.43 1.24-4.46-.07-9.39-.83-13.59 2a113 113 0 0 1-20.06-7.83c.09-3.6 3-3.5 5.28-3.62 4.62-.24 9.26-.42 13.91-.29 2 .06 4.37.84 6-1.29Z" style="fill:#e8efaa" transform="translate(-290.09 -354.08)"/><path d="M974.83 524c-9.47 2.2-19.22-.19-28.7 1.77-1.56.32-2.07-.63-2.25-1.94 11.29-6.68 22.34-13.67 31-25.15Z" style="fill:#e5eaa2" transform="translate(-290.09 -354.08)"/><path d="M106.91 193.01c-.88 1.77-2.47 1.86-4.19 1.92-8.19.29-16.37.6-24.55 1a39 39 0 0 0-5.29 1 129.7 129.7 0 0 1-23.07-8c1.88-3.21 5.1-2.58 7.93-2.5 5.44.13 10.87.32 16.26-.58 1.76-.3 3.64-.34 4.94-1.89Z" class="cls-17"/><path d="M369.06 538.08c.95 3.54-2.24 2.85-3.67 3.09a68 68 0 0 1-17.27.66 15.7 15.7 0 0 0-8.19 1.22 95.6 95.6 0 0 1-19-7.81c5.5-4 11.72-3.42 18-2.81 3.89.39 7.76.43 11.08-2.2 6.58 2.06 12.29 6.22 19.05 7.85" style="fill:#e6eca6" transform="translate(-290.09 -354.08)"/><path d="M385.74 515.14c-7.76-1.26-15-4.31-22.23-7.09-16.38-6.26-32.51-12.93-46.51-23.86 1.63-1.86 3.85-2.57 6.13-3.16 17.93 14 38.45 22.9 59.73 30.35 1.11.39 2.29 0 3.25.72.86.47 1.57 1.08 1.35 2.18-.23.9-.78 1.31-1.72.86" style="fill:#edf6b8" transform="translate(-290.09 -354.08)"/><path d="M933.15 522.08c-3.37-1.57-6.75-.46-10.18-.15-7.4.66-14.91-.86-22.29.9-1.31.31-2.13-.68-2.72-1.76l26-9c5.94.89 11.81-1.1 17.75-.5 2.2.22 4.77-.42 6 2.36-4.3 3.74-9.37 6.07-14.56 8.15" style="fill:#e5eba4" transform="translate(-290.09 -354.08)"/><path d="M89.98 166.12c1.68 3.14-.68 2.77-2.46 2.78H70.84c-2.35 0-4.63.1-6.05 2.41a82.5 82.5 0 0 1-16.8-8.41c1-3.22 3.75-3.2 6.36-3.38 4.53-.31 9.12.48 13.62-.65 7.66 1.42 14.34 5.84 22.01 7.25" class="cls-21"/><path d="M330 520.13c-.59.55-1.18 1.56-1.78 1.57-7.35.07-14.74 1.31-22-.68v-22.43c6.54 9.41 15.57 15.01 23.78 21.54" style="fill:#ebf3b2" transform="translate(-290.09 -354.08)"/><path d="M324.13 508c-6.27-4.57-11.86-9.75-15.22-16.93.58-1.62 1.49-2.74 3.45-2.22 9.16 5.55 17.5 12.48 27.69 16.27.95 2.95-1.48 3.07-3.07 3.15-4.28.2-8.6.95-12.85-.27" style="fill:#edf6b9" transform="translate(-290.09 -354.08)"/><path d="M385.74 515.14c1.79-.84.8-2 .32-3 12.22 3.36 24.41 6.89 36.69 10a288 288 0 0 0 32.18 6.55c2.71.37 5.4 1 8.09 1.43.72 3.48-1.43 2.33-3.12 1.94-16.23-1.77-32.08-5.52-47.88-9.44-8.83-2.21-17.78-4.07-26.28-7.48" style="fill:#e7eeae" transform="translate(-290.09 -354.08)"/><path d="M459.9 532c1.35-.16 3 .15 3.12-1.94 6.82 1 13.65 1.74 20.38 3.46 5.56 1.42 11.42 1.71 17.16 2.36 4.82.53 9.66.85 14.49 1.26 1.66.79 3.57-.16 5.21.73l3.78.23c1.76.8 3.73 0 5.48.74l5.53.29c2 .85 4.27-.18 6.29.72l5.71.29c2.29.88 4.8-.27 7.09.73 0 .74-.07 1.47-.1 2.21l-6-.27c-2.1-.8-4.38.12-6.48-.71l-5.52-.28c-2-.86-4.25.19-6.26-.73l-4.74-.27c-1.69-.8-3.61.11-5.3-.72a438 438 0 0 1-59.84-8.1" style="fill:#e2e8a4" transform="translate(-290.09 -354.08)"/><path d="M920 503.07c8.71-4.59 18-8.12 26.19-13.64 4-2.68 7.82-5.57 11.72-8.36 1.77 1 4.23 1.27 4.21 4.1-8.54 7.26-18.87 11.31-28.83 16-4 1.87-8.14 3.36-12.21 5-1.45-.66-2.08-1.59-1.08-3.1" style="fill:#e8f0b0" transform="translate(-290.09 -354.08)"/><path d="M972.15 491.12A35.46 35.46 0 0 1 958.84 506c-4.05 1.73-8.12.43-12.15 0-1.55-.17-2.77-1.23-1.82-3.18 8.18-4.61 16.47-9 24-14.73a5.16 5.16 0 0 1 3.28 3.03" style="fill:#e7eeac" transform="translate(-290.09 -354.08)"/><path d="M944.87 502.82c.22 2 1.61 2.28 3.22 2.17a39.7 39.7 0 0 1 10.75 1c-2.87 3.84-7 5.89-11.15 8-5.28-1.67-10.63-1.27-16-.33-2.86.5-5.52.73-7.77-1.53Z" style="fill:#e7eda8" transform="translate(-290.09 -354.08)"/><path d="m920 503.07 1 3.13c-19.39 8-39.54 13.42-60 17.83-2.08.75-2.88.19-2.08-2 6.75-1.93 13.44-4 20.24-5.73a319 319 0 0 0 38.86-12.72 18 18 0 0 1 1.98-.51" style="fill:#e5eba8" transform="translate(-290.09 -354.08)"/><path d="M324.13 508c3.78-1.36 7.71-.86 11.59-1 1.63-.06 3.79.82 4.33-1.87l18 7.86c-1.32 2.82-3.92 1.8-6.11 2-4.65.53-9.66-1.54-13.87 2a63.3 63.3 0 0 1-13.94-8.99" style="fill:#ecf4b5" transform="translate(-290.09 -354.08)"/><path d="M295.08 471.32c4.19 3.1 4.25 6.63 4.24 10.6 0 11.64.44 23.29.71 34.93v5.85a17.2 17.2 0 0 1-4.19-9.76c-1.38-13.62-.18-27.27-.76-41.62" style="fill:#f5f5f5" transform="translate(-290.09 -354.08)"/><path d="M859 522c0 1.36.82 1.92 2.08 2-12.47 3.73-25.33 5.67-38.11 7.92-9.53 1.68-19 3.72-28.74 4.14-.91-.93-4 1.83-3.24-1.93 21.95-3.46 43.9-6.89 65.55-12A15.5 15.5 0 0 1 859 522" style="fill:#e1e69f" transform="translate(-290.09 -354.08)"/><path d="M962.07 485.17c-1-1.81-3.9-1.61-4.21-4.1 4.94-4.81 9.65-9.82 12.76-16.24 5.72 7.33 5.67 8.76-.7 14.38-2.46 2.17-4.76 4.59-7.85 5.96" style="fill:#fafafa" transform="translate(-290.09 -354.08)"/><path d="M323.08 481c-1.44 2.22-3.65 2.94-6.13 3.16-1.95-1.5-4-2.88-5.85-4.51-6.45-5.73-6.51-7.27-.65-14.9 3.02 6.48 7.83 11.37 12.63 16.25" style="fill:#fbfbfb" transform="translate(-290.09 -354.08)"/><path d="M983.24 473.4c.62 15.32 3.14 30.68-1.5 45.66a261.5 261.5 0 0 1 1.5-45.66" style="fill:#eee" transform="translate(-290.09 -354.08)"/><path d="M972.15 491.12c-1.36-.72-3-1.09-3.3-3l5.84-5.13c.4 3.44-.95 5.82-2.54 8.13" style="fill:#ececea" transform="translate(-290.09 -354.08)"/><path d="m312.36 488.83-3.45 2.22c-1.67-2-2.39-4.42-2.9-7.88Z" style="fill:#ebebe9" transform="translate(-290.09 -354.08)"/><path d="M310.35 239.81c-4.8-.22-9.67 1-14.4-.72 4.82-.03 9.64-.26 14.4.72" class="cls-11"/><path d="M313.38 279.97c4.5.31 9.09-1 13.5.74-4.51.04-9.05.39-13.5-.74" class="cls-4"/><path d="M281.24 196.82c-3.1-.19-6.3.9-9.29-.75 3.13-.1 6.26-.25 9.29.75" class="cls-3"/><path d="M294.45 278.99c2.81.19 5.75-.94 8.44.72-2.85.11-5.7.3-8.44-.72" class="cls-4"/><path d="M264.05 186.83c-2.38-.13-4.87.84-7.09-.73 2.39-.1 4.8-.26 7.09.73" class="cls-59"/><path d="M265.26 195.81c-2.44-.16-5 .88-7.3-.73 2.47-.11 4.95-.22 7.3.73" class="cls-3"/><path d="M279.63 277.98c2.42.17 5-.86 7.26.73a17 17 0 0 1-7.26-.73" class="cls-4"/><path d="M239.64 187.01c2.11.09 4.33-.8 6.26.73a12.84 12.84 0 0 1-6.26-.73M251.42 188.02c2.18.1 4.46-.83 6.48.71-2.2.1-4.4.3-6.48-.71M251.25 185.81c-2.12-.08-4.34.8-6.29-.72a12.84 12.84 0 0 1 6.29.72" class="cls-59"/><path d="M250.5 180.02c2.14.13 4.41-.82 6.4.73-2.18.11-4.35.22-6.4-.73" class="cls-22"/><path d="M267.65 276.98c2.09.14 4.31-.79 6.24.73a13 13 0 0 1-6.24-.73" class="cls-4"/><path d="M239.43 184.8c-1.85-.06-3.81.74-5.48-.74 1.88-.14 3.76-.25 5.48.74M229.6 186.02c1.8 0 3.7-.71 5.3.72a9.4 9.4 0 0 1-5.3-.72M230.17 183.83c-1.76 0-3.63.67-5.21-.73a9.8 9.8 0 0 1 5.21.73" class="cls-59"/><path d="M225.55 228.01c1.81.06 3.74-.73 5.36.75a9.24 9.24 0 0 1-5.36-.75" class="cls-3"/><path d="M447.91 275.73c1.56-1.43 3.44-.66 5.19-.77a9 9 0 0 1-5.19.77M257.77 276.01c1.74 0 3.58-.7 5.13.71-1.76.11-3.53.28-5.13-.71M438.91 276.71c1.61-1.41 3.51-.65 5.3-.72a9.54 9.54 0 0 1-5.3.72" class="cls-4"/><path d="M239.42 179.01c1.84.12 3.81-.72 5.48.73-1.88.11-3.76.27-5.48-.73" class="cls-22"/><path d="M122.98 85a405 405 0 0 1 74.17-16.2c19.07-2.38 38.14-4.58 57.32-6 20.21-1.51 40.44-2.29 60.68-3.13 17-.71 33.94-.78 50.9-.61q39.09.38 78.09 3.7c19.32 1.66 38.48 4.25 57.6 7.32.43.07.79.55 1.19.84-5.26 2.41-11 1.72-16.51 2.43-15.87 2.05-31.91.4-47.79 1.69-9 .73-17.92 1-26.85 1.72-7 .55-14 .54-20.93.73-20.76.58-41.48 2.23-62.23 2.67-11.12.23-22.24.77-33.38.86-10.93.09-21.91 1.08-32.84 1.84-11.62.81-23.26.75-34.88 1.42-23.89 1.4-47.83 2-71.75 2.84-8 .27-15.91.19-23.86 1.16-3.16.38-7.15 1.02-8.93-3.28" class="cls-60"/><path d="M413.07 439.08c3.51 2.65 7.63 2.31 11.49 1.73a104 104 0 0 1 15.09-1.28c15.71-.07 31.41-1 47.12-1.6 6.1-.22 12.17-.23 18.29-.71 12.72-1 25.59-.24 38.29-1.38 13-1.16 26.09-.88 39.14-2.26 8.78-.93 18-.53 27-.91 14.2-.6 28.4-.81 42.6-1.7 10.63-.66 21.43-1.21 32.19-1.14 14.37.08 28.73-1.05 43.1-2.29A260 260 0 0 1 761 427a92.7 92.7 0 0 0 22.66-2.18c3-.61 6.2.1 9.32.21 1.83 1.37 4.16-.2 6 1 1.83 1.37 4.16-.2 6 1 1.48 1.29 3.51-.12 5 1 1.48 1.3 3.51-.12 5 1 3.61 1 7.37 1.21 11 2 1 1.57 4.83-1 4.13 2.93-1.79 1.92-4.27 1.95-6.52 1.91-4.84-.09-9.63.66-14.43.67-21.64 0-43.22 1.54-64.83 2.27-24.26.81-48.52 1.9-72.77 3-16.44.75-32.89 1.2-49.33 1.92-25.25 1.09-50.49 2.22-75.75 3.14-23.59.86-47.21 1.63-70.78 3-11.11.62-22.25 1.09-33.37 1.67-9.93.53-19.92 1.16-29.88 1-10.17-.14-20.26 1.1-30.4 1.15-1.52 0-3.43.93-4-1.56 11.54-4.8 23.04-9.57 35.02-13.05" style="fill:#f0fbae" transform="translate(-290.09 -354.08)"/><path d="m51.97 115.92 25-12.92c9.86-1.88 19.88-.71 29.82-1.32 12.76-.77 25.6-1.06 38.41-1.5 18.93-.66 37.87-1.37 56.78-2.64 8.79-.59 17.62-.47 26.43-.91 11.79-.57 23.63-.76 35.43-1.38 20.26-1.06 40.56-1.43 60.82-2.61 8.63-.49 17.29-.83 25.92-1 12.81-.31 25.61-1 38.41-1.46 19.44-.68 38.9-1.25 58.32-2.63 8.79-.62 17.63-.65 26.43-.91 20.79-.6 41.54-2.14 62.35-2.37 7-.08 13.93-.82 20.92-.81 2.15 0 4.32-.41 6.37.6 4.54.81 8.85 2.49 13.35 3.46 1.23.26 1.62 1 .92 2.12a5.53 5.53 0 0 1-4.54 1.73c-7.68-.25-15.26 1-22.93 1.21-21.62.48-43.23 1.49-64.82 2.75-9.3.54-18.63.46-27.94.84L422 97.63c-19.78.83-39.58 1.16-59.33 2.65-9.13.69-18.3.53-27.44.9-11.8.46-23.63.94-35.42 1.46-20.11.88-40.25 1.28-60.34 2.63-9.13.61-18.3.67-27.43.94-20.8.6-41.58 1.75-62.36 2.49-19.11.67-38.26 1.06-57.34 2.61-5.49.45-11 .13-16.49.19-5.9.06-11.63.82-16.84 3.86-1 .57-2.07.95-3.1 1.44-1.24.5-2.48 1.05-3.85.45a.8.8 0 0 1-.09-1.33" class="cls-62"/><path d="M563.91 84.92c-.94-.32-1.91-1-2.8-.9-21.57 2.2-43.24 2.09-64.86 3.09q-19.84.92-39.71 1.78c-18.56.78-37.14 1.07-55.68 2.12-16.56.94-33.15 1.18-49.69 2.05-17.17.91-34.35 1.29-51.52 2-13.9.6-27.8 1.18-41.7 1.84-18.32.87-36.69 1-54.95 2.33-11.19.78-22.5 1-33.67 1.7-13.41.84-27.06 1.15-40.61 1.25-13.37.1-26.79 1.28-40.2 1.63-3.82.1-7.65-.53-11.47-.83l11-5.05c5.41-.1 10.85.09 16.22-.43 2.29-.23 4.58-.57 6.9-.62 15.22-.34 30.45-.32 45.65-1.11 14.7-.77 29.41-1.31 44.11-2.07 15.55-.8 31.13-.81 46.66-1.9 17.53-1.23 35.1-.88 52.61-2 14.89-.93 29.77-1.77 44.7-2 17.82-.29 35.61-1.59 53.44-2.13 15.23-.46 30.46-1.35 45.7-1.95 17.06-.68 34.15-1.18 51.19-2.09 13.84-.73 27.72-.58 41.53-1.76 1.15-.1 2.36.11 3.18-1 3.93-1.28 7.37 1 11 1.57 3.09.48 6 1.69 9.11 2.37 1.34.11 2.85-.41 3.87 1 .34.25.44.5.32.74s-.25.37-.33.37" class="cls-62"/><path d="M940 472c.37 3.77 4.9 2.44 6.35 5.64-4.74 2-10.07 2.91-14.79 2s-9.43-.31-13.67.34c-10.3 1.6-20.68 1-30.94 1.6-14.46.9-29.1.77-43.61 1.37-13.62.57-27.3.53-40.87 1.93-3.65.38-7.26-1.58-11 .56-1.7 1-1.24-3.18-3.4-3.42a3.28 3.28 0 0 1-1.14-1.69c-.94-3.58-4.08-4.68-6.92-6.13a3.73 3.73 0 0 1-1-2.19c-.14-2.65 1.4-3.92 3.69-4.61a18.2 18.2 0 0 1 6.41-.84c12.47.77 25-.21 37.33-1 12.11-.78 24.24-.72 36.34-1.57 10.58-.75 21.23-1.53 31.84-1.34 7.82.14 15.52-2 23.33-.81 4.94 1.55 9.34 4.28 14 6.43 1.62.74 3 2.14 5 1.84Z" style="fill:#eff9b9" transform="translate(-290.09 -354.08)"/><path d="M628.91 108.92c-3.41-1.23-6.88-.13-10.2.19-11.83 1.14-23.73.78-35.54 1.85-15.28 1.4-30.65 1.23-46 2.16-12.38.75-25 2-37.58.83a23.5 23.5 0 0 0-6.38.6c-2.78.53-3.63 1.84-3.32 4.38a2.84 2.84 0 0 1-2.66 1.05c-6-1.71-11.72.6-17.53 1.47a1.24 1.24 0 0 1-1-1.18c-.08-.87 1.36-2.35-1.06-2.26-16.41.59-32.85.82-49.22 2.09-9.28.71-18.57.22-27.86 1.05s-18.56.95-27.84 1.12c-11 .21-21.88 1.14-32.81 1.66-3.06-.63-6.71-.48-7-5 1.45-4.17 5.55-3.65 8.38-3.73 7.37-.22 14.73-.65 22.09-.94 5.8-.24 11.7.08 17.52-.37 11.47-.88 23-.77 34.47-1.51 5.79-.37 11.78.09 17.71-.4q29.48-2.42 59.08-2.05c8.24.11 16.37-1.35 24.54-1.82 7.35-.43 14.93-1.29 22.07-.7 9.8.81 19.37-.72 29-1 15.95-.42 31.95-1.22 47.92-2 4-.21 8.15.45 12.21-.46 2.69-.51 4.68 1.47 7.09 2a5.9 5.9 0 0 1 3.94 1.93c.49.34.48.7-.02 1.04" class="cls-14"/><path d="M854 439v-1.09c9.83 1.47 19.08 4.93 28.37 8.23 1.86.66 3.73 1.3 5.59 1.94a.85.85 0 0 1-.21 1.31c-2.13 1-4-.06-6-.64-4.31-2.6-9.85-2.26-13.79-5.75a71.7 71.7 0 0 0-13.96-4" style="fill:#f6f8b0" transform="translate(-290.09 -354.08)"/><path d="M915 460c-2.57.09-4.8-1-7.09-2a71.5 71.5 0 0 0-15-6 2.25 2.25 0 0 1-2.25-1.23c.14-.74.36-1.34 1.29-.79 8.05 2.69 15.92 5.49 23.05 10.02" style="fill:#f6f8af" transform="translate(-290.09 -354.08)"/><path d="M560.03 82.92c-5.49 0-10.49-2.43-15.81-3.3-1.44-.24-2.9-.43-4.34-.64-.85-1.63-3.18-.36-4-2.06 8.29 1 16.48 2.43 24.15 6" class="cls-66"/><path d="M919 463v-1.1c6.57 1.43 11.95 5.46 17.93 8.18-2 1.63-3.33-.48-4.84-1.08-4.49-1.77-8.43-4.71-13.09-6" style="fill:#f6f8b1" transform="translate(-290.09 -354.08)"/><path d="M51.97 115.92v1a1.07 1.07 0 0 1 .36.78c0 .3 0 .45-.1.45a6.74 6.74 0 0 1-5.26 2.77c-1.69.22-2.89 2.89-5 1Z" class="cls-68"/><path d="M535.91 76.92a21.5 21.5 0 0 1-11-2 24 24 0 0 1 11 2" class="cls-66"/><path d="m601.91 95.92-1 1c-1.68.37-3 .25-3-2V94Z" class="cls-68"/><path d="M514.91 72.92c-2-.31-4.28.87-6-1 2 .26 4.25-.83 6 1" class="cls-60"/><path d="M508.91 71.92c-2-.29-4.28.88-6-1 2 .36 4.26-.88 6 1M524.91 74.92c-1.7-.21-3.63.73-5-1 1.67.21 3.61-.72 5 1M519.91 73.92c-1.7-.21-3.63.73-5-1 1.67.23 3.6-.71 5 1" class="cls-60"/><path d="M585 478h1c1.29 1.11 1.37 2.68 1.24 4.14-.46 5.34 2 8.86 6.61 11.18a3.67 3.67 0 0 1 1.36 1.43c0 3.28-2.44 3.67-4.78 3.82-12.59.8-25.2.8-37.8 1.29-8.76.34-17.47 1.6-26.27 1.3-3.81-.12-7.71.64-11-2.17a4 4 0 0 1-1-1.23A3.39 3.39 0 0 1 515 494c6.48 1.81 13 .17 19.44 0 16.09-.53 32.18-1.29 48.27-2 1.72-.07 3.67 0 2.87-2.63-1.11-3.76-.3-7.58-.58-11.37" style="fill:#edf6b7" transform="translate(-290.09 -354.08)"/><path d="m597.91 94.92 3 2a2.07 2.07 0 0 1 2 1c-4.54 3.39-9.85 1.43-14.75 1.84-13.2 1.12-26.49 1.71-39.71 1.84-12.24.11-24.39 1.31-36.61 1.45-18.42.19-36.87.74-55.23 2.1-8.49.63-16.92.42-25.38.77-16.32.68-32.67 1-48.94 2.23-6.31.49-12.58.62-18.88.75-19.32.4-38.6 1.7-57.91 2.35-8.84.3-17.88 1.07-26.66 1.14s-17.45 1.71-26.08 1.31c-13.45-.63-26.7 1.42-40.1 1.44-19 0-37.91 1.53-56.89 2-14.31.36-28.61 1.71-43 1.84-16.6.16-33.13 1.95-49.75 2.05-5.35 0-10.7 2.11-16-.11 1.3-1.61 3.33-2 5-3 4.66-2.23 9.79-.7 14.58-1.91a14.7 14.7 0 0 1 3.43-.43h6c3.34-.11 6.73.43 10-.62a14.4 14.4 0 0 1 3.47-.39c7.71-.29 15.44.62 23.13-.56a9.7 9.7 0 0 1 1.77-.33c8.27-.46 16.58.43 24.84-.54 3-.8 6.14.1 9.18-.48 4.48-.36 9 .52 13.46-.67a8.5 8.5 0 0 1 1.73-.31c7.67-.52 15.39.58 23-.67a11.3 11.3 0 0 1 2.65-.38c7.31-.31 14.64.39 21.94-.42a7.1 7.1 0 0 1 2.51-.12c3.44 1.27 6.77-.43 10.17-.45h2.41c3.26-.11 6.56.43 9.75-.64a9 9 0 0 1 1.71-.29c7.35-.52 14.76.64 22.09-.71a39 39 0 0 1 7.1-.4h12a31.4 31.4 0 0 0 4.73-.62c2-.32 4.09-.23 6.12-.59a35 35 0 0 1 3.84.24c2.6.09 5.21 0 7.81 0h1.59c2.4 0 4.81.22 7.13-.65a9 9 0 0 1 1.69-.28c7.61-.49 15.27.61 22.86-.7a21.3 21.3 0 0 1 4.5-.4c14.54.39 29-1.18 43.53-1.39a10.6 10.6 0 0 1 1.75-.4c8.22-.69 16.49.5 24.7-.7a9 9 0 0 1 1.78-.36c13.48.4 26.9-1.49 40.38-1.16a14.6 14.6 0 0 0 5.41-.72c4.19-1.37 8.53-1 12.84-1.18 19.39-.86 38.79-1.51 58.17-2.39 18.72-.85 37.47-1.11 56.15-2.74a50 50 0 0 1 7.99.36Z" class="cls-70"/><path d="M304.91 140.92c-9-2.49-9.62-9.41-9-17 1.2-1.47 3.3-2 4-4l5-2c6-.18 12.11-1.39 18 1 1.06 2.75 3.85 2.89 6 4 1.66 3.8 2 7.62.08 11.45-5 7.44-11.82 10.13-20.55 8.15-1.31-.28-2.6-.51-3.53-1.6" class="cls-29"/><path d="M224.91 143.92h1c1 2.26 2.66 3.06 5.14 3q23.36-.23 46.65-2c2.82-.21 5.64-.06 8.46-.07 13.29-.05 26.48-1.81 39.75-2.16 11.3-.3 22.59-.77 33.87-1.25 24.57-1 49.13-2.24 73.71-2.9 8.31-.22 16.56-1.34 24.87-1.18 2.91.06 4.77-1 5.5-3.85 3.78-.92 5.08.24 6 5.35 1.33 2.32.47 3.41-2 3.48-5.57.15-11.15.13-16.72.42-10.84.57-21.66 1.4-32.5 1.93-5.62.27-11.3-.32-16.87.26-11.48 1.21-23 .51-34.53 1.53-6.15.54-13-.75-18.89.18-8.82 1.4-17.49.72-26.2 1.24-13.9.84-27.82 1.31-41.72 2-12.8.59-25.6 1.26-38.4 1.77-5.74.23-11.52.37-17.25.08-3.18-.16-.37-2.58-.86-3.85a1.85 1.85 0 0 1-.58-1.84 3.33 3.33 0 0 1 1.57-2.14" class="cls-29"/><path d="M760 493c-1.62-2-2.43-4.75-5-6-1.35-1.26-1.2-2.83-.9-4.43 1.18-3.13 2.48-6.17 5.9-7.56 6.36-3.72 13.17-2.93 20-2l1 1c2.87 1.52 5.71 3.07 6.47 6.65-.35 2.15 1.07 4.7-1.46 6.35-2.42 5.77-7 8.08-13 8-2.62 1.12-5.2-.46-7.8-.09a5.3 5.3 0 0 1-2.2-.9Z" style="fill:#e1eaaf" transform="translate(-290.09 -354.08)"/><path d="M223.91 145.92v2c-4.48 4.38-9.58 7.14-16.1 7.08-3.18 0-5.77-.76-7.9-3.08l.57-.5c2-.81 3.88.1 5.81.21 5.83.33 11.05-.84 15-5.5a3.21 3.21 0 0 1 2.45-1.43c.62.36.66.76.17 1.22" class="cls-21"/><path d="M495.91 132.92c1.38-2.19.93-4.63 1-7a.6.6 0 0 1 1 0v2c-.4 2.33.92 4.9-1 7a2.07 2.07 0 0 0-1-2" class="cls-29"/><path d="M193.91 148.92v-2c3.11.33 5.5 1.53 6 5-2.42-.11-4-1.88-6-3M474.91 139.92c2.77-.49 5.29.95 8 1-1.05 1.47-2.62.86-4 1-1-1.41-3.74.77-4-2" class="cls-21"/><path d="M474.91 139.92c.85 1.62 3.14.38 4 2-2.16-.18-4.7.78-6-2Z" class="cls-9"/><path d="M422.91 147.92c-2-.32-4.25.81-6-1 2 .33 4.23-.81 6 1" class="cls-21"/><path d="M410.91 170.92c-6.56-3-7.42-8.72-7-15a2 2 0 0 1 2-1 2.47 2.47 0 0 1 .65 1.82c-.07 6.82 1.45 9.32 6.7 11.06 7 2.33 14.77.72 17.86-3.82 1.87-2.74 2.25-5.52-.39-8.09-5.71-4.81-12.13-4.41-18.71-2.49-1.57.46-3 1.47-4.73 1.26a3.3 3.3 0 0 1-1.38-.74c5.22-6.67 18.31-6.35 26-2 2.28 3.32 4.6 6.63 4 11-.57 1.38-2.15 2.26-2 4-6.91 5.79-14.67 6.55-23 4" class="cls-17"/><path d="m696 508 1.37.19c1.56 2.67.27 6.61 4.33 8.26a20 20 0 0 0 13.42 1c4.55-1.22 5.34-4.77 6.52-8.3 4.75 5.4 1.27 13.13-6.88 14.63a25 25 0 0 1-10.33-.16c-8.08-2-10.62-6.42-8.46-14.63.03-.31.03-.64.03-.99" style="fill:#cdd294" transform="translate(-290.09 -354.08)"/><path d="M338.91 155.92c2.92-2.43 6.73-1.92 9.77-1.63 5.75.57 11.18-.32 16.8-.8 6.7-.56 13.65-1 20.42.43-1.88 1.89-4.6 1.5-6.57 1.28-9.3-1-18.41.86-27.61 1.2-4.25.15-8.54-.3-12.81-.48M386.91 153.92a4.31 4.31 0 0 1 4-1.59c4.43 1 8.71-.06 13-.41-.93 2.08-2.77 2-4.63 2z" class="cls-21"/><path d="M197.28 136.06c6.89-4.86 14.05-4.11 21.31-1a4.65 4.65 0 0 1 3.43 4.2c-.52 5.67-2.66 8-9.5 9.28-6.6 1.19-12.76.22-17.24-5.57a5.74 5.74 0 0 1 2-6.91" class="cls-73"/><path d="M487.37 490.14a7.6 7.6 0 0 0-1.17 6.59c4.43 7.74 17.53 9.17 23.46 2.58 1.66-1.85 2.42-3.88 1.59-6.33l-2.57-3.82c3.43-.21 4.09 2.64 5.34 4.85a5.78 5.78 0 0 1 0 5c-6.07 8.94-14.73 9-24 7-1.53-2.23-4-3.3-6-5-1.38-4.4-1.87-8.51 3.35-10.87" style="fill:#dbe3a8" transform="translate(-290.09 -354.08)"/><path d="M223.91 144.92v-5h1v4a2.09 2.09 0 0 1-1 2z" class="cls-9"/><path d="M88.96 115.92h-3c-5.48.91-11-.91-16.49.4-3.08.28-6.15.87-9.26.56-1.34-.14-3.14.3-3.25-2 6.05-4.4 13-4.89 20.17-5.06 21.06-.5 42.14-.95 63.18-2.06q23.36-1.23 46.71-1.94c12.91-.4 25.8-1.42 38.71-2 6.59-.29 13.23-.61 19.77-.68 13.8-.14 27.56-1.1 41.33-1.46 16.4-.43 32.8-1.28 49.21-1.94 15.9-.63 31.79-1.37 47.7-2 16.73-.67 33.47-1.3 50.2-2s33.46-1.38 50.2-2c15.9-.58 31.81-1.21 47.7-2.05 13.9-.73 27.83-.82 41.72-1.77a10.4 10.4 0 0 0 4.31-1c4.74 1.45 9.88 1.78 14 5-5.2 1.75-10.69 1.65-16 1.86-9.74.39-19.47.65-29.21 1.43-5.65.46-11.48.57-17.18.51-14.08-.14-28.09 1.09-42.13 1.5-10.11.29-20.36.15-30.45 1.7-1.22.8-2.59.52-3.88.47-13.77-.55-27.46 1.71-41.23 1a2.92 2.92 0 0 0-1.88.53c-6.7 1.07-13.46.18-20.18.51-1.94.09-3.95-.52-5.82.49a2.84 2.84 0 0 1-1.39.46c-14.44-.61-28.81 1.62-43.24 1-8.77.85-17.58.3-26.35.62a13 13 0 0 1-1.64.34c-2.82.64-5.72.47-8.58.68a6 6 0 0 1-1.4.26 18.2 18.2 0 0 0-6.66-.24 4.34 4.34 0 0 0-1.74.88l-3-1c-1.85 1.25-4.16-.3-6 1a6.7 6.7 0 0 1-4 1 4.44 4.44 0 0 0-1.89-.88c-2.92-.14-5.84-.41-8.72.35h-3.26c-9.16.57-18.34.4-27.51.7a6 6 0 0 1-1.72.29c-3.71.95-7.52.18-11.25.75-11.57.28-23.12 1-34.69.89a15 15 0 0 1-1.62.34 41 41 0 0 0-6.32.84 2.94 2.94 0 0 1-1.58-.13c-4.57-.17-9.15-.54-13.71.25-1.7.13-3.4 0-5.1.08-5.9 1.06-11.91-.08-17.79.76-8.54 1.22-17.15.28-25.69 1.05a36 36 0 0 1-5.28.18c-7.21 1.1-14.47.15-21.69.59-1.02.39-2.18.19-3.13.94" class="cls-68"/><path d="M56.96 114.92c4.19 2.19 8.69.43 13 1 .13.17.26.33.38.5l-.38.5h-3c-3.65 1-7.38.32-11.07.39-.71 0-1-.64-.92-1.39Z" class="cls-68"/><path d="M54.97 115.92c3.85 2.08 8 .49 12 1-4.87 2.2-10 .43-15 1v-1Z" class="cls-70"/><path d="M497.91 125.92h-1l-6-6c3.91.14 5.84 2.61 7 6" class="cls-20"/><path d="M327.91 133.92c2.55-3.47-.17-7.41 1-11 6.25-2 12.89-1.57 19.19-1.69 13.42-.27 26.83-1.17 40.25-1.48 16.54-.39 33.09-1.19 49.61-2.08 8.61-.46 17.21-.64 25.81-.63 3.12 0 6.33-2.74 9.63.07-1.69 1.22-3.79 1.74-4.51 3.81-1.45 2.11-3.39 3.91-4.17 6.47-.08 4.8-2.95 6.4-7.29 7.06-12.86 2-25.84 1.14-38.75 1.79-12.26.61-24.53 1.21-36.82 1.44-15.59.3-31.14 1.83-46.75 1.73a26 26 0 0 1-4.48-.23c-3.13-.58-4.41-2.15-2.72-5.26" class="cls-7"/><path d="M464.91 125.92c.24-2.54 2.14-3.76 4-5h1l-5 7a1.38 1.38 0 0 1 0-2" class="cls-29"/><path d="M464.91 125.92v7c1.27 6.36-2.59 5.95-7.15 6.12q-28.65 1.1-57.31 2.06c-15.86.52-31.71 1.38-47.58 2q-25.07.94-50.15 2c-15.89.65-31.77 1.42-47.66 2-8.11.32-16.21.66-24.33.82-2.89.05-5-.5-4.78-4 2.73 2.64 6.17 2.12 9.43 2 15.46-.71 30.92-1.26 46.37-2.37 5.76-.41 11.8.14 17.72-.07 2.23-.07 4.34-.17 5.47-2.53 2.59.33 5.19.6 7.77 1 7 1 11.29-3.13 15.23-8-.52 3.51 1.39 4 4.4 4.06 11.6.13 23.13-.62 34.7-1.4 4.86-.33 9.81-.37 14.7-.48 19.2-.41 38.37-1.74 57.56-2 6.53-.11 13-.74 19.46-1.08 4.84-.32 4.7-4.25 6.15-7.13" class="cls-19"/><path d="M118.91 113.92c.82-1.07 2-1 3.15-1l40.85-1c.33.22.44.44.33.67s-.22.33-.33.33h-1c-4.59 1.38-9.41-.43-14 1-2.67.87-5.34-.33-8 0a92.2 92.2 0 0 1-21 0" class="cls-68"/><path d="M409.91 102.92c.82-1.08 2-1 3.18-1 14.62.49 29.18-1.74 43.81-1-.82 1.09-2 1-3.18 1-14.63-.49-29.19 1.75-43.81 1M338.91 104.92c15 .55 30-1.71 45-1-.82 1.09-2 1-3.18 1-14-.55-27.85 1.72-41.81 1q-.5-.33-.33-.66c.1-.22.21-.34.32-.34" class="cls-70"/><path d="M189.91 110.92c1-1.24 2.35-.95 3.64-1 8.54-.28 17.11.68 25.62-.93a9.22 9.22 0 0 1 6.74.93c.13.17.26.33.38.5-.12.17-.25.33-.38.5h-2c-3.33-1.86-6.66 2-10 0h-2a102.4 102.4 0 0 1-22 0M237.91 108.92c2.33-2 5.09-.88 7.64-.94 7.11-.16 14.23-.06 21.36-.06.32.22.43.45.32.67s-.21.33-.32.33h-7a102.4 102.4 0 0 1-22 0M338.91 104.92v1h-4a109 109 0 0 1-23 0c3-2 6.41-.82 9.62-.94 5.79-.2 11.59-.06 17.38-.06" class="cls-68"/><path d="M118.91 113.92h21c-3.37 2.13-7.08.76-10.61.93-5.12.26-10.26.07-15.39.07-.33-.22-.43-.44-.33-.67s.22-.33.33-.33ZM383.91 103.92c3.37-2.12 7.08-.75 10.61-.93 5.12-.26 10.26-.07 15.39-.07-3.37 2.13-7.08.76-10.61.94-5.13.26-10.27.06-15.39.06M162.91 112.92v-1h5a41.1 41.1 0 0 1 14 0h1a4 4 0 0 1 4 0c-4 2.14-8.39.66-12.59.95-3.76.26-7.57.05-11.41.05M88.96 115.92a2 2 0 0 1 2-1 102.3 102.3 0 0 1 22 0c-4.05 2.14-8.39.66-12.59.95-3.79.26-7.61.05-11.41.05M311.91 105.92h23c-4 2.14-8.39.66-12.59.95-3.78.25-7.6.05-11.4.05q-.5-.33-.33-.66c.11-.23.22-.34.33-.34Z" class="cls-70"/><path d="M112.91 114.92h-22c4.39-2.12 9.05-.61 13.57-.95 3.13-.24 6.28-.05 9.42-.05v1Z" class="cls-68"/><path d="M189.91 110.92h22c-4.4 2.12-9.06.61-13.58.95-3.12.24-6.28.05-9.42.05-.33-.22-.44-.44-.33-.67s.22-.33.33-.33ZM237.91 108.92h22c-4.4 2.12-9.06.61-13.58.95-3.12.25-6.28.05-9.42.05-.33-.22-.44-.44-.33-.67s.22-.33.33-.33Z" class="cls-70"/><path d="M69.96 115.92c5.33-2.53 10.67-.23 16 0-3.16 2-6.68.54-10 1-1.84-1.3-4.15.27-6-1" class="cls-68"/><path d="M147.91 113.92c4.54-2.11 9.34-.5 14-1-4.5 2.12-9.31.51-14 1M266.91 108.92v-1h3a17.8 17.8 0 0 1 9 0l1 1ZM213.91 110.92c3.34 1.07 6.67-2.67 10 0-3.31-.64-6.64 2.73-10 0" class="cls-70"/><path d="M236.91 108.92v1h-1a21.4 21.4 0 0 1-10 0c3.52-2.12 7.37-.46 11-1M310.91 105.92v1h-1c-2.2 1.3-4.81-.35-7 1h-1c-.35-.22-.47-.44-.35-.66s.23-.34.35-.34c2.82-2 6-.54 9-1" class="cls-68"/><path d="M225.91 109.92h10c-3.16 2-6.68.54-10 1ZM301.91 106.92v1h-9l1-1a11 11 0 0 1 7 0ZM302.91 107.92c2.1-1.92 4.67-.61 7-1-2.1 1.93-4.67.62-7 1" class="cls-70"/><path d="M188.91 110.92v1h-6c1.78-1.8 4-.66 6-1M283.91 107.92c1.75-1.81 4-.67 6-1-1.74 1.83-4 .69-6 1" class="cls-68"/><path d="M69.96 115.92c2 .32 4.25-.81 6 1h-6Z" class="cls-70"/><path d="M299.96 123.92c6.88-5.23 14.24-5.24 21.89-2a5.84 5.84 0 0 1 2.93 3.12v-.05c2.44 3.42.71 5.92-1.94 8.05-5.4 4.34-15.53 4.22-21-.11-3.15-2.47-4.16-5.39-1.88-9.01" class="cls-75"/><path d="M299.96 123.92c-.86 5.95.77 8.42 6.51 10.18a19.24 19.24 0 0 0 12.69-.4c3.92-1.48 6.53-4 5.58-8.68 3.72 2.72 2.73 5.87.61 8.91-4.86 7-21 7-26.1-.14-2.59-3.59-2.95-6.82.71-9.87" class="cls-76"/><path d="m324.78 125.08-2.93-3.16c2.06.1 3.06 1.06 2.93 3.16" class="cls-76"/><path d="M481.2 119.85a15.47 15.47 0 0 1 9.92 2.68c3.77 2.74 3.78 6.67.15 9.57-4.94 3.94-15.28 3.92-20.21-.05-3.59-2.89-3.56-6.95.19-9.57a15.73 15.73 0 0 1 9.95-2.63" class="cls-75"/><path d="M431.56 155.08c1.65 5.09-1 7.8-5.37 9.38a20 20 0 0 1-11.16.68c-6.81-1.47-8.76-4.14-7.74-11 8.27-4.39 16.43-5.96 24.27.94" class="cls-73"/><path d="M208.66 135.66c3.55.63 9.07-.12 9 4.65-.07 4.14-5.53 4.1-9 4.09-3.62 0-9.29.15-9.31-4.27s5.56-3.94 9.31-4.47" class="cls-77"/><path d="M511.25 493c2 3.68.16 6.43-2.54 8.55-5.09 4-14 4.07-19.58.52a5.64 5.64 0 0 1-2.93-5.32c5.55 5.56 12.15 6.07 19.2 3.83 3.6-1.16 6.01-3.45 5.85-7.58" style="fill:#aeb585" transform="translate(-290.09 -354.08)"/><path d="M181.91 111.92h-14a20.9 20.9 0 0 1 14 0M278.91 107.92h-9a9 9 0 0 1 9 0M300.91 106.92h-7a5.79 5.79 0 0 1 7 0" class="cls-68"/><path d="M311.7 122.71c4.2.5 9.77.15 9.71 4.57-.06 4.24-5.71 4.32-9.41 4.3-3.51 0-9-.07-9-4.19-.04-4.8 5.58-3.86 8.7-4.68M481.36 122.76c3.63.45 9 .25 9 4.29 0 4.59-5.57 4.48-9.16 4.5s-9.27.18-9.19-4.4 5.67-3.93 9.35-4.39" class="cls-79"/><path d="M419.41 162.36c-3.61-.69-9.16.12-9.15-4.57 0-4.14 5.36-4.12 8.91-4.11s9.26-.29 9.37 4.13c.11 4.66-5.54 3.86-9.13 4.55" class="cls-77"/></svg>