<svg xmlns="http://www.w3.org/2000/svg" width="300" height="500"><path d="M149.87 612.715c-6.006.16-12.189-.317-18.084.236-2.406 1.022-.726 4.484-1.217 6.737 2.457 1.09 4.612 2.085 3.884 5.152.381 9.004.935 18.005 1.21 27.011-.528 1.169-1.298 2.096-1.878 3.213-.611 4.802-.102 10.725-.269 15.972V836.52" style="fill:none;stroke:#1a1a18;stroke-width:3;stroke-linecap:round;stroke-linejoin:round;stroke-miterlimit:10;stroke-opacity:1;stroke-dasharray:none" transform="translate(0 -552.362)"/><path d="M149.87 613.525h18.757m-18.758 0h-18.496" style="fill:none;stroke:#1a1a18;stroke-width:.37797186;stroke-linecap:round;stroke-linejoin:round;stroke-miterlimit:10;stroke-opacity:1;stroke-dasharray:none" transform="translate(0 -552.362)"/><path d="M168.013 619.684h-36.64m33.81 2.147h-30.328m29.163 30.021h-27.55m28.632 3.752h-29.976" style="fill:none;stroke:#1a1a18;stroke-width:1.80943978;stroke-linecap:round;stroke-linejoin:round;stroke-miterlimit:10;stroke-opacity:1;stroke-dasharray:none" transform="translate(0 -552.362)"/><path d="M149.87 612.715c6.344.53 13.401-1.068 19.296.809.734 2.996 1.055 7.373-3.217 8.038-.974 9.645-1.15 20.46-1.608 30.559 2.125 1.982 2.525 5.689 2.143 10.178v174.22m-16.615 164.032h54.943c2.684-1.724 4.538-4.572 6.699-7.238 2.281-3.267 4.71-6.621 6.433-10.716 1.864-3.23 3.136-6.744 4.29-10.728 1.513-4.029 2.214-9.479 2.948-13.929.424-5.666.117-11.62-.535-16.888-.856-4.378-1.923-9.416-3.486-13.406-1.616-4.653-4.135-9.496-7.23-15.545-11.269-21.843-25.654-42.502-41.818-60.841-2.37-2.627-4.237-5.68-5.094-9.912-.545-1.511-.561-3.548-.535-5.633m-16.615 164.836H95.188c-2.988-1.938-5.065-5.312-7.773-8.573-2.083-3.297-4.572-7.19-6.164-10.72-1.864-4.389-3.287-7.573-4.286-12.332-1.302-4.128-2.149-9.717-2.147-15.01-.629-5.075.358-10.815 1.073-16.084.953-4.026 2.068-7.987 3.487-11.794 2.74-6.644 7.7-16.147 12.062-23.856 10.521-18.459 23.224-36.17 36.985-51.46 2.267-2.918 4.309-6.327 4.826-10.986.584-.837.134-2.728.265-4.021" style="fill:none;stroke:#1a1a18;stroke-width:3;stroke-linecap:round;stroke-linejoin:round;stroke-miterlimit:10;stroke-opacity:1;stroke-dasharray:none" transform="translate(0 -552.362)"/><path d="M154.167 958.752c5.529 0 10.016-4.48 10.016-10.012 0-5.533-4.487-10.008-10.016-10.008h-20.455c-5.529 0-10.016 4.475-10.016 10.008s4.487 10.012 10.016 10.012z" style="fill:#1a1a18;fill-opacity:1;fill-rule:nonzero;stroke:none" transform="translate(0 -552.362)"/><g style="font-size:48.25172806px"><path d="M194.402 948.777v-6.743h.828v6.743zM186.574 948.777v-4.885h.74v.686q.23-.36.612-.578.381-.218.87-.218.542 0 .89.225.346.225.49.63.578-.855 1.508-.855.727 0 1.117.402.391.403.391 1.24v3.353h-.823V945.7q0-.497-.08-.715a.7.7 0 0 0-.292-.352.9.9 0 0 0-.497-.134q-.516 0-.856.343t-.34 1.097v2.838h-.828v-3.174q0-.552-.202-.828-.203-.276-.663-.276-.35 0-.646.184a1.04 1.04 0 0 0-.43.539q-.133.354-.133 1.02v2.535zM178.488 945.452q0-1.197.246-1.925.246-.729.73-1.125.486-.396 1.222-.396.544 0 .952.219.41.219.676.63t.419 1.003q.152.59.152 1.594 0 1.186-.244 1.915t-.73 1.127q-.484.398-1.225.398-.974 0-1.532-.7-.666-.84-.666-2.74m.85 0q0 1.66.39 2.21.388.55.958.55t.96-.553.388-2.207q0-1.665-.389-2.213-.389-.547-.968-.547-.57 0-.91.483-.429.616-.429 2.277M173.25 945.452q0-1.197.246-1.925.246-.729.732-1.125.485-.396 1.22-.396.544 0 .953.219.41.219.676.63t.419 1.003q.15.59.151 1.594 0 1.186-.243 1.915-.244.73-.73 1.127-.484.398-1.225.398-.975 0-1.532-.7-.666-.84-.667-2.74m.851 0q0 1.66.389 2.21t.959.55.959-.553.389-2.207q0-1.665-.39-2.213-.387-.547-.967-.547-.57 0-.911.483-.428.616-.428 2.277M168.022 947.01l.87-.073q.096.634.448.955.351.32.848.32.598 0 1.012-.451.414-.452.414-1.196 0-.709-.398-1.118-.397-.41-1.041-.41a1.44 1.44 0 0 0-1.228.654l-.778-.101.653-3.464h3.353v.791h-2.69l-.364 1.812q.608-.423 1.274-.423.885 0 1.49.612.608.612.608 1.573 0 .916-.534 1.582-.648.819-1.77.819-.92 0-1.502-.515-.582-.516-.665-1.366" style="font-size:9.41994381px;font-variant:normal;font-weight:400;font-stretch:normal;writing-mode:lr-tb;fill:#1a1a18;fill-opacity:1;fill-rule:nonzero;stroke:none;font-family:Helvetica;-inkscape-font-specification:Helvetica" transform="translate(0 -552.362)"/></g><path d="M149.993 607.855h13.68-.142v2.279l-.136 2.144h.136v.145m-13.538-4.568h-13.828.144l.141 2.139h-.14v.14h.14l.14 2.144h-.14v.145m4.13-8.557v3.989m9.413-3.989h-22.53v.14h-.136v.146h-.145v3.421h.145v.145h.136v.137h8.846m23.093-3.989v3.989m-9.41-3.989h22.522v.14h.145v3.712h-.145v.137h-8.983m-27.222 0h13.684m13.538 0h-13.538m-13.543 2.28h13.543m13.538 0h-13.538m20.1-2.28h.141m0 0h.145m-40.632 0h-.14m6.843 2.139h13.543m13.538 0h-13.538m-13.402 2.284h13.402m13.402 0h-13.402" style="fill:none;stroke:#1a1a18;stroke-width:2.70000005;stroke-linecap:round;stroke-linejoin:round;stroke-miterlimit:10;stroke-opacity:1;stroke-dasharray:none" transform="translate(0 -552.362)"/></svg>